<svg width="32" height="55" viewBox="0 0 32 55" fill="none" xmlns="http://www.w3.org/2000/svg">
<path d="M0.00772214 51.876C-0.0607804 52.424 0.327945 52.9238 0.875965 52.9923L9.80647 54.1086C10.3545 54.1771 10.8543 53.7884 10.9228 53.2403C10.9913 52.6923 10.6026 52.1925 10.0545 52.124L2.11631 51.1318L3.10859 43.1935C3.17709 42.6455 2.78837 42.1457 2.24035 42.0772C1.69233 42.0087 1.19254 42.3974 1.12403 42.9455L0.00772214 51.876ZM30.0051 10.9488L29.0101 10.8493L30.0051 10.9488ZM12.0936 43.3717L12.7075 44.161L12.0936 43.3717ZM1.61394 52.7894L2.30729 52.2501L1.07941 50.6714L0.386059 51.2106L1.61394 52.7894ZM3.69399 51.1715L5.08069 50.093L3.8528 48.5143L2.46611 49.5928L3.69399 51.1715ZM6.46738 49.0145L7.85408 47.9359L6.6262 46.3572L5.2395 47.4357L6.46738 49.0145ZM9.24078 46.8574L10.6275 45.7788L9.39959 44.2001L8.0129 45.2787L9.24078 46.8574ZM12.0142 44.7003L12.7075 44.161L11.4796 42.5823L10.7863 43.1216L12.0142 44.7003ZM12.7075 44.161C12.9636 43.9618 13.2175 43.7602 13.469 43.5563L12.2094 42.0028C11.9684 42.1982 11.7251 42.3914 11.4796 42.5823L12.7075 44.161ZM14.954 42.3016C15.4412 41.8728 15.9189 41.4348 16.3868 40.9881L15.0057 39.5415C14.5573 39.9697 14.0995 40.3894 13.6326 40.8004L14.954 42.3016ZM17.7656 39.6172C18.2163 39.1505 18.657 38.6752 19.0874 38.1918L17.5937 36.8619C17.1812 37.3251 16.7589 37.7805 16.327 38.2278L17.7656 39.6172ZM20.3505 36.714C20.7619 36.2125 21.1627 35.7031 21.5527 35.1862L19.9563 33.9815C19.5825 34.4769 19.1984 34.965 18.8042 35.4456L20.3505 36.714ZM22.692 33.611C23.0613 33.0781 23.4196 32.538 23.7667 31.991L22.078 30.9194C21.7453 31.4436 21.402 31.9612 21.0481 32.472L22.692 33.611ZM24.7748 30.3288C25.0996 29.768 25.413 29.2006 25.7149 28.6271L23.945 27.6957C23.6558 28.2453 23.3554 28.789 23.0441 29.3264L24.7748 30.3288ZM26.5853 26.8888C26.8635 26.3038 27.1301 25.713 27.3846 25.1167L25.5452 24.3314C25.3013 24.9029 25.0459 25.4691 24.7792 26.0298L26.5853 26.8888ZM28.1115 23.3137C28.3414 22.7083 28.5593 22.0979 28.7648 21.4827L26.8679 20.8489C26.6709 21.4384 26.4622 22.0234 26.2418 22.6036L28.1115 23.3137ZM29.3434 19.6267C29.5235 19.005 29.6912 18.3789 29.8464 17.7489L27.9044 17.2708C27.7557 17.8745 27.595 18.4744 27.4224 19.0702L29.3434 19.6267ZM30.2729 15.852C30.4019 15.218 30.5184 14.5805 30.6221 13.9398L28.6477 13.6204C28.5484 14.2344 28.4368 14.8454 28.3131 15.4529L30.2729 15.852ZM30.8936 12.0147C30.9324 11.6933 30.9679 11.3711 31.0002 11.0483L29.0101 10.8493C28.9791 11.1587 28.9451 11.4674 28.908 11.7755L30.8936 12.0147ZM31.0002 11.0483L31.1245 9.80467L29.1344 9.60566L29.0101 10.8493L31.0002 11.0483ZM31.3732 7.31748L31.622 4.83029L29.6319 4.63128L29.3832 7.11847L31.3732 7.31748ZM31.8707 2.3431L31.995 1.0995L30.005 0.900496L29.8806 2.14409L31.8707 2.3431Z" fill="#D41F7E"/>
</svg>
