<svg width="16" height="52" viewBox="0 0 16 52" fill="none" xmlns="http://www.w3.org/2000/svg">
<path d="M7.29289 51.7071C7.68342 52.0976 8.31658 52.0976 8.70711 51.7071L15.0711 45.3431C15.4616 44.9526 15.4616 44.3195 15.0711 43.9289C14.6805 43.5384 14.0474 43.5384 13.6569 43.9289L8 49.5858L2.34315 43.9289C1.95262 43.5384 1.31946 43.5384 0.928932 43.9289C0.538408 44.3195 0.538408 44.9526 0.928932 45.3431L7.29289 51.7071ZM7 0V0.980769H9V0H7ZM7 2.94231V4.90385H9V2.94231H7ZM7 6.86538V8.82692H9V6.86538H7ZM7 10.7885V12.75H9V10.7885H7ZM7 14.7115V16.6731H9V14.7115H7ZM7 18.6346V20.5962H9V18.6346H7ZM7 22.5577V24.5192H9V22.5577H7ZM7 26.4808V28.4423H9V26.4808H7ZM7 30.4038V32.3654H9V30.4038H7ZM7 34.3269V36.2885H9V34.3269H7ZM7 38.25V40.2115H9V38.25H7ZM7 42.1731V44.1346H9V42.1731H7ZM7 46.0962V48.0577H9V46.0962H7ZM7 50.0192V51H9V50.0192H7Z" fill="#D41F7E"/>
</svg>
