<svg width="32" height="55" viewBox="0 0 32 55" fill="none" xmlns="http://www.w3.org/2000/svg">
<path d="M31.9923 51.876C32.0608 52.424 31.6721 52.9238 31.124 52.9923L22.1935 54.1086C21.6455 54.1771 21.1457 53.7884 21.0772 53.2403C21.0087 52.6923 21.3974 52.1925 21.9455 52.124L29.8837 51.1318L28.8914 43.1935C28.8229 42.6455 29.2116 42.1457 29.7597 42.0772C30.3077 42.0087 30.8075 42.3974 30.876 42.9455L31.9923 51.876ZM1.99488 10.9488L2.98991 10.8493L1.99488 10.9488ZM19.9064 43.3717L19.2925 44.161L19.9064 43.3717ZM30.3861 52.7894L29.6927 52.2501L30.9206 50.6714L31.6139 51.2106L30.3861 52.7894ZM28.306 51.1715L26.9193 50.093L28.1472 48.5143L29.5339 49.5928L28.306 51.1715ZM25.5326 49.0145L24.1459 47.9359L25.3738 46.3572L26.7605 47.4357L25.5326 49.0145ZM22.7592 46.8574L21.3725 45.7788L22.6004 44.2001L23.9871 45.2787L22.7592 46.8574ZM19.9858 44.7003L19.2925 44.161L20.5204 42.5823L21.2137 43.1216L19.9858 44.7003ZM19.2925 44.161C19.0364 43.9618 18.7825 43.7602 18.531 43.5563L19.7906 42.0028C20.0316 42.1982 20.2749 42.3914 20.5204 42.5823L19.2925 44.161ZM17.046 42.3016C16.5588 41.8728 16.0811 41.4348 15.6132 40.9881L16.9943 39.5415C17.4427 39.9697 17.9005 40.3894 18.3674 40.8004L17.046 42.3016ZM14.2344 39.6172C13.7837 39.1505 13.343 38.6752 12.9126 38.1918L14.4063 36.8619C14.8188 37.3251 15.2411 37.7805 15.673 38.2278L14.2344 39.6172ZM11.6495 36.714C11.2381 36.2125 10.8373 35.7031 10.4473 35.1862L12.0437 33.9815C12.4175 34.4769 12.8016 34.965 13.1958 35.4456L11.6495 36.714ZM9.30797 33.611C8.93871 33.0781 8.58043 32.538 8.23332 31.991L9.92202 30.9194C10.2547 31.4436 10.598 31.9612 10.9519 32.472L9.30797 33.611ZM7.22517 30.3288C6.90037 29.768 6.58696 29.2006 6.28513 28.6271L8.05497 27.6957C8.34423 28.2453 8.6446 28.789 8.95587 29.3264L7.22517 30.3288ZM5.41473 26.8888C5.13646 26.3038 4.86994 25.713 4.61539 25.1167L6.45478 24.3314C6.69874 24.9029 6.95415 25.4691 7.22083 26.0298L5.41473 26.8888ZM3.88849 23.3137C3.65856 22.7083 3.44073 22.0979 3.23518 21.4827L5.13209 20.8489C5.32907 21.4384 5.53783 22.0234 5.75818 22.6036L3.88849 23.3137ZM2.65656 19.6267C2.47647 19.005 2.30877 18.3789 2.15364 17.7489L4.09564 17.2708C4.2443 17.8745 4.40501 18.4744 4.57759 19.0702L2.65656 19.6267ZM1.72714 15.852C1.59805 15.218 1.48158 14.5805 1.37793 13.9398L3.35226 13.6204C3.4516 14.2344 3.56321 14.8454 3.68692 15.4529L1.72714 15.852ZM1.10637 12.0147C1.06764 11.6933 1.03212 11.3711 0.99984 11.0483L2.98991 10.8493C3.02085 11.1587 3.0549 11.4674 3.09201 11.7755L1.10637 12.0147ZM0.99984 11.0483L0.875479 9.80467L2.86555 9.60566L2.98991 10.8493L0.99984 11.0483ZM0.62676 7.31748L0.378042 4.83029L2.36812 4.63128L2.61683 7.11847L0.62676 7.31748ZM0.129322 2.3431L0.00496292 1.0995L1.99504 0.900496L2.1194 2.14409L0.129322 2.3431Z" fill="#D41F7E"/>
</svg>
