<svg width="56" height="56" viewBox="0 0 56 56" fill="none" xmlns="http://www.w3.org/2000/svg">
<path d="M49.875 8.75H17.5V2.625C17.5 2.39294 17.4078 2.17038 17.2437 2.00628C17.0796 1.84219 16.8571 1.75 16.625 1.75H6.125C4.9651 1.75139 3.85311 2.21277 3.03294 3.03294C2.21277 3.85311 1.75139 4.9651 1.75 6.125V46.375C1.75139 47.5349 2.21277 48.6469 3.03294 49.4671C3.85311 50.2872 4.9651 50.7486 6.125 50.75H45.5875C45.8034 51.8133 46.4067 52.7584 47.2802 53.4018C48.1537 54.0453 49.2352 54.3413 50.3147 54.2322C51.3941 54.1232 52.3946 53.617 53.1218 52.8118C53.849 52.0066 54.2511 50.96 54.25 49.875V13.125C54.2486 11.9651 53.7872 10.8531 52.9671 10.0329C52.1469 9.21277 51.0349 8.75139 49.875 8.75ZM6.125 3.5H15.75V8.75H6.125C5.42881 8.75 4.76113 8.47344 4.26884 7.98116C3.77656 7.48887 3.5 6.82119 3.5 6.125C3.5 5.42881 3.77656 4.76113 4.26884 4.26884C4.76113 3.77656 5.42881 3.5 6.125 3.5ZM52.5 49.875C52.5 50.5712 52.2234 51.2389 51.7312 51.7312C51.2389 52.2234 50.5712 52.5 49.875 52.5C49.1788 52.5 48.5111 52.2234 48.0188 51.7312C47.5266 51.2389 47.25 50.5712 47.25 49.875V16.625C48.0064 17.1975 48.93 17.5055 49.8786 17.5017C50.8272 17.4979 51.7482 17.1825 52.5 16.604V49.875ZM49.875 15.75C49.1788 15.75 48.5111 15.4734 48.0188 14.9812C47.5266 14.4889 47.25 13.8212 47.25 13.125C47.25 12.8929 47.1578 12.6704 46.9937 12.5063C46.8296 12.3422 46.6071 12.25 46.375 12.25C46.1429 12.25 45.9204 12.3422 45.7563 12.5063C45.5922 12.6704 45.5 12.8929 45.5 13.125V45.5H32.375V47.25H45.5V49H6.125C5.42881 49 4.76113 48.7234 4.26884 48.2312C3.77656 47.7389 3.5 47.0712 3.5 46.375V9.625C4.25649 10.1945 5.1781 10.5017 6.125 10.5H49.875C50.5712 10.5 51.2389 10.7766 51.7312 11.2688C52.2234 11.7611 52.5 12.4288 52.5 13.125C52.5 13.8212 52.2234 14.4889 51.7312 14.9812C51.2389 15.4734 50.5712 15.75 49.875 15.75Z" fill="#D41F7E"/>
<path d="M41.125 12.25H21C20.7679 12.25 20.5454 12.3422 20.3813 12.5063C20.2172 12.6704 20.125 12.8929 20.125 13.125C20.1236 14.2849 19.6622 15.3969 18.8421 16.2171C18.0219 17.0372 16.9099 17.4986 15.75 17.5V13.125C15.75 12.8929 15.6578 12.6704 15.4937 12.5063C15.3296 12.3422 15.1071 12.25 14.875 12.25H9.625C9.39294 12.25 9.17038 12.3422 9.00628 12.5063C8.84219 12.6704 8.75 12.8929 8.75 13.125V42.875C8.75 43.1071 8.84219 43.3296 9.00628 43.4937C9.17038 43.6578 9.39294 43.75 9.625 43.75H41.125C41.3571 43.75 41.5796 43.6578 41.7437 43.4937C41.9078 43.3296 42 43.1071 42 42.875V13.125C42 12.8929 41.9078 12.6704 41.7437 12.5063C41.5796 12.3422 41.3571 12.25 41.125 12.25ZM10.5 14H14V18.375C14 18.6071 14.0922 18.8296 14.2563 18.9937C14.4204 19.1578 14.6429 19.25 14.875 19.25H15.75C17.2224 19.2482 18.6451 18.7168 19.7582 17.7529C20.8713 16.7891 21.6006 15.457 21.8129 14H24.5V26.25H21.875V23.625C21.875 23.3929 21.7828 23.1704 21.6187 23.0063C21.4546 22.8422 21.2321 22.75 21 22.75H14C13.7679 22.75 13.5454 22.8422 13.3813 23.0063C13.2172 23.1704 13.125 23.3929 13.125 23.625V26.25H10.5V14ZM20.125 24.5V26.25H14.875V24.5H20.125ZM10.5 31.5H14V38.5H10.5V31.5ZM40.25 42H10.5V40.25H25.375C25.6071 40.25 25.8296 40.1578 25.9937 39.9937C26.1578 39.8296 26.25 39.6071 26.25 39.375V30.625C26.25 30.3929 26.1578 30.1704 25.9937 30.0063C25.8296 29.8422 25.6071 29.75 25.375 29.75H10.5V28H31.5C31.7321 28 31.9546 27.9078 32.1187 27.7437C32.2828 27.5796 32.375 27.3571 32.375 27.125C32.3764 25.9651 32.8378 24.8531 33.6579 24.0329C34.4781 23.2128 35.5901 22.7514 36.75 22.75V27.125C36.75 27.3571 36.8422 27.5796 37.0063 27.7437C37.1704 27.9078 37.3929 28 37.625 28H40.25V42ZM15.75 38.5V31.5H24.5V38.5H15.75ZM40.25 26.25H38.5V21.875C38.5 21.6429 38.4078 21.4204 38.2437 21.2563C38.0796 21.0922 37.8571 21 37.625 21H36.75C35.2776 21.0018 33.8549 21.5332 32.7418 22.4971C31.6287 23.4609 30.8994 24.793 30.6871 26.25H26.25V19.25H40.25V26.25ZM40.25 17.5H26.25V14H40.25V17.5Z" fill="#D41F7E"/>
<path d="M35.875 35C35.3558 35 34.8483 35.154 34.4166 35.4424C33.985 35.7308 33.6485 36.1408 33.4498 36.6205C33.2511 37.1001 33.1992 37.6279 33.3004 38.1371C33.4017 38.6463 33.6517 39.114 34.0188 39.4812C34.386 39.8483 34.8537 40.0983 35.3629 40.1996C35.8721 40.3008 36.3999 40.2489 36.8795 40.0502C37.3592 39.8515 37.7692 39.515 38.0576 39.0834C38.346 38.6517 38.5 38.1442 38.5 37.625C38.5 36.9288 38.2234 36.2611 37.7312 35.7688C37.2389 35.2766 36.5712 35 35.875 35ZM35.875 38.5C35.7019 38.5 35.5328 38.4487 35.3889 38.3525C35.245 38.2564 35.1328 38.1197 35.0666 37.9598C35.0004 37.8 34.9831 37.624 35.0168 37.4543C35.0506 37.2846 35.1339 37.1287 35.2563 37.0063C35.3787 36.8839 35.5346 36.8006 35.7043 36.7668C35.874 36.7331 36.05 36.7504 36.2098 36.8166C36.3697 36.8828 36.5064 36.995 36.6025 37.1389C36.6987 37.2828 36.75 37.4519 36.75 37.625C36.75 37.8571 36.6578 38.0796 36.4937 38.2437C36.3296 38.4078 36.1071 38.5 35.875 38.5Z" fill="#D41F7E"/>
<path d="M29.75 35H31.5V40.25H29.75V35Z" fill="#D41F7E"/>
<path d="M33.25 31.5H38.5V33.25H33.25V31.5Z" fill="#D41F7E"/>
<path d="M7 36.75H5.25V46.375C5.25 46.6071 5.34219 46.8296 5.50628 46.9937C5.67038 47.1578 5.89294 47.25 6.125 47.25H12.25V45.5H7V36.75Z" fill="#D41F7E"/>
<path d="M14 45.5H15.75V47.25H14V45.5Z" fill="#D41F7E"/>
</svg>
