<svg width="61" height="61" viewBox="0 0 61 61" fill="none" xmlns="http://www.w3.org/2000/svg">
<path d="M35.7586 22.3526C35.87 22.6967 36.1888 22.9154 36.5321 22.9154C36.6152 22.9154 36.6998 22.9026 36.783 22.8756C37.0282 22.7961 37.2789 22.7207 37.5282 22.6515C37.9611 22.5316 38.2147 22.0834 38.0947 21.6505C37.9745 21.2176 37.5272 20.9639 37.0937 21.084C36.822 21.1593 36.5485 21.2414 36.2814 21.328C35.8542 21.4667 35.6201 21.9254 35.7586 22.3526Z" fill="#D41F7E"/>
<path d="M40.5036 22.0846C40.5304 22.0846 40.5577 22.0832 40.5847 22.0805C40.8409 22.0551 41.102 22.035 41.3605 22.0207C41.809 21.9959 42.1527 21.6122 42.1276 21.1637C42.1028 20.7151 41.7236 20.3747 41.2706 20.3965C40.9884 20.4122 40.7037 20.4341 40.4241 20.4618C39.9772 20.5061 39.6506 20.9044 39.6949 21.3514C39.737 21.771 40.0906 22.0846 40.5036 22.0846Z" fill="#D41F7E"/>
<path d="M52.7225 23.7746C52.5654 24.1953 52.7791 24.664 53.2 24.8209L53.9618 25.1054C54.0558 25.1404 54.1518 25.1568 54.2461 25.1568C54.5759 25.1568 54.886 24.9549 55.0082 24.6278C55.1654 24.2071 54.9517 23.7384 54.5308 23.5814L53.7689 23.2969C53.3472 23.1404 52.8799 23.3539 52.7225 23.7746Z" fill="#D41F7E"/>
<path d="M37.4501 14.6156C37.5935 14.7181 37.759 14.7675 37.9227 14.7675C38.1762 14.7675 38.4261 14.6491 38.5849 14.4273C38.749 14.1977 38.9101 13.9619 39.0634 13.7266C39.3086 13.3502 39.2023 12.8464 38.8257 12.6012C38.4491 12.3559 37.9454 12.4625 37.7004 12.8387C37.5599 13.0544 37.4123 13.2705 37.2618 13.481C37.0003 13.8464 37.0847 14.3543 37.4501 14.6156Z" fill="#D41F7E"/>
<path d="M35.2217 17.7951C35.4159 17.7951 35.6107 17.7259 35.7664 17.5856C35.9765 17.3959 36.1843 17.2001 36.3839 17.0037C36.704 16.6885 36.708 16.1735 36.3929 15.8534C36.0775 15.5334 35.5629 15.5295 35.2426 15.8447C35.0598 16.0246 34.8695 16.2042 34.6767 16.3778C34.3433 16.6788 34.3166 17.193 34.6178 17.5265C34.778 17.7046 34.9994 17.7951 35.2217 17.7951Z" fill="#D41F7E"/>
<path d="M9.25536 17.7457L9.90338 18.2371C10.0506 18.3488 10.223 18.4025 10.3944 18.4025C10.6401 18.4025 10.883 18.2916 11.0429 18.0806C11.3143 17.7227 11.2444 17.2126 10.8865 16.9411L10.2385 16.4496C9.88041 16.1782 9.37004 16.2479 9.099 16.606C8.82755 16.9641 8.89749 17.4742 9.25536 17.7457Z" fill="#D41F7E"/>
<path d="M12.3746 19.0154C12.1524 19.4058 12.289 19.9023 12.6794 20.1246C12.9257 20.2647 13.1768 20.4005 13.4259 20.528C13.5446 20.589 13.6715 20.6178 13.7963 20.6178C14.0916 20.6178 14.3767 20.4564 14.5206 20.1754C14.7256 19.7756 14.5676 19.2856 14.168 19.0806C13.9399 18.9635 13.7095 18.8391 13.4836 18.7106C13.0932 18.4883 12.5963 18.625 12.3746 19.0154Z" fill="#D41F7E"/>
<path d="M7.64676 14.4837L6.99873 13.9922C6.64046 13.7206 6.13029 13.7905 5.85925 14.1486C5.5878 14.5064 5.65775 15.0166 6.01561 15.2881L6.66364 15.7795C6.81085 15.8911 6.98328 15.9448 7.15469 15.9448C7.40032 15.9448 7.6433 15.834 7.80312 15.6229C8.07437 15.2653 8.00442 14.7551 7.64676 14.4837Z" fill="#D41F7E"/>
<path d="M48.8002 10.5735C49.2493 10.5735 49.6135 10.2093 49.6135 9.76017V7.32017C49.6135 6.87101 49.2493 6.50684 48.8002 6.50684C48.351 6.50684 47.9868 6.87101 47.9868 7.32017V9.76017C47.9868 10.2093 48.351 10.5735 48.8002 10.5735Z" fill="#D41F7E"/>
<path d="M48.8002 12.2002C48.351 12.2002 47.9868 12.5644 47.9868 13.0135V15.4535C47.9868 15.9027 48.351 16.2669 48.8002 16.2669C49.2493 16.2669 49.6135 15.9027 49.6135 15.4535V13.0135C49.6135 12.5644 49.2493 12.2002 48.8002 12.2002Z" fill="#D41F7E"/>
<path d="M44.7337 12.1999H47.1737C47.6229 12.1999 47.9871 11.8357 47.9871 11.3866C47.9871 10.9374 47.6229 10.5732 47.1737 10.5732H44.7337C44.2846 10.5732 43.9204 10.9374 43.9204 11.3866C43.9204 11.8357 44.2846 12.1999 44.7337 12.1999Z" fill="#D41F7E"/>
<path d="M50.4266 12.1999H52.8666C53.3158 12.1999 53.6799 11.8357 53.6799 11.3866C53.6799 10.9374 53.3158 10.5732 52.8666 10.5732H50.4266C49.9775 10.5732 49.6133 10.9374 49.6133 11.3866C49.6133 11.8357 49.9775 12.1999 50.4266 12.1999Z" fill="#D41F7E"/>
<path d="M13.5095 9.75986C13.5095 8.14092 12.1923 6.82373 10.5733 6.82373C8.9544 6.82373 7.63721 8.14092 7.63721 9.75986C7.63721 11.3788 8.9542 12.696 10.5733 12.696C12.1925 12.696 13.5095 11.3788 13.5095 9.75986ZM9.26387 9.75986C9.26387 9.03783 9.85151 8.4504 10.5733 8.4504C11.2952 8.4504 11.8828 9.03783 11.8828 9.75986C11.8828 10.4819 11.2952 11.0693 10.5733 11.0693C9.85151 11.0693 9.26387 10.4819 9.26387 9.75986Z" fill="#D41F7E"/>
<path d="M9.75962 26.84C10.2088 26.84 10.573 26.4759 10.573 26.0267C10.573 25.5775 10.2088 25.2134 9.75962 25.2134C9.31043 25.2134 8.94629 25.5775 8.94629 26.0267C8.94629 26.4759 9.31043 26.84 9.75962 26.84Z" fill="#D41F7E"/>
<path d="M49.613 46.5431V23.4826L50.1512 23.6835C50.2451 23.7185 50.3411 23.735 50.4354 23.735C50.7652 23.735 51.0753 23.5331 51.1975 23.2059C51.3547 22.7852 51.141 22.3165 50.7201 22.1595L49.9582 21.8751C49.8439 21.8326 49.7268 21.8194 49.6127 21.8281V19.7126C49.6127 19.4235 49.459 19.1559 49.2093 19.0101C48.9596 18.8643 48.651 18.8621 48.3995 19.0046L45.5274 20.6278C45.5176 20.6258 45.5089 20.6219 45.4989 20.6203C45.2199 20.575 44.9371 20.5355 44.6585 20.5024C44.2132 20.4501 43.808 20.7689 43.7555 21.2148C43.7395 21.3505 43.7612 21.4808 43.8072 21.6L34.2025 27.0284V20.5034C34.2025 20.2169 34.0519 19.9515 33.8056 19.8047L33.2438 19.4698C33.4705 19.2063 33.513 18.818 33.3182 18.5085C33.0787 18.1285 32.5769 18.014 32.1964 18.2537C32.035 18.3554 31.8681 18.4532 31.7017 18.5506L16.6827 9.59658C16.4318 9.44693 16.1193 9.44347 15.8647 9.58804C15.6101 9.73241 15.453 10.0024 15.453 10.295V46.4058C11.7808 46.8133 8.94629 49.9509 8.94629 53.6801C8.94629 54.1292 9.31046 54.4934 9.75962 54.4934H16.2663H48.7996H54.493C54.9421 54.4934 55.3063 54.1292 55.3063 53.6801C55.3063 50.2576 52.9257 47.2946 49.613 46.5431ZM15.453 48.0475V52.8667H10.6313C10.9892 50.3938 12.9542 48.4062 15.453 48.0475ZM17.0796 52.8667V11.7269L32.5759 20.9654V52.8667H17.0796ZM34.2025 52.8667V28.8968L47.9863 21.1067V52.8667H34.2025ZM49.613 52.8667V48.2254C51.7398 48.8574 53.3065 50.6811 53.6215 52.8667H49.613Z" fill="#D41F7E"/>
<path d="M30.0932 21.96H19.5199C19.0707 21.96 18.7065 22.3241 18.7065 22.7733V26.0266C18.7065 26.4758 19.0707 26.84 19.5199 26.84H30.0932C30.5424 26.84 30.9065 26.4758 30.9065 26.0266V22.7733C30.9065 22.3241 30.5424 21.96 30.0932 21.96ZM29.2799 25.2133H20.3332V23.5866H29.2799V25.2133Z" fill="#D41F7E"/>
<path d="M30.0932 28.4668H19.5199C19.0707 28.4668 18.7065 28.831 18.7065 29.2801V32.5335C18.7065 32.9826 19.0707 33.3468 19.5199 33.3468H30.0932C30.5424 33.3468 30.9065 32.9826 30.9065 32.5335V29.2801C30.9065 28.831 30.5424 28.4668 30.0932 28.4668ZM29.2799 31.7201H20.3332V30.0935H29.2799V31.7201Z" fill="#D41F7E"/>
<path d="M30.0932 34.9731H19.5199C19.0707 34.9731 18.7065 35.3373 18.7065 35.7865V39.0398C18.7065 39.489 19.0707 39.8532 19.5199 39.8532H30.0932C30.5424 39.8532 30.9065 39.489 30.9065 39.0398V35.7865C30.9065 35.3373 30.5424 34.9731 30.0932 34.9731ZM29.2799 38.2265H20.3332V36.5998H29.2799V38.2265Z" fill="#D41F7E"/>
<path d="M30.0932 41.48H19.5199C19.0707 41.48 18.7065 41.8442 18.7065 42.2933V45.5467C18.7065 45.9958 19.0707 46.36 19.5199 46.36H30.0932C30.5424 46.36 30.9065 45.9958 30.9065 45.5467V42.2933C30.9065 41.8442 30.5424 41.48 30.0932 41.48ZM29.2799 44.7333H20.3332V43.1066H29.2799V44.7333Z" fill="#D41F7E"/>
<path d="M44.7334 30.8853H37.4134C36.9643 30.8853 36.6001 31.2494 36.6001 31.6986V34.9733C36.6001 35.4224 36.9643 35.7866 37.4134 35.7866H44.7334C45.1826 35.7866 45.5468 35.4224 45.5468 34.9733V31.6986C45.5468 31.2494 45.1826 30.8853 44.7334 30.8853ZM43.9201 34.1599H38.2268V32.5119H43.9201V34.1599Z" fill="#D41F7E"/>
<path d="M44.7334 37.3916H37.4134C36.9643 37.3916 36.6001 37.7558 36.6001 38.2049V41.4796C36.6001 41.9288 36.9643 42.293 37.4134 42.293H44.7334C45.1826 42.293 45.5468 41.9288 45.5468 41.4796V38.2049C45.5468 37.7558 45.1826 37.3916 44.7334 37.3916ZM43.9201 40.6663H38.2268V39.0183H43.9201V40.6663Z" fill="#D41F7E"/>
<path d="M44.7334 43.8984H37.4134C36.9643 43.8984 36.6001 44.2626 36.6001 44.7118V47.9865C36.6001 48.4356 36.9643 48.7998 37.4134 48.7998H44.7334C45.1826 48.7998 45.5468 48.4356 45.5468 47.9865V44.7118C45.5468 44.2626 45.1826 43.8984 44.7334 43.8984ZM43.9201 47.1731H38.2268V45.5251H43.9201V47.1731Z" fill="#D41F7E"/>
</svg>
