<svg width="35" height="32" viewBox="0 0 35 32" fill="none" xmlns="http://www.w3.org/2000/svg">
<path d="M9.72925 15.1345H7.56718C7.00747 15.1345 6.55371 15.5882 6.55371 16.1479C6.55371 16.7076 7.00747 17.1614 7.56718 17.1614H9.72925C10.289 17.1614 10.7427 16.7076 10.7427 16.1479C10.7427 15.5882 10.289 15.1345 9.72925 15.1345Z" fill="#D41F7E"/>
<path d="M9.72925 19.4586H7.56718C7.00747 19.4586 6.55371 19.9124 6.55371 20.4721C6.55371 21.0318 7.00747 21.4855 7.56718 21.4855H9.72925C10.289 21.4855 10.7427 21.0318 10.7427 20.4721C10.7427 19.9124 10.289 19.4586 9.72925 19.4586Z" fill="#D41F7E"/>
<path d="M9.72925 23.7827H7.56718C7.00747 23.7827 6.55371 24.2365 6.55371 24.7962C6.55371 25.3559 7.00747 25.8097 7.56718 25.8097H9.72925C10.289 25.8097 10.7427 25.3559 10.7427 24.7962C10.7427 24.2365 10.289 23.7827 9.72925 23.7827Z" fill="#D41F7E"/>
<path d="M18.3777 15.1345H16.2156C15.6559 15.1345 15.2021 15.5882 15.2021 16.1479C15.2021 16.7076 15.6559 17.1614 16.2156 17.1614H18.3777C18.9374 17.1614 19.3912 16.7076 19.3912 16.1479C19.3912 15.5882 18.9374 15.1345 18.3777 15.1345Z" fill="#D41F7E"/>
<path d="M18.3777 19.4586H16.2156C15.6559 19.4586 15.2021 19.9124 15.2021 20.4721C15.2021 21.0318 15.6559 21.4855 16.2156 21.4855H18.3777C18.9374 21.4855 19.3912 21.0318 19.3912 20.4721C19.3912 19.9124 18.9374 19.4586 18.3777 19.4586Z" fill="#D41F7E"/>
<path d="M18.3777 23.7827H16.2156C15.6559 23.7827 15.2021 24.2365 15.2021 24.7962C15.2021 25.3559 15.6559 25.8097 16.2156 25.8097H18.3777C18.9374 25.8097 19.3912 25.3559 19.3912 24.7962C19.3912 24.2365 18.9374 23.7827 18.3777 23.7827Z" fill="#D41F7E"/>
<path d="M27.0261 15.1345H24.8641C24.3043 15.1345 23.8506 15.5882 23.8506 16.1479C23.8506 16.7076 24.3043 17.1614 24.8641 17.1614H27.0261C27.5858 17.1614 28.0396 16.7076 28.0396 16.1479C28.0396 15.5882 27.5858 15.1345 27.0261 15.1345Z" fill="#D41F7E"/>
<path d="M27.0261 19.4586H24.8641C24.3043 19.4586 23.8506 19.9124 23.8506 20.4721C23.8506 21.0318 24.3043 21.4855 24.8641 21.4855H27.0261C27.5858 21.4855 28.0396 21.0318 28.0396 20.4721C28.0396 19.9124 27.5858 19.4586 27.0261 19.4586Z" fill="#D41F7E"/>
<path d="M27.0261 23.7827H24.8641C24.3043 23.7827 23.8506 24.2365 23.8506 24.7962C23.8506 25.3559 24.3043 25.8097 24.8641 25.8097H27.0261C27.5858 25.8097 28.0396 25.3559 28.0396 24.7962C28.0396 24.2365 27.5858 23.7827 27.0261 23.7827Z" fill="#D41F7E"/>
<path d="M31.5527 2.70258H29.1203V1.01347C29.1203 0.453764 28.6666 0 28.1069 0C27.5472 0 27.0934 0.453764 27.0934 1.01347V2.70258H18.31V1.01347C18.31 0.453764 17.8562 0 17.2965 0C16.7368 0 16.2831 0.453764 16.2831 1.01347V2.70258H7.49967V1.01347C7.49967 0.453764 7.04591 0 6.4862 0C5.9265 0 5.47273 0.453764 5.47273 1.01347V2.70258H3.04041C1.36393 2.70258 0 4.06651 0 5.74299V28.1744C0 29.8509 1.36393 31.2148 3.04041 31.2148H31.5527C33.2291 31.2148 34.5931 29.8509 34.5931 28.1744C34.5931 27.5203 34.5931 6.31222 34.5931 5.74299C34.5931 4.06651 33.2291 2.70258 31.5527 2.70258ZM2.02694 5.74299C2.02694 5.18416 2.48158 4.72952 3.04041 4.72952H5.47273V6.41864C5.47273 6.97834 5.9265 7.43211 6.4862 7.43211C7.04591 7.43211 7.49967 6.97834 7.49967 6.41864V4.72952H16.2831V6.41864C16.2831 6.97834 16.7368 7.43211 17.2965 7.43211C17.8562 7.43211 18.31 6.97834 18.31 6.41864V4.72952H27.0934V6.41864C27.0934 6.97834 27.5472 7.43211 28.1069 7.43211C28.6666 7.43211 29.1203 6.97834 29.1203 6.41864V4.72952H31.5527C32.1115 4.72952 32.5661 5.18416 32.5661 5.74299V9.7293H2.02694V5.74299ZM31.5527 29.1879H3.04041C2.48158 29.1879 2.02694 28.7333 2.02694 28.1744V11.7562H32.5661V28.1744C32.5661 28.7333 32.1115 29.1879 31.5527 29.1879Z" fill="#D41F7E"/>
</svg>
