<svg width="43" height="43" viewBox="0 0 43 43" fill="none" xmlns="http://www.w3.org/2000/svg">
<path d="M35.4497 11.795C35.402 11.68 35.3328 11.5762 35.2468 11.4893L29.639 5.88155C29.2735 5.51605 28.6828 5.51605 28.3173 5.88155C27.9518 6.24705 27.9518 6.83783 28.3173 7.20333L32.3303 11.2173H12.1521C11.6361 11.2173 11.2173 11.6351 11.2173 12.1521V19.6303C11.2173 20.1473 11.6361 20.5651 12.1521 20.5651C12.6681 20.5651 13.0869 20.1473 13.0869 19.6303V13.0869H32.3303L28.3173 17.0999C27.9518 17.4654 27.9518 18.0562 28.3173 18.4217C28.4995 18.6039 28.7389 18.6955 28.9782 18.6955C29.2175 18.6955 29.4568 18.6039 29.639 18.4217L35.2468 12.8139C35.3337 12.7279 35.402 12.6241 35.4497 12.5092C35.5441 12.2811 35.5441 12.0231 35.4497 11.795Z" fill="#D41F7E"/>
<path d="M30.8479 22.4351C30.331 22.4351 29.9131 22.8529 29.9131 23.3698V29.9133H10.6697L14.6827 25.9003C15.0482 25.5348 15.0482 24.944 14.6827 24.5785C14.3172 24.213 13.7264 24.213 13.3609 24.5785L7.75315 30.1863C7.66622 30.2723 7.59798 30.376 7.5503 30.491C7.45589 30.7191 7.45589 30.9771 7.5503 31.2052C7.59798 31.3202 7.66622 31.423 7.75315 31.5099L13.3609 37.1177C13.5432 37.3 13.7825 37.3916 14.0218 37.3916C14.2611 37.3916 14.5004 37.3 14.6827 37.1177C15.0482 36.7522 15.0482 36.1614 14.6827 35.7959L10.6697 31.7829H30.8479C31.3648 31.7829 31.7827 31.365 31.7827 30.8481V23.3698C31.7827 22.8529 31.3648 22.4351 30.8479 22.4351Z" fill="#D41F7E"/>
<path d="M38.3261 0H4.67391C2.09672 0 0 2.09672 0 4.67391V38.3261C0 40.9033 2.09672 43 4.67391 43H38.3261C40.9033 43 43 40.9033 43 38.3252V4.67391C43 2.09672 40.9033 0 38.3261 0ZM41.1304 38.3252C41.1304 39.8713 39.8722 41.1304 38.3261 41.1304H4.67391C3.12778 41.1304 1.86957 39.8722 1.86957 38.3261V4.67391C1.86957 3.12778 3.12778 1.86957 4.67391 1.86957H38.3261C39.8722 1.86957 41.1304 3.12778 41.1304 4.67391V38.3252Z" fill="#D41F7E"/>
</svg>
