<svg width="54" height="54" viewBox="0 0 54 54" fill="none" xmlns="http://www.w3.org/2000/svg">
<path d="M36.9167 13.8828H17.0841C15.3047 13.8847 13.8633 15.3267 13.8613 17.1056V36.9382C13.8633 38.7172 15.3047 40.1591 17.0841 40.161H36.9167C38.6957 40.1591 40.1376 38.7172 40.1395 36.9382V17.1056C40.1376 15.3267 38.6957 13.8847 36.9167 13.8828ZM38.6521 36.9382C38.6506 37.896 37.8745 38.6726 36.9167 38.6736H17.0841C16.1259 38.6726 15.3497 37.896 15.3488 36.9382V17.1056C15.3497 16.1474 16.1259 15.3712 17.0841 15.3703H36.9167C37.8745 15.3712 38.6511 16.1474 38.6521 17.1056V36.9382Z" fill="#D41F7E"/>
<path d="M39.3957 10.1641H14.6049C12.1413 10.167 10.145 12.1628 10.1426 14.6264V39.4172C10.145 41.8803 12.1413 43.8766 14.6049 43.8795H39.3957C41.8588 43.8766 43.8551 41.8803 43.858 39.4172V14.6264C43.8551 12.1628 41.8588 10.167 39.3957 10.1641ZM42.3706 39.4172C42.3686 41.0596 41.0376 42.3901 39.3957 42.3921H14.6049C12.9625 42.3901 11.632 41.0596 11.63 39.4172V14.6264C11.6315 12.984 12.9625 11.6534 14.6049 11.6515H39.3957C41.0376 11.6534 42.3686 12.984 42.3706 14.6264V39.4172Z" fill="#D41F7E"/>
<path d="M29.6793 46.3149C29.2682 46.3149 28.9355 46.6481 28.9355 47.0587V53.2564C28.9355 53.6674 29.2682 54.0001 29.6793 54.0001C30.0899 54.0001 30.423 53.6674 30.423 53.2564V47.0587C30.423 46.6481 30.0899 46.3149 29.6793 46.3149Z" fill="#D41F7E"/>
<path d="M24.3209 46.3149C23.9098 46.3149 23.5771 46.6481 23.5771 47.0587V53.2564C23.5771 53.6674 23.9098 54.0001 24.3209 54.0001C24.7315 54.0001 25.0646 53.6674 25.0646 53.2564V47.0587C25.0646 46.6481 24.7315 46.3149 24.3209 46.3149Z" fill="#D41F7E"/>
<path d="M18.9615 46.3149C18.5509 46.3149 18.2178 46.6481 18.2178 47.0587V53.2564C18.2178 53.6674 18.5509 54.0001 18.9615 54.0001C19.3721 54.0001 19.7052 53.6674 19.7052 53.2564V47.0587C19.7052 46.6481 19.3721 46.3149 18.9615 46.3149Z" fill="#D41F7E"/>
<path d="M35.0386 46.3149C34.6276 46.3149 34.2949 46.6481 34.2949 47.0587V53.2564C34.2949 53.6674 34.6276 54.0001 35.0386 54.0001C35.4492 54.0001 35.7824 53.6674 35.7824 53.2564V47.0587C35.7824 46.6481 35.4492 46.3149 35.0386 46.3149Z" fill="#D41F7E"/>
<path d="M25.0646 6.94142V0.743723C25.0646 0.333126 24.7315 0 24.3209 0C23.9098 0 23.5771 0.333126 23.5771 0.743723V6.94142C23.5771 7.35201 23.9098 7.68514 24.3209 7.68514C24.7315 7.68514 25.0646 7.35201 25.0646 6.94142Z" fill="#D41F7E"/>
<path d="M30.423 6.94142V0.743723C30.423 0.333126 30.0899 0 29.6793 0C29.2682 0 28.9355 0.333126 28.9355 0.743723V6.94142C28.9355 7.35201 29.2682 7.68514 29.6793 7.68514C30.0899 7.68514 30.423 7.35201 30.423 6.94142Z" fill="#D41F7E"/>
<path d="M35.7824 6.94142V0.743723C35.7824 0.333126 35.4492 0 35.0386 0C34.6276 0 34.2949 0.333126 34.2949 0.743723V6.94142C34.2949 7.35201 34.6276 7.68514 35.0386 7.68514C35.4492 7.68514 35.7824 7.35201 35.7824 6.94142Z" fill="#D41F7E"/>
<path d="M19.7052 6.94142V0.743723C19.7052 0.333126 19.3721 0 18.9615 0C18.5509 0 18.2178 0.333126 18.2178 0.743723V6.94142C18.2178 7.35201 18.5509 7.68514 18.9615 7.68514C19.3721 7.68514 19.7052 7.35201 19.7052 6.94142Z" fill="#D41F7E"/>
<path d="M53.2559 23.5767H47.0582C46.6476 23.5767 46.3145 23.9093 46.3145 24.3204C46.3145 24.731 46.6476 25.0641 47.0582 25.0641H53.2559C53.667 25.0641 53.9996 24.731 53.9996 24.3204C53.9996 23.9093 53.667 23.5767 53.2559 23.5767Z" fill="#D41F7E"/>
<path d="M53.2559 28.936H47.0582C46.6476 28.936 46.3145 29.2687 46.3145 29.6798C46.3145 30.0903 46.6476 30.4235 47.0582 30.4235H53.2559C53.667 30.4235 53.9996 30.0903 53.9996 29.6798C53.9996 29.2687 53.667 28.936 53.2559 28.936Z" fill="#D41F7E"/>
<path d="M53.2559 34.2949H47.0582C46.6476 34.2949 46.3145 34.6276 46.3145 35.0386C46.3145 35.4492 46.6476 35.7824 47.0582 35.7824H53.2559C53.667 35.7824 53.9996 35.4492 53.9996 35.0386C53.9996 34.6276 53.667 34.2949 53.2559 34.2949Z" fill="#D41F7E"/>
<path d="M53.2559 18.2178H47.0582C46.6476 18.2178 46.3145 18.5509 46.3145 18.9615C46.3145 19.3721 46.6476 19.7052 47.0582 19.7052H53.2559C53.667 19.7052 53.9996 19.3721 53.9996 18.9615C53.9996 18.5509 53.667 18.2178 53.2559 18.2178Z" fill="#D41F7E"/>
<path d="M6.94142 28.936H0.743723C0.333126 28.936 0 29.2687 0 29.6798C0 30.0903 0.333126 30.4235 0.743723 30.4235H6.94142C7.35201 30.4235 7.68514 30.0903 7.68514 29.6798C7.68514 29.2687 7.35201 28.936 6.94142 28.936Z" fill="#D41F7E"/>
<path d="M6.94142 23.5767H0.743723C0.333126 23.5767 0 23.9093 0 24.3204C0 24.731 0.333126 25.0641 0.743723 25.0641H6.94142C7.35201 25.0641 7.68514 24.731 7.68514 24.3204C7.68514 23.9093 7.35201 23.5767 6.94142 23.5767Z" fill="#D41F7E"/>
<path d="M6.94142 18.2178H0.743723C0.333126 18.2178 0 18.5509 0 18.9615C0 19.3721 0.333126 19.7052 0.743723 19.7052H6.94142C7.35201 19.7052 7.68514 19.3721 7.68514 18.9615C7.68514 18.5509 7.35201 18.2178 6.94142 18.2178Z" fill="#D41F7E"/>
<path d="M6.94142 34.2949H0.743723C0.333126 34.2949 0 34.6276 0 35.0386C0 35.4492 0.333126 35.7824 0.743723 35.7824H6.94142C7.35201 35.7824 7.68514 35.4492 7.68514 35.0386C7.68514 34.6276 7.35201 34.2949 6.94142 34.2949Z" fill="#D41F7E"/>
<path d="M26.3047 21.7268C26.1952 21.3995 25.7866 21.2358 25.3774 21.2358C24.9683 21.2358 24.5727 21.3995 24.4638 21.7268L21.7503 30.5619C21.7392 30.6021 21.7348 30.6437 21.7368 30.6849C21.7368 31.0393 22.2413 31.2848 22.6369 31.2848C22.8824 31.2848 23.0732 31.203 23.1414 30.9846L23.7002 29.0488H27.0682L27.627 30.9846C27.6953 31.203 27.886 31.2848 28.118 31.2848C28.5271 31.2848 29.0317 31.0258 29.0317 30.6849C29.0292 30.6428 29.02 30.6011 29.0041 30.5619L26.3047 21.7268ZM24.0139 27.8896L25.3774 23.2128L26.7409 27.8896H24.0139Z" fill="#D41F7E"/>
<path d="M30.8313 21.3179C30.4769 21.3179 30.1084 21.4539 30.1084 21.7812V30.8076C30.1084 31.1214 30.4769 31.285 30.8313 31.285C31.1993 31.285 31.5537 31.1214 31.5537 30.8076V21.7817C31.5537 21.4539 31.1993 21.3179 30.8313 21.3179Z" fill="#D41F7E"/>
</svg>
