<svg width="56" height="56" viewBox="0 0 56 56" fill="none" xmlns="http://www.w3.org/2000/svg">
<path d="M28 0C12.5611 0 0 12.5611 0 28C0 43.4389 12.5611 56 28 56C43.4389 56 56 43.4389 56 28C56 12.5611 43.4389 0 28 0ZM28 52.5C14.4905 52.5 3.50002 41.5095 3.50002 28C3.50002 14.4905 14.4905 3.50002 28 3.50002C41.5095 3.50002 52.5 14.4905 52.5 28C52.5 41.5095 41.5095 52.5 28 52.5Z" fill="#D41F7E"/>
<path d="M29.75 10.5H26.25V28.7246L37.2627 39.7372L39.7373 37.2626L29.75 27.2753V10.5Z" fill="#D41F7E"/>
</svg>
