<svg width="36" height="36" viewBox="0 0 36 36" fill="none" xmlns="http://www.w3.org/2000/svg">
<g clip-path="url(#clip0)">
<path d="M29.7642 10.4856C28.6013 5.31615 23.4678 2.0683 18.2984 3.23125C15.6815 3.82001 13.4306 5.47734 12.0913 7.80144H12.0019C8.23765 7.81082 5.01471 10.502 4.33414 14.2043C0.910626 15.4572 -0.849027 19.2481 0.40386 22.6716C1.35588 25.2731 3.83105 27.0033 6.60124 27.0039H10.8018V25.8038H6.60124C3.61848 25.8024 1.20166 23.3833 1.20301 20.4006C1.20414 18.0207 2.76291 15.9221 5.04103 15.2334C5.26651 15.1646 5.43078 14.9703 5.46109 14.7365C5.89945 11.4576 8.69393 9.00753 12.0019 9.0016C12.0931 9.0016 12.182 9.0082 12.272 9.0142L12.4004 9.022C12.6346 9.03333 12.8543 8.90881 12.9651 8.70216C15.1157 4.59471 20.189 3.0084 24.2965 5.15908C26.5862 6.35803 28.1961 8.54487 28.6607 11.0875C28.7038 11.3267 28.887 11.5162 29.1245 11.5675C33.01 12.4155 35.4725 16.2528 34.6244 20.1383C33.9038 23.4403 30.9837 25.7968 27.604 25.8038H25.2036V27.0039H27.604C32.2437 27.0012 36.0028 23.2376 36 18.5978C35.9978 14.7938 33.4397 11.466 29.7642 10.4856Z" fill="#D41F7E"/>
<path d="M21.179 25.9796L18.6028 28.5557V15.0024H17.4027V28.5557L14.8265 25.9796L13.978 26.8281L17.5785 30.4286C17.8128 30.6628 18.1927 30.6628 18.427 30.4286L22.0275 26.8281L21.179 25.9796Z" fill="#D41F7E"/>
<path d="M22.8034 31.2045V31.8045H13.2021V31.2045H12.002V32.4046C12.002 32.736 12.2706 33.0047 12.602 33.0047H23.4034C23.7348 33.0047 24.0035 32.736 24.0035 32.4046V31.2045H22.8034Z" fill="#D41F7E"/>
</g>
<defs>
<clipPath id="clip0">
<rect width="36" height="36" fill="white"/>
</clipPath>
</defs>
</svg>
