<svg width="37" height="37" viewBox="0 0 37 37" fill="none" xmlns="http://www.w3.org/2000/svg">
<g clip-path="url(#clip0)">
<path d="M36.7419 13.2917L32.6082 2.54412C31.8249 0.512388 29.5428 -0.499629 27.5111 0.283679C27.4816 0.295076 27.4522 0.306781 27.4229 0.318871L6.76547 8.88198C4.7985 9.68885 3.83176 11.9153 4.58527 13.9034L5.15327 15.4195H3.85032C1.72487 15.4219 0.0023872 17.1444 0 19.2698V33.131C0.0023872 35.2564 1.72487 36.9789 3.85032 36.9813H30.0325C32.1579 36.9789 33.8804 35.2564 33.8828 33.131V19.2698C33.8816 19.0608 33.863 18.8523 33.8274 18.6464L34.5426 18.3568C36.5271 17.5434 37.5025 15.2971 36.7419 13.2917ZM3.85032 16.6517H30.0325C31.4152 16.6556 32.5558 17.7355 32.6353 19.1159H1.2475C1.32697 17.7354 2.46759 16.6555 3.85032 16.6517ZM10.0422 12.9406L14.1599 10.8811L15.0064 12.9985L10.8887 15.0573L10.0422 12.9406ZM32.6507 33.131C32.649 34.5764 31.4778 35.7476 30.0325 35.7492H3.85032C2.40499 35.7476 1.2338 34.5764 1.2321 33.131V25.2764H32.6507V33.131ZM32.6507 24.0443H1.2321V20.348H32.6507V24.0443ZM34.0806 17.2184L33.4368 17.479C32.7718 16.2143 31.4614 15.4216 30.0325 15.4196H12.9198L16.0648 13.8468C16.3515 13.7036 16.4807 13.3645 16.3617 13.0669L15.0551 9.80182C14.9287 9.48594 14.5702 9.33223 14.2543 9.45852C14.2384 9.46491 14.2228 9.47192 14.2074 9.47962L8.98395 12.0929C8.69741 12.2363 8.56858 12.5754 8.68763 12.8728L9.70658 15.4196H6.46854L5.73913 13.4741C5.22203 12.1082 5.88621 10.5788 7.23737 10.0242L27.8942 1.46111C29.2751 0.888487 30.8588 1.54373 31.4315 2.92469C31.4405 2.94617 31.4491 2.96781 31.4574 2.98953L35.5911 13.7371C36.1141 15.1152 35.4442 16.659 34.0806 17.2184Z" fill="#D41F7E"/>
<path d="M22.1604 34.017C23.3084 34.6839 24.7261 34.6839 25.8741 34.017C27.6392 35.0425 29.9015 34.4428 30.927 32.6777C31.9525 30.9125 31.3528 28.6502 29.5877 27.6247C29.0212 27.2956 28.3774 27.123 27.7222 27.1245C27.0727 27.1248 26.435 27.2974 25.8741 27.6247C24.1089 26.5993 21.8466 27.1988 20.8211 28.964C19.7956 30.7292 20.3953 32.9914 22.1604 34.017ZM26.9041 28.507C27.1662 28.4104 27.4429 28.3596 27.7222 28.3567C29.0831 28.3567 30.1864 29.46 30.1864 30.8209C30.1864 32.1818 29.0831 33.2851 27.7222 33.2851C27.4429 33.2822 27.1662 33.2314 26.9041 33.1348C27.9948 31.7849 27.9948 29.8568 26.9041 28.507ZM25.8741 29.2081C26.6955 30.1265 26.6955 31.5153 25.8741 32.4337C25.0526 31.5153 25.0526 30.1264 25.8741 29.2081ZM24.0259 28.3567C24.3052 28.3595 24.582 28.4104 24.844 28.507C23.7533 29.8568 23.7533 31.785 24.844 33.1348C24.582 33.2314 24.3052 33.2822 24.0259 33.2851C22.665 33.2851 21.5617 32.1818 21.5617 30.8209C21.5617 29.4599 22.665 28.3567 24.0259 28.3567Z" fill="#D41F7E"/>
<path d="M25.9863 12.7325L26.4868 13.8584L32.364 11.2459L31.8635 10.12L25.9863 12.7325Z" fill="#D41F7E"/>
<path d="M30.552 7.51181L22.063 11.4301L22.5791 12.5482L31.0682 8.63L30.552 7.51181Z" fill="#D41F7E"/>
</g>
<defs>
<clipPath id="clip0">
<rect width="37" height="37" fill="white"/>
</clipPath>
</defs>
</svg>
