<svg width="47" height="41" viewBox="0 0 47 41" fill="none" xmlns="http://www.w3.org/2000/svg">
<g clip-path="url(#clip0)">
<path d="M37.4936 20.1221C38.0454 20.1221 38.4932 19.6713 38.4932 19.116C38.4932 18.5606 38.0454 18.1099 37.4936 18.1099C36.9418 18.1099 36.494 18.5606 36.494 19.116C36.494 19.6713 36.9418 20.1221 37.4936 20.1221Z" fill="#D41F7E"/>
<path d="M0.510198 22.1345C0.510198 24.3536 2.30382 26.1589 4.50846 26.1589L11.9704 26.1589C10.8152 29.1373 10.3476 32.643 10.4378 35.7637C10.455 36.3592 10.4777 36.7036 10.5084 36.9204C10.56 39.0943 12.3335 40.8481 14.5041 40.8481C16.7088 40.8481 18.5024 39.0428 18.5024 36.8237L18.5024 35.8176C18.5024 29.4544 26.6203 25.8791 32.7466 24.346C33.2098 25.4119 34.2671 26.1589 35.495 26.1589L45.4907 26.1589C46.0426 26.1589 46.4902 25.7084 46.4902 25.1528L46.4902 1.0062C46.4902 0.450626 46.0426 9.15136e-05 45.4907 9.14653e-05L35.495 9.05915e-05C34.2753 9.04849e-05 33.2241 0.737265 32.7561 1.79187C32.2488 1.66087 31.7779 1.53712 31.3432 1.42283C27.8532 0.505354 25.9308 8.97554e-05 21.2552 8.93466e-05L10.5059 8.84069e-05C8.30122 8.82141e-05 6.5076 1.80545 6.5076 4.02453C6.5076 4.85195 6.75719 5.62162 7.1843 6.26191C5.64017 6.80552 4.50846 8.29053 4.50846 10.0612C4.50846 10.8856 4.75196 11.6578 5.17778 12.301C3.64044 12.8455 2.50933 14.3271 2.50933 16.0978C2.50933 16.9253 2.75892 17.6949 3.18604 18.3352C1.64191 18.8788 0.510198 20.3638 0.510198 22.1345ZM34.4954 3.01842C34.4954 2.46365 34.9439 2.01231 35.495 2.01231L44.4911 2.01231L44.4911 24.1467L35.495 24.1467C34.9438 24.1467 34.4954 23.6954 34.4954 23.1406L34.4954 3.01842ZM4.50846 20.1223C6.65243 20.1223 7.16351 20.1223 9.50629 20.1223C10.0583 20.1223 10.5059 19.6717 10.5059 19.1162C10.5059 18.5606 10.0583 18.1101 9.50629 18.1101L6.5076 18.1101C5.40528 18.1101 4.50846 17.2074 4.50846 16.0978C4.50846 14.9865 5.40348 14.0856 6.5076 14.0856L11.5054 14.0856C12.0574 14.0856 12.505 13.6351 12.505 13.0795C12.505 12.5239 12.0574 12.0734 11.5054 12.0734L8.50673 12.0734C7.4175 12.0734 6.5076 11.1976 6.5076 10.0612C6.5076 8.94984 7.40261 8.04897 8.50673 8.04897C10.6507 8.04897 11.1618 8.04897 13.5046 8.04897C14.0565 8.04897 14.5041 7.59843 14.5041 7.04286C14.5041 6.48728 14.0565 6.03674 13.5046 6.03674L10.5059 6.03674C9.40354 6.03674 8.50673 5.13406 8.50673 4.02453C8.50673 2.91499 9.40354 2.01231 10.5059 2.01231L21.2552 2.01231C25.674 2.01231 27.3998 2.46596 30.838 3.36975C31.3417 3.50216 31.8942 3.64734 32.4963 3.80187L32.4963 22.3332C25.2627 24.0675 16.5033 28.3008 16.5033 35.8176L16.5033 36.8237C16.5033 37.9332 15.6064 38.8359 14.5041 38.8359C13.4038 38.8359 12.5071 37.9346 12.505 36.8268L12.505 36.8237C12.505 36.3864 11.9628 31.0202 14.1369 26.1589L17.5028 26.1589C18.0548 26.1589 18.5024 25.7084 18.5024 25.1528C18.5024 24.5973 18.0548 24.1467 17.5028 24.1467C16.8048 24.1467 5.64777 24.1467 4.50846 24.1467C3.40614 24.1467 2.50933 23.244 2.50933 22.1345C2.50933 21.0232 3.40434 20.1223 4.50846 20.1223Z" fill="#D41F7E"/>
<path d="M37.4936 16.0977C38.0456 16.0977 38.4932 15.6471 38.4932 15.0915L38.4932 7.04267C38.4932 6.4871 38.0456 6.03656 37.4936 6.03656C36.9416 6.03656 36.494 6.4871 36.494 7.04267L36.494 15.0915C36.494 15.6471 36.9416 16.0977 37.4936 16.0977Z" fill="#D41F7E"/>
</g>
<defs>
<clipPath id="clip0">
<rect width="47" height="41" fill="white" transform="translate(47 41) rotate(-180)"/>
</clipPath>
</defs>
</svg>
