<svg width="54" height="54" viewBox="0 0 54 54" fill="none" xmlns="http://www.w3.org/2000/svg">
<path d="M51.4688 42.1866H49.7812V38.8116H48.0938V42.1866H5.90625V36.7022C5.90661 36.3666 6.04007 36.0449 6.27734 35.8077C6.51462 35.5704 6.83632 35.4369 7.17188 35.4366H14.1565L26.6432 41.2637C26.7549 41.3159 26.8767 41.3429 27 41.3429C27.1233 41.3429 27.2451 41.3159 27.3568 41.2637L39.8435 35.4366H46.8281C47.1637 35.4369 47.4854 35.5704 47.7227 35.8077C47.9599 36.0449 48.0934 36.3666 48.0938 36.7022V37.1241H49.7812V36.7022C49.7804 35.9923 49.5242 35.3064 49.0594 34.7697C48.5947 34.2331 47.9525 33.8815 47.25 33.7791V28.0416C47.5074 27.8124 47.7153 27.5329 47.8609 27.2205C48.0065 26.908 48.0867 26.5691 48.0967 26.2245C48.1067 25.88 48.0461 25.537 47.9188 25.2166C47.7915 24.8963 47.6001 24.6053 47.3564 24.3616C47.1126 24.1178 46.8217 23.9264 46.5013 23.7991C46.181 23.6718 45.838 23.6112 45.4934 23.6212C45.1489 23.6311 44.8099 23.7114 44.4975 23.857C44.185 24.0025 43.9056 24.2104 43.6763 24.4678H32.2612C32.032 24.2103 31.7525 24.0023 31.44 23.8567C31.1276 23.711 30.7886 23.6307 30.444 23.6207C30.0994 23.6107 29.7563 23.6712 29.4359 23.7985C29.1155 23.9258 28.8245 24.1172 28.5807 24.361C28.3369 24.6048 28.1455 24.8958 28.0182 25.2162C27.8909 25.5366 27.8304 25.8797 27.8404 26.2243C27.8504 26.5689 27.9307 26.9079 28.0763 27.2204C28.222 27.5329 28.43 27.8123 28.6875 28.0415V33.7491H25.3125V28.0415C25.57 27.8123 25.778 27.5329 25.9237 27.2204C26.0693 26.9079 26.1496 26.5689 26.1596 26.2243C26.1696 25.8797 26.1091 25.5366 25.9818 25.2162C25.8545 24.8958 25.6631 24.6048 25.4193 24.361C25.1755 24.1172 24.8845 23.9258 24.5641 23.7985C24.2437 23.6712 23.9006 23.6107 23.556 23.6207C23.2114 23.6307 22.8724 23.711 22.56 23.8567C22.2475 24.0023 21.968 24.2103 21.7388 24.4678H10.3237C10.0945 24.2103 9.81503 24.0023 9.50254 23.8567C9.19006 23.711 8.85111 23.6307 8.50648 23.6207C8.16185 23.6107 7.81882 23.6712 7.49841 23.7985C7.178 23.9258 6.88698 24.1172 6.64319 24.361C6.3994 24.6048 6.20798 24.8958 6.08067 25.2162C5.95337 25.5366 5.89286 25.8797 5.90287 26.2243C5.91287 26.5689 5.99317 26.9079 6.13884 27.2204C6.28451 27.5329 6.49248 27.8123 6.75 28.0415V33.779C6.04749 33.8814 5.40524 34.233 4.94052 34.7697C4.47579 35.3064 4.21961 35.9923 4.21875 36.7022V42.1866H2.53125C2.30747 42.1866 2.09286 42.2755 1.93463 42.4337C1.77639 42.5919 1.6875 42.8066 1.6875 43.0303V46.4053C1.6875 46.6291 1.77639 46.8437 1.93463 47.0019C2.09286 47.1602 2.30747 47.2491 2.53125 47.2491H4.54106L5.99537 50.1577C6.06545 50.2978 6.17316 50.4157 6.30645 50.4981C6.43973 50.5804 6.59332 50.6241 6.75 50.6241H10.125C10.2817 50.6241 10.4353 50.5804 10.5686 50.4981C10.7018 50.4157 10.8096 50.2978 10.8796 50.1577L12.3339 47.2491H41.6661L43.1204 50.1577C43.1904 50.2978 43.2982 50.4157 43.4314 50.4981C43.5647 50.5804 43.7183 50.6241 43.875 50.6241H47.25C47.4067 50.6241 47.5603 50.5804 47.6936 50.4981C47.8268 50.4157 47.9346 50.2978 48.0046 50.1577L49.4589 47.2491H51.4688C51.6925 47.2491 51.9071 47.1602 52.0654 47.0019C52.2236 46.8437 52.3125 46.6291 52.3125 46.4053V43.0303C52.3125 42.8066 52.2236 42.5919 52.0654 42.4337C51.9071 42.2755 51.6925 42.1866 51.4688 42.1866ZM19.4062 33.7491H12.6562V29.7413C12.6562 29.6853 12.6785 29.6317 12.718 29.5921C12.7576 29.5526 12.8112 29.5303 12.8672 29.5303H19.1953C19.2513 29.5303 19.3049 29.5526 19.3445 29.5921C19.384 29.6317 19.4062 29.6853 19.4062 29.7413V33.7491ZM27 39.568L18.1471 35.4366H35.8529L27 39.568ZM34.5938 33.7491V29.7413C34.5938 29.6853 34.616 29.6317 34.6555 29.5921C34.6951 29.5526 34.7487 29.5303 34.8047 29.5303H41.1328C41.1888 29.5303 41.2424 29.5526 41.282 29.5921C41.3215 29.6317 41.3438 29.6853 41.3438 29.7413V33.7491H34.5938ZM29.9538 26.8868C29.8417 26.822 29.7461 26.7324 29.6742 26.6248C29.6023 26.5172 29.5562 26.3945 29.5393 26.2662C29.5224 26.1379 29.5353 26.0074 29.5769 25.8849C29.6185 25.7624 29.6877 25.651 29.7792 25.5595C29.8707 25.468 29.982 25.3988 30.1046 25.3572C30.2271 25.3156 30.3576 25.3027 30.4859 25.3196C30.6141 25.3365 30.7368 25.3826 30.8444 25.4545C30.9521 25.5264 31.0417 25.622 31.1064 25.7341C31.1805 25.8622 31.287 25.9685 31.4152 26.0425C31.5434 26.1164 31.6887 26.1553 31.8367 26.1553H44.1008C44.2488 26.1553 44.3941 26.1164 44.5223 26.0425C44.6505 25.9685 44.757 25.8622 44.8311 25.7341C44.8958 25.622 44.9854 25.5264 45.0931 25.4545C45.2007 25.3826 45.3234 25.3365 45.4516 25.3196C45.5799 25.3027 45.7104 25.3156 45.8329 25.3572C45.9555 25.3988 46.0668 25.468 46.1583 25.5595C46.2498 25.651 46.319 25.7624 46.3606 25.8849C46.4022 26.0074 46.4151 26.1379 46.3982 26.2662C46.3813 26.3945 46.3352 26.5172 46.2633 26.6248C46.1914 26.7324 46.0958 26.822 45.9837 26.8868C45.8557 26.9609 45.7493 27.0673 45.6754 27.1955C45.6014 27.3237 45.5625 27.469 45.5625 27.617V33.7491H43.0312V29.7413C43.0307 29.2379 42.8305 28.7554 42.4746 28.3995C42.1187 28.0436 41.6361 27.8434 41.1328 27.8428H34.8047C34.3014 27.8434 33.8188 28.0436 33.4629 28.3995C33.107 28.7554 32.9068 29.2379 32.9062 29.7413V33.7491H30.375V27.617C30.375 27.469 30.3361 27.3237 30.2621 27.1955C30.1882 27.0673 30.0818 26.9609 29.9538 26.8868ZM8.4375 25.3116C8.58571 25.3119 8.73124 25.3511 8.85957 25.4253C8.98791 25.4994 9.09457 25.6059 9.16893 25.7341C9.24302 25.8622 9.3495 25.9685 9.47768 26.0425C9.60585 26.1164 9.75122 26.1553 9.89919 26.1553H22.1633C22.3113 26.1553 22.4566 26.1164 22.5848 26.0425C22.713 25.9685 22.8195 25.8622 22.8936 25.7341C22.9583 25.622 23.0479 25.5264 23.1555 25.4545C23.2632 25.3826 23.3859 25.3365 23.5142 25.3196C23.6424 25.3027 23.7729 25.3156 23.8954 25.3572C24.018 25.3988 24.1293 25.468 24.2208 25.5595C24.3123 25.651 24.3815 25.7624 24.4231 25.8849C24.4647 26.0074 24.4776 26.1379 24.4607 26.2662C24.4438 26.3945 24.3977 26.5172 24.3258 26.6248C24.2539 26.7324 24.1583 26.822 24.0462 26.8868C23.9182 26.9609 23.8118 27.0673 23.7379 27.1955C23.6639 27.3237 23.625 27.469 23.625 27.617V33.7491H21.0938V29.7413C21.0932 29.2379 20.893 28.7554 20.5371 28.3995C20.1812 28.0436 19.6986 27.8434 19.1953 27.8428H12.8672C12.3639 27.8434 11.8813 28.0436 11.5254 28.3995C11.1695 28.7554 10.9693 29.2379 10.9688 29.7413V33.7491H8.4375V27.617C8.43749 27.469 8.39856 27.3237 8.32462 27.1955C8.25069 27.0673 8.14434 26.9609 8.01626 26.8868C7.85509 26.7941 7.72905 26.6508 7.65772 26.4791C7.58638 26.3074 7.57375 26.117 7.62178 25.9373C7.66981 25.7577 7.77582 25.599 7.92333 25.4859C8.07083 25.3727 8.25159 25.3114 8.4375 25.3116ZM9.60356 48.9366H7.27144L6.42769 47.2491H10.4473L9.60356 48.9366ZM46.7286 48.9366H44.3964L43.5527 47.2491H47.5723L46.7286 48.9366ZM50.625 45.5616H3.375V43.8741H50.625V45.5616Z" fill="#D41F7E"/>
<path d="M17.7188 30.375H14.3438V32.0625H17.7188V30.375Z" fill="#D41F7E"/>
<path d="M39.6562 30.375H36.2812V32.0625H39.6562V30.375Z" fill="#D41F7E"/>
<path d="M51.4688 3.375H2.53125C2.30747 3.375 2.09286 3.4639 1.93463 3.62213C1.77639 3.78036 1.6875 3.99497 1.6875 4.21875V8.4375H3.375V5.0625H16.875V11.8125H7.59375C7.36997 11.8125 7.15536 11.9014 6.99713 12.0596C6.83889 12.2179 6.75 12.4325 6.75 12.6562V18.5625H3.375V10.125H1.6875V19.4062C1.6875 19.63 1.77639 19.8446 1.93463 20.0029C2.09286 20.1611 2.30747 20.25 2.53125 20.25H51.4688C51.6925 20.25 51.9071 20.1611 52.0654 20.0029C52.2236 19.8446 52.3125 19.63 52.3125 19.4062V4.21875C52.3125 3.99497 52.2236 3.78036 52.0654 3.62213C51.9071 3.4639 51.6925 3.375 51.4688 3.375ZM8.4375 13.5H17.7188C17.9425 13.5 18.1571 13.4111 18.3154 13.2529C18.4736 13.0946 18.5625 12.88 18.5625 12.6562V5.0625H35.4375V12.6562C35.4375 12.88 35.5264 13.0946 35.6846 13.2529C35.8429 13.4111 36.0575 13.5 36.2812 13.5H45.5625V18.5625H8.4375V13.5ZM50.625 18.5625H47.25V12.6562C47.25 12.4325 47.1611 12.2179 47.0029 12.0596C46.8446 11.9014 46.63 11.8125 46.4062 11.8125H37.125V5.0625H50.625V18.5625Z" fill="#D41F7E"/>
<path d="M6.75 6.75H5.0625V8.4375H6.75V6.75Z" fill="#D41F7E"/>
<path d="M48.9375 6.75H47.25V8.4375H48.9375V6.75Z" fill="#D41F7E"/>
<path d="M27 6.75C25.9987 6.75 25.0199 7.04691 24.1874 7.60318C23.3549 8.15946 22.706 8.95011 22.3229 9.87516C21.9397 10.8002 21.8394 11.8181 22.0348 12.8001C22.2301 13.7822 22.7123 14.6842 23.4203 15.3922C24.1283 16.1002 25.0303 16.5824 26.0123 16.7777C26.9944 16.973 28.0123 16.8728 28.9373 16.4896C29.8624 16.1065 30.653 15.4576 31.2093 14.6251C31.7656 13.7925 32.0625 12.8138 32.0625 11.8125C32.0609 10.4703 31.5271 9.18353 30.578 8.23446C29.6289 7.2854 28.3422 6.75154 27 6.75ZM27 15.1875C26.3325 15.1875 25.68 14.9895 25.1249 14.6187C24.5699 14.2478 24.1374 13.7207 23.8819 13.104C23.6265 12.4873 23.5596 11.8087 23.6898 11.1541C23.8201 10.4994 24.1415 9.89801 24.6135 9.42601C25.0855 8.95401 25.6869 8.63257 26.3416 8.50235C26.9962 8.37212 27.6748 8.43896 28.2915 8.6944C28.9082 8.94985 29.4353 9.38243 29.8062 9.93744C30.177 10.4925 30.375 11.145 30.375 11.8125C30.374 12.7073 30.0181 13.5651 29.3854 14.1979C28.7526 14.8306 27.8948 15.1865 27 15.1875Z" fill="#D41F7E"/>
</svg>
