<svg width="50" height="50" viewBox="0 0 50 50" fill="none" xmlns="http://www.w3.org/2000/svg">
<g clip-path="url(#clip0)">
<path d="M47.5003 15.8335H24.167C22.7868 15.8351 21.6686 16.9533 21.667 18.3335V47.5002C21.6686 48.8804 22.7868 49.9985 24.167 50.0002H47.5003C48.8805 49.9985 49.9987 48.8804 50.0003 47.5002V18.3335C49.9987 16.9533 48.8805 15.8351 47.5003 15.8335ZM48.3337 47.5002C48.3333 47.9604 47.9605 48.3331 47.5003 48.3335H24.167C23.7068 48.3331 23.3341 47.9604 23.3337 47.5002V18.3335C23.3341 17.8733 23.7068 17.5006 24.167 17.5002H47.5003C47.9605 17.5006 48.3333 17.8733 48.3337 18.3335V47.5002Z" fill="#D41F7E"/>
<path d="M44.1667 19.1665H27.5C26.1198 19.1681 25.0016 20.2863 25 21.6665V24.1665C25.0016 25.5467 26.1198 26.6649 27.5 26.6665H44.1667C45.5469 26.6649 46.665 25.5467 46.6667 24.1665V21.6665C46.665 20.2863 45.5469 19.1681 44.1667 19.1665ZM45 24.1665C44.9996 24.6267 44.6269 24.9994 44.1667 24.9998H27.5C27.0398 24.9994 26.6671 24.6267 26.6667 24.1665V21.6665C26.6671 21.2063 27.0398 20.8336 27.5 20.8332H44.1667C44.6269 20.8336 44.9996 21.2063 45 21.6665V24.1665Z" fill="#D41F7E"/>
<path d="M30.0003 28.3335H28.3337C27.4137 28.3347 26.6682 29.0802 26.667 30.0002V31.6668C26.6682 32.5868 27.4137 33.3323 28.3337 33.3335H30.0003C30.9203 33.3323 31.6658 32.5868 31.667 31.6668V30.0002C31.6658 29.0802 30.9203 28.3347 30.0003 28.3335ZM28.3337 31.6668V30.0002H30.0003L30.0011 31.6668H28.3337Z" fill="#D41F7E"/>
<path d="M36.6663 28.3335H34.9997C34.0797 28.3347 33.3342 29.0802 33.333 30.0002V31.6668C33.3342 32.5868 34.0797 33.3323 34.9997 33.3335H36.6663C37.5863 33.3323 38.3318 32.5868 38.333 31.6668V30.0002C38.3318 29.0802 37.5863 28.3347 36.6663 28.3335ZM34.9997 31.6668V30.0002H36.6663L36.6672 31.6668H34.9997Z" fill="#D41F7E"/>
<path d="M43.3333 28.3335H41.6667C40.7467 28.3347 40.0012 29.0802 40 30.0002V31.6668C40.0012 32.5868 40.7467 33.3323 41.6667 33.3335H43.3333C44.2533 33.3323 44.9988 32.5868 45 31.6668V30.0002C44.9988 29.0802 44.2533 28.3347 43.3333 28.3335ZM41.6667 31.6668V30.0002H43.3333L43.3341 31.6668H41.6667Z" fill="#D41F7E"/>
<path d="M30.0003 35H28.3337C27.4137 35.0012 26.6682 35.7467 26.667 36.6667V38.3333C26.6682 39.2533 27.4137 39.9988 28.3337 40H30.0003C30.9203 39.9988 31.6658 39.2533 31.667 38.3333V36.6667C31.6658 35.7467 30.9203 35.0012 30.0003 35ZM28.3337 38.3333V36.6667H30.0003L30.0011 38.3333H28.3337Z" fill="#D41F7E"/>
<path d="M36.6663 35H34.9997C34.0797 35.0012 33.3342 35.7467 33.333 36.6667V38.3333C33.3342 39.2533 34.0797 39.9988 34.9997 40H36.6663C37.5863 39.9988 38.3318 39.2533 38.333 38.3333V36.6667C38.3318 35.7467 37.5863 35.0012 36.6663 35ZM34.9997 38.3333V36.6667H36.6663L36.6672 38.3333H34.9997Z" fill="#D41F7E"/>
<path d="M43.3333 35H41.6667C40.7467 35.0012 40.0012 35.7467 40 36.6667V38.3333C40.0012 39.2533 40.7467 39.9988 41.6667 40H43.3333C44.2533 39.9988 44.9988 39.2533 45 38.3333V36.6667C44.9988 35.7467 44.2533 35.0012 43.3333 35ZM41.6667 38.3333V36.6667H43.3333L43.3341 38.3333H41.6667Z" fill="#D41F7E"/>
<path d="M30.0003 41.6665H28.3337C27.4137 41.6677 26.6682 42.4132 26.667 43.3332V44.9998C26.6682 45.9198 27.4137 46.6653 28.3337 46.6665H30.0003C30.9203 46.6653 31.6658 45.9198 31.667 44.9998V43.3332C31.6658 42.4132 30.9203 41.6677 30.0003 41.6665ZM28.3337 44.9998V43.3332H30.0003L30.0011 44.9998H28.3337Z" fill="#D41F7E"/>
<path d="M36.6663 41.6665H34.9997C34.0797 41.6677 33.3342 42.4132 33.333 43.3332V44.9998C33.3342 45.9198 34.0797 46.6653 34.9997 46.6665H36.6663C37.5863 46.6653 38.3318 45.9198 38.333 44.9998V43.3332C38.3318 42.4132 37.5863 41.6677 36.6663 41.6665ZM34.9997 44.9998V43.3332H36.6663L36.6672 44.9998H34.9997Z" fill="#D41F7E"/>
<path d="M43.3333 41.6665H41.6667C40.7467 41.6677 40.0012 42.4132 40 43.3332V44.9998C40.0012 45.9198 40.7467 46.6653 41.6667 46.6665H43.3333C44.2533 46.6653 44.9988 45.9198 45 44.9998V43.3332C44.9988 42.4132 44.2533 41.6677 43.3333 41.6665ZM41.6667 44.9998V43.3332H43.3333L43.3341 44.9998H41.6667Z" fill="#D41F7E"/>
<path d="M1.66667 45.8337V11.6667H9.16667C10.5469 11.665 11.665 10.5469 11.6667 9.16667V1.66667H32.5C32.9602 1.66708 33.3329 2.0398 33.3333 2.50001V14.1671H35V2.50001C34.9984 1.1198 33.8802 0.00163509 32.5 7.49067e-06H11.5234C10.8602 -0.00162011 10.2234 0.262052 9.75587 0.732429L0.732429 9.75587C0.262052 10.2238 -0.00162011 10.8602 7.49067e-06 11.5239V45.8337C0.00163509 47.214 1.1198 48.3321 2.50001 48.3337L20 48.3333V46.6667L2.50001 46.6671C2.0398 46.6667 1.66708 46.294 1.66667 45.8337ZM10 2.84506V9.16667C9.9996 9.62688 9.62688 9.9996 9.16667 10H2.84506L10 2.84506Z" fill="#D41F7E"/>
<path d="M18.3333 20.8332C18.3333 17.1511 15.3487 14.1665 11.6667 14.1665C7.98462 14.1665 5 17.1511 5 20.8332C5 24.5152 7.98462 27.4998 11.6667 27.4998C15.3467 27.4958 18.3293 24.5132 18.3333 20.8332ZM10.8333 15.9084V19.1665C10.8329 19.6267 10.4602 19.9994 10 19.9998H6.74194C7.0992 17.9059 8.73942 16.2657 10.8333 15.9084ZM11.6667 25.8332C9.22933 25.8291 7.14966 24.0693 6.74194 21.6665H10C11.3802 21.6649 12.4984 20.5467 12.5 19.1665V15.9084C15.0627 16.3402 16.8665 18.6644 16.6492 21.2543C16.4319 23.8438 14.2655 25.8348 11.6667 25.8332Z" fill="#D41F7E"/>
<path d="M17.917 9.1665C18.6071 9.16569 19.1662 8.60661 19.167 7.9165V5.4165C19.1662 4.7264 18.6071 4.16732 17.917 4.1665H15.417C14.7269 4.16732 14.1678 4.7264 14.167 5.4165V7.9165C14.1678 8.60661 14.7269 9.16569 15.417 9.1665H17.917ZM15.8337 5.83317H17.5003V7.49984H15.8337V5.83317Z" fill="#D41F7E"/>
<path d="M20.833 4.1665H22.4997V5.83317H20.833V4.1665Z" fill="#D41F7E"/>
<path d="M24.167 4.1665H31.667V5.83317H24.167V4.1665Z" fill="#D41F7E"/>
<path d="M20.833 7.5H22.4997V9.16667H20.833V7.5Z" fill="#D41F7E"/>
<path d="M24.167 7.5H31.667V9.16667H24.167V7.5Z" fill="#D41F7E"/>
<path d="M14.167 10.8335H15.8337V12.5002H14.167V10.8335Z" fill="#D41F7E"/>
<path d="M17.5 10.8335H28.3333V12.5002H17.5V10.8335Z" fill="#D41F7E"/>
<path d="M30 10.8335H31.6667V12.5002H30V10.8335Z" fill="#D41F7E"/>
<path d="M18.75 29.1665H16.25C15.5599 29.1673 15.0008 29.7264 15 30.4165V32.9165C15.0008 33.6066 15.5599 34.1657 16.25 34.1665H18.75C19.4401 34.1657 19.9992 33.6066 20 32.9165V30.4165C19.9992 29.7264 19.4401 29.1673 18.75 29.1665ZM18.3333 32.4998H16.6667V30.8332H18.3333V32.4998Z" fill="#D41F7E"/>
<path d="M11.667 29.1665H13.3337V30.8332H11.667V29.1665Z" fill="#D41F7E"/>
<path d="M3.33301 29.1665H9.99967V30.8332H3.33301V29.1665Z" fill="#D41F7E"/>
<path d="M11.667 32.5H13.3337V34.1667H11.667V32.5Z" fill="#D41F7E"/>
<path d="M3.33301 32.5H9.99967V34.1667H3.33301V32.5Z" fill="#D41F7E"/>
<path d="M3.33301 42.9165C3.33382 43.6066 3.8929 44.1657 4.58301 44.1665H7.08301C7.77311 44.1657 8.33219 43.6066 8.33301 42.9165V40.4165C8.33219 39.7264 7.77311 39.1673 7.08301 39.1665H4.58301C3.8929 39.1673 3.33382 39.7264 3.33301 40.4165V42.9165ZM4.99967 40.8332H6.66634V42.4998H4.99967V40.8332Z" fill="#D41F7E"/>
<path d="M10 39.1665H11.6667V40.8332H10V39.1665Z" fill="#D41F7E"/>
<path d="M13.333 39.1665H19.9997V40.8332H13.333V39.1665Z" fill="#D41F7E"/>
<path d="M10 42.5H11.6667V44.1667H10V42.5Z" fill="#D41F7E"/>
<path d="M13.333 42.5H19.9997V44.1667H13.333V42.5Z" fill="#D41F7E"/>
<path d="M18.333 35.8335H19.9997V37.5002H18.333V35.8335Z" fill="#D41F7E"/>
<path d="M6.66699 35.8335H16.667V37.5002H6.66699V35.8335Z" fill="#D41F7E"/>
<path d="M3.33301 35.8335H4.99967V37.5002H3.33301V35.8335Z" fill="#D41F7E"/>
</g>
<defs>
<clipPath id="clip0">
<rect width="50" height="50" fill="white"/>
</clipPath>
</defs>
</svg>
