<svg width="23" height="16" viewBox="0 0 23 16" fill="none" xmlns="http://www.w3.org/2000/svg">
<path d="M15.2461 8.02392L23 12.9258V2.91504L15.2461 8.02392Z" fill="#D4D4D4"/>
<path d="M0 2.91504V12.9258L7.75389 8.02392L0 2.91504Z" fill="#D4D4D4"/>
<path d="M21.5624 0H1.43735C0.720033 0 0.150781 0.534751 0.0429688 1.22331L11.4999 8.77164L22.9568 1.22331C22.849 0.534751 22.2797 0 21.5624 0Z" fill="#D4D4D4"/>
<path d="M13.9293 8.89206L11.8952 10.2318C11.7745 10.3109 11.6379 10.3497 11.4999 10.3497C11.3619 10.3497 11.2254 10.3109 11.1046 10.2318L9.07054 8.89062L0.0458984 14.5989C0.156586 15.2818 0.722962 15.8122 1.4374 15.8122H21.5624C22.2769 15.8122 22.8433 15.2818 22.9539 14.5989L13.9293 8.89206Z" fill="#D4D4D4"/>
</svg>
