<svg width="21" height="15" viewBox="0 0 21 15" fill="none" xmlns="http://www.w3.org/2000/svg">
<path d="M13.9199 7.32638L20.9996 11.802V2.66174L13.9199 7.32638Z" fill="#6A6A6A"/>
<path d="M0 2.66174V11.802L7.07964 7.32638L0 2.66174Z" fill="#6A6A6A"/>
<path d="M19.6872 0H1.31219C0.657251 0 0.1375 0.488251 0.0390625 1.11694L10.4997 8.00889L20.9604 1.11694C20.8619 0.488251 20.3422 0 19.6872 0Z" fill="#6A6A6A"/>
<path d="M12.7181 8.11911L10.861 9.34236C10.7507 9.41455 10.626 9.44998 10.5 9.44998C10.374 9.44998 10.2493 9.41455 10.1391 9.34236L8.28188 8.1178L0.0419922 13.3297C0.143055 13.9532 0.660181 14.4375 1.31249 14.4375H19.6875C20.3398 14.4375 20.857 13.9532 20.958 13.3297L12.7181 8.11911Z" fill="#6A6A6A"/>
</svg>
