<svg width="58" height="58" viewBox="0 0 58 58" fill="none" xmlns="http://www.w3.org/2000/svg">
<path d="M39.9591 33.0188H10.057L35.9509 16.5552C36.0262 16.5073 36.0914 16.445 36.1426 16.3719C36.1939 16.2989 36.2303 16.2164 36.2497 16.1292C36.2691 16.0421 36.2711 15.952 36.2557 15.864C36.2403 15.7761 36.2077 15.6921 36.1597 15.6168L33.5943 11.5819C33.0092 10.6639 32.0839 10.0155 31.0213 9.77891C29.9588 9.54233 28.8457 9.7369 27.9265 10.3199L24.2828 12.6367L24.5714 11.2557C24.6852 10.7564 24.6992 10.2395 24.6126 9.73478C24.526 9.23006 24.3406 8.74742 24.0669 8.31459C23.7932 7.88176 23.4367 7.50728 23.0178 7.21266C22.599 6.91803 22.126 6.70907 21.6262 6.59778C21.1263 6.4865 20.6094 6.47507 20.1051 6.56417C19.6008 6.65327 19.1191 6.84113 18.6877 7.11696C18.2562 7.3928 17.8835 7.75117 17.591 8.17148C17.2984 8.5918 17.0918 9.06577 16.983 9.56617L15.0901 18.0684L8.75191 16.6576C7.80669 16.4469 6.81688 16.5967 5.97627 17.0775C5.13565 17.5583 4.50478 18.3356 4.20717 19.2571C3.90956 20.1787 3.96665 21.1781 4.36725 22.0598C4.76785 22.9414 5.48311 23.6418 6.373 24.0238L2.46956 26.5058C1.5516 27.0909 0.903206 28.0162 0.666625 29.0787C0.430044 30.1412 0.624599 31.2542 1.20761 32.1735L3.77309 36.2085C3.82097 36.2838 3.88322 36.349 3.95629 36.4002C4.02936 36.4515 4.11182 36.4879 4.19895 36.5073C4.28608 36.5267 4.37618 36.5288 4.46411 36.5134C4.55203 36.4979 4.63606 36.4654 4.71139 36.4175L7.09936 34.8995V52.1056C7.10059 53.1941 7.53359 54.2378 8.30335 55.0075C9.07312 55.7772 10.1168 56.2101 11.2054 56.2113H36.5332C37.6218 56.2101 38.6654 55.7771 39.4351 55.0074C40.2048 54.2377 40.6378 53.1941 40.639 52.1056V33.6985C40.639 33.6092 40.6214 33.5208 40.5872 33.4383C40.5531 33.3558 40.503 33.2809 40.4398 33.2178C40.3767 33.1547 40.3017 33.1046 40.2193 33.0705C40.1368 33.0363 40.0484 33.0188 39.9591 33.0188ZM28.6559 11.4673C29.0943 11.1869 29.6037 11.0378 30.1241 11.0375C30.3267 11.0376 30.5286 11.0599 30.7263 11.104C31.0787 11.1815 31.4122 11.3281 31.7076 11.5353C32.003 11.7426 32.2543 12.0063 32.4471 12.3113L34.6479 15.7726L23.9428 22.5792L20.2684 16.8003L28.6559 11.4673ZM18.3099 9.86172C18.4567 9.20759 18.8574 8.63858 19.4238 8.27987C19.9902 7.92116 20.6758 7.80213 21.33 7.94897C21.9841 8.09581 22.5531 8.49649 22.9118 9.06287C23.2705 9.62924 23.3896 10.3149 23.2427 10.969L22.6847 13.6384L16.6052 17.5182L18.3099 9.86172ZM19.121 17.5297L22.7954 23.3087L16.5921 27.2527L12.9178 21.4737L19.121 17.5297ZM5.77409 21.8081C5.50582 21.3863 5.36868 20.8943 5.38002 20.3945C5.39136 19.8946 5.55066 19.4094 5.83778 19.0001C6.12491 18.5908 6.52695 18.2759 6.99307 18.0951C7.4592 17.9143 7.96847 17.8758 8.45647 17.9844L13.9489 19.2072L7.85189 23.0292L7.35776 22.9191C7.03345 22.8478 6.72649 22.7129 6.45465 22.5222C6.18282 22.3315 5.9515 22.0888 5.77409 21.8081ZM4.55575 34.9056L2.35503 31.4442C1.96505 30.8293 1.83489 30.0848 1.9931 29.3741C2.15132 28.6634 2.58499 28.0444 3.19898 27.653L11.7706 22.2032L15.4449 27.9821L4.55575 34.9056ZM17.7364 54.8519H11.2054C10.4772 54.8511 9.77916 54.5615 9.26429 54.0466C8.74942 53.5318 8.4598 52.8337 8.45896 52.1056V34.3782H17.7367L17.7364 54.8519ZM26.3756 54.8519H19.0957V34.3782H26.3756V54.8519ZM39.2794 52.1056C39.2786 52.8336 38.989 53.5317 38.4741 54.0465C37.9593 54.5614 37.2613 54.851 36.5332 54.8519H27.735V34.3782H39.2794V52.1056Z" fill="#D41F7E"/>
<path d="M47.5584 26.8442L47.8835 24.9484C47.9049 24.8234 47.891 24.695 47.8432 24.5776C47.7954 24.4601 47.7157 24.3584 47.6132 24.2839C47.5106 24.2093 47.3893 24.165 47.2628 24.1558C47.1364 24.1466 47.0099 24.173 46.8977 24.2319L45.1953 25.1268L43.4928 24.2319C43.3805 24.1729 43.254 24.1464 43.1275 24.1556C43.001 24.1647 42.8795 24.2091 42.7769 24.2836C42.6743 24.3582 42.5946 24.4599 42.5468 24.5774C42.499 24.6949 42.4851 24.8234 42.5065 24.9484L42.8316 26.8442L41.4544 28.1866C41.3635 28.2751 41.2993 28.3872 41.2689 28.5104C41.2384 28.6335 41.2431 28.7627 41.2823 28.8834C41.3215 29.004 41.3936 29.1113 41.4906 29.193C41.5876 29.2748 41.7055 29.3278 41.831 29.346L43.7342 29.6226L44.5854 31.3473C44.6415 31.4611 44.7283 31.5569 44.836 31.6239C44.9437 31.6908 45.0681 31.7263 45.1949 31.7263C45.3218 31.7263 45.4461 31.6908 45.5538 31.6239C45.6615 31.5569 45.7484 31.4611 45.8045 31.3473L46.6556 29.6226L48.5587 29.346C48.6842 29.3278 48.8021 29.2748 48.8991 29.193C48.9961 29.1113 49.0683 29.004 49.1074 28.8834C49.1466 28.7627 49.1513 28.6335 49.1209 28.5104C49.0905 28.3872 49.0262 28.2751 48.9354 28.1866L47.5584 26.8442ZM46.1065 28.3282C45.9974 28.344 45.8939 28.3861 45.8047 28.4509C45.7155 28.5156 45.6435 28.6011 45.5947 28.6999L45.1949 29.5101L44.795 28.6999C44.7463 28.6011 44.6742 28.5157 44.5851 28.4509C44.4959 28.3861 44.3924 28.344 44.2833 28.3282L43.3891 28.1982L44.0362 27.5676C44.1151 27.4907 44.1741 27.3957 44.2082 27.2909C44.2423 27.1861 44.2503 27.0746 44.2317 26.9659L44.0789 26.0753L44.8786 26.4957C44.9762 26.5471 45.0847 26.5739 45.1949 26.5739C45.3051 26.5739 45.4137 26.5471 45.5112 26.4957L46.3109 26.0753L46.1582 26.9659C46.1395 27.0746 46.1476 27.1861 46.1816 27.2909C46.2156 27.3957 46.2747 27.4907 46.3536 27.5676L47.0006 28.1982L46.1065 28.3282Z" fill="#D41F7E"/>
<path d="M55.3764 17.4794L53.5073 17.0251L52.8218 15.2282C52.7766 15.1096 52.6992 15.0061 52.5983 14.9293C52.4973 14.8525 52.3769 14.8055 52.2506 14.7935C52.1243 14.7816 51.9972 14.8053 51.8837 14.8618C51.7701 14.9184 51.6747 15.0055 51.6081 15.1135L50.5987 16.7508L48.6778 16.8474C48.5511 16.8538 48.4287 16.8955 48.3245 16.9677C48.2203 17.04 48.1384 17.14 48.0881 17.2564C48.0377 17.3728 48.021 17.5009 48.0396 17.6264C48.0583 17.7518 48.1117 17.8695 48.1938 17.9662L49.4389 19.4321L48.9374 21.2888C48.9043 21.4113 48.9061 21.5405 48.9427 21.662C48.9792 21.7834 49.049 21.8922 49.1441 21.9761C49.2393 22.0599 49.356 22.1155 49.4811 22.1365C49.6061 22.1575 49.7346 22.143 49.8519 22.0948L51.6304 21.3637L53.2421 22.4146C53.3483 22.4839 53.4718 22.5221 53.5986 22.5249C53.7253 22.5276 53.8504 22.4949 53.9595 22.4303C54.0687 22.3657 54.1576 22.2719 54.2162 22.1595C54.2748 22.047 54.3008 21.9204 54.2912 21.7939L54.1456 19.8761L55.6424 18.6689C55.7411 18.5893 55.8155 18.4836 55.8574 18.3639C55.8992 18.2442 55.9067 18.1152 55.879 17.9915C55.8513 17.8677 55.7896 17.7542 55.7008 17.6637C55.612 17.5732 55.4996 17.5094 55.3764 17.4794ZM53.0138 19.0427C52.9281 19.1119 52.8604 19.2008 52.8167 19.302C52.7729 19.4031 52.7544 19.5134 52.7628 19.6232L52.8308 20.5242L52.0739 20.0304C51.9816 19.9702 51.8761 19.9333 51.7664 19.923C51.6567 19.9126 51.5461 19.9291 51.4442 19.971L50.6086 20.3145L50.8443 19.4422C50.873 19.3358 50.8754 19.2241 50.8514 19.1165C50.8273 19.009 50.7775 18.9089 50.7062 18.825L50.1213 18.1363L51.0237 18.091C51.1338 18.0855 51.2408 18.0533 51.3357 17.9972C51.4306 17.9412 51.5104 17.8628 51.5682 17.7691L52.0423 17L52.3643 17.8442C52.4036 17.9471 52.4673 18.0389 52.5499 18.1118C52.6326 18.1846 52.7317 18.2363 52.8388 18.2623L53.7168 18.4757L53.0138 19.0427Z" fill="#D41F7E"/>
<path d="M45.3809 6.43005L44.8791 8.28673C44.846 8.40917 44.8478 8.53843 44.8843 8.6599C44.9209 8.78137 44.9907 8.8902 45.0858 8.97407C45.181 9.05794 45.2977 9.11352 45.4228 9.1345C45.5479 9.15549 45.6763 9.14106 45.7936 9.09284L47.5722 8.36161L49.1831 9.41274C49.2894 9.48204 49.4129 9.52023 49.5396 9.523C49.6664 9.52578 49.7915 9.49302 49.9006 9.42843C50.0098 9.36384 50.0987 9.27001 50.1573 9.15753C50.2159 9.04505 50.2418 8.91842 50.2322 8.79196L50.0867 6.87411L51.5838 5.66676C51.6825 5.58716 51.7569 5.48154 51.7988 5.36183C51.8406 5.24213 51.8481 5.11312 51.8204 4.98939C51.7927 4.86565 51.731 4.75212 51.6422 4.66163C51.5534 4.57114 51.441 4.50729 51.3178 4.47731L49.4487 4.02316L48.7633 2.22607C48.7181 2.10755 48.6407 2.00405 48.5397 1.92727C48.4387 1.85048 48.3183 1.80348 48.192 1.79157C48.0658 1.77967 47.9387 1.80334 47.8251 1.8599C47.7116 1.91647 47.6162 2.00367 47.5496 2.11165L46.5403 3.74879L44.6193 3.84531C44.4926 3.85166 44.3702 3.89333 44.266 3.9656C44.1618 4.03786 44.0799 4.13785 44.0295 4.25424C43.9792 4.37064 43.9624 4.49881 43.981 4.62425C43.9997 4.74969 44.0531 4.8674 44.1352 4.96407L45.3809 6.43005ZM46.9658 5.08834C47.0758 5.08282 47.1829 5.05061 47.2777 4.99451C47.3726 4.9384 47.4524 4.86008 47.5102 4.76629L47.9844 3.99722L48.3063 4.84139C48.3456 4.94435 48.4093 5.03621 48.492 5.10907C48.5747 5.18193 48.6738 5.2336 48.7809 5.25963L49.6588 5.47293L48.9556 6.04002C48.8698 6.10918 48.8021 6.19817 48.7583 6.29931C48.7146 6.40045 48.6961 6.51071 48.7044 6.62059L48.7724 7.52163L48.0155 7.02783C47.9233 6.96763 47.8177 6.93078 47.708 6.92044C47.5983 6.9101 47.4877 6.92658 47.3858 6.96847L46.5503 7.31194L46.7859 6.43968C46.8146 6.33328 46.8171 6.22149 46.793 6.11394C46.769 6.00639 46.7191 5.90629 46.6478 5.82229L46.0629 5.13354L46.9658 5.08834Z" fill="#D41F7E"/>
<path d="M33.049 26.9424C31.5145 27.9081 30.7648 29.0783 30.7336 29.1277C30.6371 29.2799 30.605 29.4643 30.6443 29.6402C30.6837 29.8161 30.7914 29.9692 30.9436 30.0657C31.0958 30.1623 31.2802 30.1944 31.4561 30.155C31.632 30.1156 31.7851 30.008 31.8816 29.8557C31.9836 29.6972 34.4428 25.9798 39.7954 27.3039C39.9698 27.3453 40.1534 27.3162 40.3064 27.223C40.4594 27.1297 40.5694 26.9798 40.6124 26.8059C40.6554 26.632 40.6281 26.4481 40.5362 26.2942C40.4444 26.1404 40.2956 26.029 40.122 25.9844C36.8287 25.1695 34.4579 26.0555 33.049 26.9424Z" fill="#D41F7E"/>
<path d="M45.9475 19.7441C46.114 19.8132 46.3011 19.8133 46.4677 19.7444C46.6343 19.6756 46.7667 19.5433 46.8358 19.3768C46.9049 19.2103 46.905 19.0232 46.8362 18.8566C46.7673 18.69 46.6351 18.5576 46.4686 18.4885C41.6299 16.4803 38.113 17.9841 36.015 19.5995C34.623 20.682 33.4709 22.0416 32.6315 23.5922C32.5918 23.6722 32.5682 23.7592 32.5621 23.8482C32.556 23.9373 32.5676 24.0267 32.596 24.1113C32.6245 24.1959 32.6693 24.274 32.728 24.3413C32.7867 24.4086 32.858 24.4636 32.938 24.5033C33.0179 24.543 33.1049 24.5666 33.1939 24.5727C33.283 24.5787 33.3724 24.5672 33.457 24.5388C33.5416 24.5103 33.6197 24.4655 33.687 24.4068C33.7543 24.3481 33.8093 24.2768 33.849 24.1968C34.598 22.8322 35.6171 21.6345 36.8442 20.6766C39.4823 18.646 42.5451 18.332 45.9475 19.7441Z" fill="#D41F7E"/>
<path d="M38.3093 14.709C38.2539 14.8805 38.2688 15.067 38.3509 15.2275C38.4329 15.388 38.5753 15.5094 38.7468 15.5649C39.6826 15.8406 40.653 15.9808 41.6285 15.9813C42.7652 15.9813 44.078 15.7761 45.2552 15.0783C46.7958 14.1655 47.7836 12.6103 48.193 10.4564C48.21 10.3686 48.2095 10.2783 48.1916 10.1906C48.1736 10.103 48.1385 10.0198 48.0883 9.94572C48.0381 9.87167 47.9738 9.80826 47.899 9.75913C47.8242 9.71 47.7405 9.67611 47.6526 9.65941C47.5647 9.64271 47.4744 9.64352 47.3868 9.66181C47.2992 9.68009 47.2161 9.71549 47.1423 9.76596C47.0684 9.81644 47.0052 9.881 46.9564 9.95594C46.9075 10.0309 46.8739 10.1147 46.8575 10.2027C46.5247 11.9541 45.7544 13.2001 44.568 13.9058C42.3113 15.2486 39.2136 14.2873 39.1645 14.2716C38.9931 14.2164 38.8068 14.2314 38.6464 14.3134C38.4861 14.3954 38.3649 14.5377 38.3093 14.709Z" fill="#D41F7E"/>
<path d="M29.3256 32.2705C29.5677 32.2705 29.8044 32.1988 30.0057 32.0643C30.207 31.9298 30.3639 31.7386 30.4566 31.5149C30.5493 31.2912 30.5735 31.0451 30.5263 30.8076C30.4791 30.5702 30.3625 30.352 30.1913 30.1808C30.0201 30.0096 29.802 29.893 29.5645 29.8458C29.3271 29.7986 29.0809 29.8228 28.8573 29.9154C28.6336 30.0081 28.4424 30.165 28.3079 30.3663C28.1734 30.5676 28.1016 30.8043 28.1016 31.0464C28.102 31.3709 28.231 31.682 28.4605 31.9115C28.6899 32.141 29.0011 32.2701 29.3256 32.2705ZM29.3256 30.9111C29.3524 30.9111 29.3785 30.919 29.4008 30.9339C29.4231 30.9488 29.4405 30.9699 29.4507 30.9946C29.461 31.0194 29.4637 31.0466 29.4585 31.0729C29.4532 31.0991 29.4403 31.1233 29.4214 31.1422C29.4025 31.1612 29.3783 31.1741 29.3521 31.1793C29.3258 31.1845 29.2986 31.1818 29.2738 31.1715C29.2491 31.1613 29.2279 31.1439 29.2131 31.1216C29.1982 31.0994 29.1903 31.0732 29.1903 31.0464C29.1905 31.0106 29.2048 30.9763 29.2301 30.9509C29.2555 30.9256 29.2898 30.9113 29.3256 30.9111Z" fill="#D41F7E"/>
<path d="M38.9556 10.0674C39.1977 10.0674 39.4343 9.99558 39.6356 9.86107C39.837 9.72657 39.9939 9.53539 40.0865 9.31171C40.1792 9.08803 40.2034 8.8419 40.1562 8.60444C40.1089 8.36699 39.9923 8.14887 39.8211 7.97768C39.6499 7.80648 39.4318 7.6899 39.1944 7.64266C38.9569 7.59543 38.7108 7.61967 38.4871 7.71232C38.2634 7.80497 38.0723 7.96187 37.9377 8.16317C37.8032 8.36448 37.7314 8.60115 37.7314 8.84326C37.7318 9.1678 37.8609 9.47895 38.0904 9.70844C38.3199 9.93793 38.631 10.067 38.9556 10.0674ZM38.9556 8.708C38.9823 8.708 39.0085 8.71594 39.0308 8.73082C39.053 8.7457 39.0704 8.76685 39.0806 8.79159C39.0909 8.81634 39.0936 8.84356 39.0883 8.86982C39.0831 8.89608 39.0702 8.92021 39.0512 8.93913C39.0323 8.95806 39.0082 8.97094 38.9819 8.97615C38.9556 8.98137 38.9284 8.97867 38.9037 8.9684C38.8789 8.95814 38.8578 8.94077 38.843 8.9185C38.8281 8.89622 38.8202 8.87004 38.8202 8.84326C38.8204 8.80742 38.8347 8.7731 38.86 8.74777C38.8854 8.72244 38.9197 8.70815 38.9556 8.708Z" fill="#D41F7E"/>
<path d="M56.2095 9.13428C55.9674 9.13428 55.7307 9.20607 55.5294 9.34059C55.3281 9.4751 55.1712 9.66629 55.0785 9.88997C54.9859 10.1137 54.9616 10.3598 55.0089 10.5972C55.0561 10.8347 55.1727 11.0528 55.3439 11.224C55.5151 11.3952 55.7333 11.5118 55.9707 11.559C56.2082 11.6062 56.4543 11.582 56.678 11.4893C56.9017 11.3966 57.0929 11.2397 57.2273 11.0384C57.3618 10.8371 57.4336 10.6004 57.4336 10.3583C57.4332 10.0337 57.3041 9.72261 57.0747 9.49314C56.8452 9.26367 56.534 9.13461 56.2095 9.13428ZM56.2095 10.4937C56.1827 10.4937 56.1565 10.4857 56.1343 10.4708C56.112 10.456 56.0947 10.4348 56.0844 10.4101C56.0742 10.3853 56.0715 10.3581 56.0767 10.3319C56.0819 10.3056 56.0948 10.2815 56.1138 10.2626C56.1327 10.2436 56.1568 10.2307 56.1831 10.2255C56.2093 10.2203 56.2365 10.223 56.2613 10.2332C56.286 10.2435 56.3072 10.2608 56.322 10.2831C56.3369 10.3053 56.3448 10.3315 56.3448 10.3583C56.3447 10.3941 56.3304 10.4285 56.305 10.4538C56.2797 10.4792 56.2453 10.4935 56.2095 10.4937Z" fill="#D41F7E"/>
<path d="M28.8242 25.3779C28.8242 25.1358 28.7524 24.8991 28.6179 24.6978C28.4833 24.4965 28.2921 24.3396 28.0684 24.2469C27.8447 24.1543 27.5985 24.1301 27.361 24.1774C27.1236 24.2247 26.9054 24.3413 26.7343 24.5126C26.5631 24.6838 26.4466 24.902 26.3994 25.1395C26.3523 25.377 26.3766 25.6232 26.4694 25.8468C26.5621 26.0705 26.7191 26.2616 26.9205 26.3961C27.1219 26.5305 27.3586 26.6022 27.6008 26.602C27.9252 26.6015 28.2362 26.4724 28.4656 26.2429C28.6949 26.0134 28.8239 25.7024 28.8242 25.3779ZM27.6008 25.5139C27.574 25.5139 27.5479 25.506 27.5256 25.4911C27.5033 25.4763 27.486 25.4552 27.4757 25.4305C27.4654 25.4058 27.4627 25.3786 27.4678 25.3524C27.473 25.3261 27.4858 25.302 27.5047 25.283C27.5236 25.264 27.5476 25.2511 27.5739 25.2458C27.6001 25.2405 27.6273 25.2431 27.652 25.2533C27.6768 25.2634 27.698 25.2807 27.7129 25.3029C27.7279 25.325 27.7359 25.3512 27.736 25.3779C27.7359 25.4139 27.7215 25.4483 27.6961 25.4736C27.6706 25.499 27.6361 25.5133 27.6002 25.5133L27.6008 25.5139Z" fill="#D41F7E"/>
<path d="M54.1938 26.1465C53.9517 26.1465 53.7151 26.2183 53.5138 26.3528C53.3125 26.4873 53.1556 26.6785 53.0629 26.9022C52.9703 27.1258 52.946 27.372 52.9932 27.6094C53.0405 27.8469 53.1571 28.065 53.3283 28.2362C53.4995 28.4074 53.7176 28.524 53.955 28.5712C54.1925 28.6184 54.4386 28.5942 54.6623 28.5015C54.886 28.4089 55.0771 28.252 55.2117 28.0507C55.3462 27.8494 55.418 27.6127 55.418 27.3706C55.4176 27.0461 55.2885 26.7349 55.059 26.5054C54.8295 26.2759 54.5184 26.1468 54.1938 26.1465ZM54.1938 27.5059C54.1671 27.5058 54.141 27.4979 54.1187 27.483C54.0965 27.4681 54.0792 27.447 54.069 27.4223C54.0587 27.3976 54.0561 27.3704 54.0613 27.3441C54.0665 27.3179 54.0794 27.2938 54.0984 27.2749C54.1173 27.256 54.1414 27.2431 54.1676 27.2379C54.1938 27.2327 54.221 27.2354 54.2457 27.2456C54.2705 27.2559 54.2916 27.2732 54.3064 27.2955C54.3213 27.3177 54.3292 27.3439 54.3292 27.3706C54.329 27.4064 54.3147 27.4408 54.2894 27.4661C54.264 27.4914 54.2297 27.5057 54.1938 27.5059Z" fill="#D41F7E"/>
</svg>
