<svg width="44" height="44" viewBox="0 0 44 44" fill="none" xmlns="http://www.w3.org/2000/svg">
<path d="M33.6875 24.0625C33.8698 24.0625 34.0447 23.9901 34.1736 23.8611C34.3026 23.7322 34.375 23.5573 34.375 23.375V22C34.375 21.8177 34.3026 21.6428 34.1736 21.5139C34.0447 21.3849 33.8698 21.3125 33.6875 21.3125C33.5052 21.3125 33.3303 21.3849 33.2014 21.5139C33.0724 21.6428 33 21.8177 33 22V23.375C33 23.5573 33.0724 23.7322 33.2014 23.8611C33.3303 23.9901 33.5052 24.0625 33.6875 24.0625Z" fill="#D41F7E"/>
<path d="M33.6875 28.1875C33.5052 28.1875 33.3303 28.2599 33.2014 28.3889C33.0724 28.5178 33 28.6927 33 28.875V30.25C33 30.4323 33.0724 30.6072 33.2014 30.7361C33.3303 30.8651 33.5052 30.9375 33.6875 30.9375C33.8698 30.9375 34.0447 30.8651 34.1736 30.7361C34.3026 30.6072 34.375 30.4323 34.375 30.25V28.875C34.375 28.6927 34.3026 28.5178 34.1736 28.3889C34.0447 28.2599 33.8698 28.1875 33.6875 28.1875Z" fill="#D41F7E"/>
<path d="M31.4238 40.361C31.7012 40.494 32.0049 40.5628 32.3125 40.5625H40.5625C41.1093 40.5619 41.6336 40.3444 42.0202 39.9577C42.4069 39.5711 42.6244 39.0468 42.625 38.5V20.625C42.6244 20.0782 42.4069 19.5539 42.0202 19.1673C41.6336 18.7806 41.1093 18.5631 40.5625 18.5625H32.3125C31.7657 18.5631 31.2414 18.7806 30.8548 19.1673C30.4681 19.5539 30.2506 20.0782 30.25 20.625V24.0625H28.875V22.6875C28.875 22.5052 28.8026 22.3303 28.6736 22.2014C28.5447 22.0724 28.3698 22 28.1875 22H24.0625C23.8802 22 23.7053 22.0724 23.5764 22.2014C23.4474 22.3303 23.375 22.5052 23.375 22.6875V24.0625H22V22.6875C22.0001 22.5971 21.9823 22.5075 21.9477 22.424C21.913 22.3405 21.8622 22.2646 21.798 22.2008C21.9311 21.9236 22.0001 21.62 22 21.3125H23.375C23.5573 21.3125 23.7322 21.2401 23.8611 21.1111C23.9901 20.9822 24.0625 20.8073 24.0625 20.625C24.0625 20.4427 23.9901 20.2678 23.8611 20.1389C23.7322 20.0099 23.5573 19.9375 23.375 19.9375H22C22 19.7552 21.9276 19.5803 21.7986 19.4514C21.6697 19.3224 21.4948 19.25 21.3125 19.25H17.1875C17.0052 19.25 16.8303 19.3224 16.7014 19.4514C16.5724 19.5803 16.5 19.7552 16.5 19.9375V21.311C16.4997 21.619 16.5687 21.9232 16.702 22.2008C16.6378 22.2646 16.587 22.3405 16.5523 22.424C16.5177 22.5075 16.4999 22.5971 16.5 22.6875V24.0625H13.0625V22.6875H13.75C13.9323 22.6875 14.1072 22.6151 14.2361 22.4861C14.3651 22.3572 14.4375 22.1823 14.4375 22C14.4375 21.8177 14.3651 21.6428 14.2361 21.5139C14.1072 21.3849 13.9323 21.3125 13.75 21.3125H13.0625V20.625C13.0625 20.078 12.8452 19.5534 12.4584 19.1666C12.0716 18.7798 11.547 18.5625 11 18.5625C10.453 18.5625 9.92839 18.7798 9.54159 19.1666C9.1548 19.5534 8.9375 20.078 8.9375 20.625V22C8.9375 22.1823 9.00993 22.3572 9.13886 22.4861C9.2678 22.6151 9.44266 22.6875 9.625 22.6875C9.80734 22.6875 9.9822 22.6151 10.1111 22.4861C10.2401 22.3572 10.3125 22.1823 10.3125 22V20.625C10.3125 20.4427 10.3849 20.2678 10.5139 20.1389C10.6428 20.0099 10.8177 19.9375 11 19.9375C11.1823 19.9375 11.3572 20.0099 11.4861 20.1389C11.6151 20.2678 11.6875 20.4427 11.6875 20.625V24.0625H6.1875V22.6875C6.1875 22.1405 5.9702 21.6159 5.58341 21.2291C5.19661 20.8423 4.67201 20.625 4.125 20.625C3.57799 20.625 3.05339 20.8423 2.66659 21.2291C2.2798 21.6159 2.0625 22.1405 2.0625 22.6875V24.0625C1.88016 24.0625 1.7053 24.1349 1.57636 24.2639C1.44743 24.3928 1.375 24.5677 1.375 24.75V39.875C1.375 40.0573 1.44743 40.2322 1.57636 40.3611C1.7053 40.4901 1.88016 40.5625 2.0625 40.5625H30.9375C31.0278 40.5626 31.1173 40.5449 31.2008 40.5103C31.2842 40.4757 31.36 40.425 31.4238 40.361ZM40.5625 39.1875H32.3125C32.1302 39.1873 31.9555 39.1148 31.8266 38.9859C31.6977 38.857 31.6252 38.6823 31.625 38.5V26.8125H41.25V38.5C41.2498 38.6823 41.1773 38.857 41.0484 38.9859C40.9195 39.1148 40.7448 39.1873 40.5625 39.1875ZM31.625 20.625C31.6252 20.4427 31.6977 20.268 31.8266 20.1391C31.9555 20.0102 32.1302 19.9377 32.3125 19.9375H40.5625C40.7448 19.9377 40.9195 20.0102 41.0484 20.1391C41.1773 20.268 41.2498 20.4427 41.25 20.625V25.4375H31.625V20.625ZM27.5 25.4375V28.1875H17.875V25.4375H27.5ZM17.875 29.5625H27.5V36.4375H17.875V29.5625ZM24.75 23.375H27.5V24.0625H24.75V23.375ZM17.875 24.0625V23.375H20.625V24.0625H17.875ZM17.875 20.625H20.625V21.311C20.6248 21.4937 20.5521 21.6688 20.423 21.798C20.2938 21.9271 20.1187 21.9998 19.936 22H18.564C18.3813 21.9998 18.2062 21.9271 18.077 21.798C17.9479 21.6688 17.8752 21.4937 17.875 21.311V20.625ZM3.4375 22.6875C3.4375 22.5052 3.50993 22.3303 3.63886 22.2014C3.7678 22.0724 3.94266 22 4.125 22C4.30734 22 4.4822 22.0724 4.61114 22.2014C4.74007 22.3303 4.8125 22.5052 4.8125 22.6875V24.0625H3.4375V22.6875ZM30.25 39.1875H2.75V25.4375H16.5V37.125C16.5 37.3073 16.5724 37.4822 16.7014 37.6111C16.8303 37.7401 17.0052 37.8125 17.1875 37.8125H28.1875C28.3698 37.8125 28.5447 37.7401 28.6736 37.6111C28.8026 37.4822 28.875 37.3073 28.875 37.125V25.4375H30.25V39.1875Z" fill="#D41F7E"/>
<path d="M24.0625 30.9375H21.3125C21.1302 30.9375 20.9553 31.0099 20.8264 31.1389C20.6974 31.2678 20.625 31.4427 20.625 31.625C20.625 31.8073 20.6974 31.9822 20.8264 32.1111C20.9553 32.2401 21.1302 32.3125 21.3125 32.3125H24.0625C24.2448 32.3125 24.4197 32.2401 24.5486 32.1111C24.6776 31.9822 24.75 31.8073 24.75 31.625C24.75 31.4427 24.6776 31.2678 24.5486 31.1389C24.4197 31.0099 24.2448 30.9375 24.0625 30.9375Z" fill="#D41F7E"/>
<path d="M14.4375 32.3125H4.8125C4.63016 32.3125 4.4553 32.3849 4.32636 32.5139C4.19743 32.6428 4.125 32.8177 4.125 33V37.125C4.125 37.3073 4.19743 37.4822 4.32636 37.6111C4.4553 37.7401 4.63016 37.8125 4.8125 37.8125H14.4375C14.6198 37.8125 14.7947 37.7401 14.9236 37.6111C15.0526 37.4822 15.125 37.3073 15.125 37.125V33C15.125 32.8177 15.0526 32.6428 14.9236 32.5139C14.7947 32.3849 14.6198 32.3125 14.4375 32.3125ZM13.75 36.4375H5.5V33.6875H13.75V36.4375Z" fill="#D41F7E"/>
<path d="M14.4375 26.8125H4.8125C4.63016 26.8125 4.4553 26.8849 4.32636 27.0139C4.19743 27.1428 4.125 27.3177 4.125 27.5V30.25C4.125 30.4323 4.19743 30.6072 4.32636 30.7361C4.4553 30.8651 4.63016 30.9375 4.8125 30.9375H14.4375C14.6198 30.9375 14.7947 30.8651 14.9236 30.7361C15.0526 30.6072 15.125 30.4323 15.125 30.25V27.5C15.125 27.3177 15.0526 27.1428 14.9236 27.0139C14.7947 26.8849 14.6198 26.8125 14.4375 26.8125ZM13.75 29.5625H5.5V28.1875H13.75V29.5625Z" fill="#D41F7E"/>
<path d="M27.5 8.9375C27.6823 8.9375 27.8572 8.86507 27.9861 8.73614C28.1151 8.6072 28.1875 8.43234 28.1875 8.25V6.875C28.1875 6.69266 28.1151 6.5178 27.9861 6.38886C27.8572 6.25993 27.6823 6.1875 27.5 6.1875C27.3177 6.1875 27.1428 6.25993 27.0139 6.38886C26.8849 6.5178 26.8125 6.69266 26.8125 6.875V8.25C26.8125 8.43234 26.8849 8.6072 27.0139 8.73614C27.1428 8.86507 27.3177 8.9375 27.5 8.9375Z" fill="#D41F7E"/>
<path d="M35.75 8.9375C35.9323 8.9375 36.1072 8.86507 36.2361 8.73614C36.3651 8.6072 36.4375 8.43234 36.4375 8.25V6.875C36.4375 6.69266 36.3651 6.5178 36.2361 6.38886C36.1072 6.25993 35.9323 6.1875 35.75 6.1875C35.5677 6.1875 35.3928 6.25993 35.2639 6.38886C35.1349 6.5178 35.0625 6.69266 35.0625 6.875V8.25C35.0625 8.43234 35.1349 8.6072 35.2639 8.73614C35.3928 8.86507 35.5677 8.9375 35.75 8.9375Z" fill="#D41F7E"/>
<path d="M2.0625 7.5625H8.25V10.3125H7.5625C7.43483 10.3125 7.30969 10.3481 7.20109 10.4152C7.09248 10.4823 7.00472 10.5783 6.94762 10.6925L4.88512 14.8175C4.8327 14.9223 4.80795 15.0388 4.81322 15.1559C4.81848 15.2729 4.85358 15.3867 4.91519 15.4864C4.97679 15.5861 5.06286 15.6684 5.16521 15.7255C5.26757 15.7825 5.38281 15.8125 5.5 15.8125H12.375C12.4922 15.8125 12.6074 15.7825 12.7098 15.7255C12.8121 15.6684 12.8982 15.5861 12.9598 15.4864C13.0214 15.3867 13.0565 15.2729 13.0618 15.1559C13.067 15.0388 13.0423 14.9223 12.9899 14.8175L10.9274 10.6925C10.8703 10.5783 10.7825 10.4823 10.6739 10.4152C10.5653 10.3481 10.4402 10.3125 10.3125 10.3125H9.625V7.5625H18.5625V10.3125H17.875C17.7473 10.3125 17.6222 10.3481 17.5136 10.4152C17.405 10.4823 17.3172 10.5783 17.2601 10.6925L15.1976 14.8175C15.1452 14.9223 15.1205 15.0388 15.1257 15.1559C15.131 15.2729 15.1661 15.3867 15.2277 15.4864C15.2893 15.5861 15.3754 15.6684 15.4777 15.7255C15.5801 15.7825 15.6953 15.8125 15.8125 15.8125H22.6875C22.8047 15.8125 22.9199 15.7825 23.0223 15.7255C23.1246 15.6684 23.2107 15.5861 23.2723 15.4864C23.3339 15.3867 23.369 15.2729 23.3743 15.1559C23.3795 15.0388 23.3548 14.9223 23.3024 14.8175L21.2399 10.6925C21.1828 10.5783 21.095 10.4823 20.9864 10.4152C20.8778 10.3481 20.7527 10.3125 20.625 10.3125H19.9375V7.5625H24.75V13.0625C24.75 13.2448 24.8224 13.4197 24.9514 13.5486C25.0803 13.6776 25.2552 13.75 25.4375 13.75H41.9375C42.1198 13.75 42.2947 13.6776 42.4236 13.5486C42.5526 13.4197 42.625 13.2448 42.625 13.0625V4.125C42.625 3.94266 42.5526 3.7678 42.4236 3.63886C42.2947 3.50993 42.1198 3.4375 41.9375 3.4375H2.0625C1.88016 3.4375 1.7053 3.50993 1.57636 3.63886C1.44743 3.7678 1.375 3.94266 1.375 4.125V6.875C1.375 7.05734 1.44743 7.2322 1.57636 7.36114C1.7053 7.49007 1.88016 7.5625 2.0625 7.5625ZM11.2626 14.4375H6.61238L7.98738 11.6875H9.88762L11.2626 14.4375ZM21.5751 14.4375H16.9249L18.2999 11.6875H20.2001L21.5751 14.4375ZM26.125 4.8125H32.3125V10.3125H26.125V4.8125ZM41.25 12.375H26.125V11.6875H41.25V12.375ZM41.25 10.3125H33.6875V4.8125H41.25V10.3125ZM2.75 4.8125H24.75V6.1875H2.75V4.8125Z" fill="#D41F7E"/>
<path d="M19.9375 27.5C20.3172 27.5 20.625 27.1922 20.625 26.8125C20.625 26.4328 20.3172 26.125 19.9375 26.125C19.5578 26.125 19.25 26.4328 19.25 26.8125C19.25 27.1922 19.5578 27.5 19.9375 27.5Z" fill="#D41F7E"/>
<path d="M22.6875 27.5C23.0672 27.5 23.375 27.1922 23.375 26.8125C23.375 26.4328 23.0672 26.125 22.6875 26.125C22.3078 26.125 22 26.4328 22 26.8125C22 27.1922 22.3078 27.5 22.6875 27.5Z" fill="#D41F7E"/>
<path d="M25.4375 27.5C25.8172 27.5 26.125 27.1922 26.125 26.8125C26.125 26.4328 25.8172 26.125 25.4375 26.125C25.0578 26.125 24.75 26.4328 24.75 26.8125C24.75 27.1922 25.0578 27.5 25.4375 27.5Z" fill="#D41F7E"/>
</svg>
