<svg width="56" height="56" viewBox="0 0 56 56" fill="none" xmlns="http://www.w3.org/2000/svg">
<path d="M55.1829 41.0217H53.544V12.159C53.544 10.3078 52.0379 8.80176 50.1866 8.80176H5.81316C3.96188 8.80176 2.45579 10.3078 2.45579 12.159V41.0218H0.81703C0.365859 41.0218 0 41.3876 0 41.8388V42.817C0 45.2326 1.96525 47.1979 4.3809 47.1979H40.2546C40.7058 47.1979 41.0717 46.8321 41.0717 46.381C41.0717 45.9297 40.7059 45.5639 40.2546 45.5639H4.3809C2.86617 45.5639 1.63395 44.3316 1.63395 42.817V42.6558H21.1377V44.1098C21.1377 44.5611 21.5034 44.9268 21.9547 44.9268H34.0453C34.4965 44.9268 34.8623 44.5611 34.8623 44.1098V42.6558H54.3661V42.817C54.3661 44.3317 53.1337 45.5639 51.6191 45.5639H46.0281C45.5769 45.5639 45.2111 45.9297 45.2111 46.381C45.2111 46.8322 45.5768 47.1979 46.0281 47.1979H51.6191C54.0348 47.1979 56 45.2325 56 42.817V41.8388C55.9999 41.3875 55.6341 41.0217 55.1829 41.0217ZM33.2283 43.2928H22.7716V42.6557H33.2283V43.2928ZM51.9102 40.9528H4.08985V12.159C4.08985 11.2088 4.86291 10.4357 5.81327 10.4357H50.1867C51.137 10.4357 51.9102 11.2088 51.9102 12.159V40.9528Z" fill="#D41F7E"/>
<path d="M48.1583 11.9888H7.84122C6.50882 11.9888 5.4248 13.0728 5.4248 14.4053V23.0979C5.4248 23.5491 5.79055 23.9149 6.24183 23.9149C6.69311 23.9149 7.05886 23.5491 7.05886 23.0979V14.4053C7.05886 13.9738 7.40985 13.6228 7.84122 13.6228H48.1582C48.5896 13.6228 48.9405 13.9739 48.9405 14.4053V37.8672H7.05886V28.98C7.05886 28.5288 6.69311 28.163 6.24183 28.163C5.79055 28.163 5.4248 28.5288 5.4248 28.98V38.6841C5.4248 39.1354 5.79055 39.5011 6.24183 39.5011H49.7577C50.2089 39.5011 50.5747 39.1354 50.5747 38.6841V14.4052C50.5746 13.0727 49.4906 11.9888 48.1583 11.9888Z" fill="#D41F7E"/>
</svg>
