<svg width="38" height="38" viewBox="0 0 38 38" fill="none" xmlns="http://www.w3.org/2000/svg">
<path d="M25.6797 0C25.2699 0 24.9375 0.332352 24.9375 0.742188V4.15625C24.9375 4.56609 25.2699 4.89844 25.6797 4.89844C26.0895 4.89844 26.4219 4.56609 26.4219 4.15625V0.742188C26.4219 0.332352 26.0895 0 25.6797 0Z" fill="#D41F7E"/>
<path d="M8.60938 23.1562C8.19969 23.1562 7.86719 23.4888 7.86719 23.8984C7.86719 24.3081 8.19969 24.6406 8.60938 24.6406C9.01906 24.6406 9.35156 24.3081 9.35156 23.8984C9.35156 23.4888 9.01906 23.1562 8.60938 23.1562Z" fill="#D41F7E"/>
<path d="M36.0703 21.6719C36.0703 20.0349 34.7385 18.7031 33.1016 18.7031H27.561C28.4187 16.506 28.7659 13.9199 28.699 11.6179C28.6862 11.1786 28.6694 10.9246 28.6466 10.7646C28.6082 9.16097 27.2914 7.86719 25.6797 7.86719C24.0427 7.86719 22.7109 9.19897 22.7109 10.8359V11.5781C22.7109 16.2722 16.6833 18.9095 12.1345 20.0405C11.7905 19.2542 11.0055 18.7031 10.0938 18.7031H2.67188C2.26204 18.7031 1.92969 19.0355 1.92969 19.4453V37.2578C1.92969 37.6676 2.26204 38 2.67188 38H10.0938C10.9994 38 11.7799 37.4562 12.1274 36.6782C12.5041 36.7749 12.8537 36.8662 13.1765 36.9505C15.7678 37.6273 17.1953 38 20.667 38H28.6484C30.2854 38 31.6172 36.6682 31.6172 35.0312C31.6172 34.4209 31.4319 33.8531 31.1147 33.3808C32.2613 32.9798 33.1016 31.8843 33.1016 30.5781C33.1016 29.97 32.9208 29.4003 32.6046 28.9259C33.7461 28.5242 34.5859 27.4312 34.5859 26.125C34.5859 25.5146 34.4006 24.9469 34.0835 24.4745C35.23 24.0735 36.0703 22.9781 36.0703 21.6719ZM10.8359 35.7734C10.8359 36.1827 10.503 36.5156 10.0938 36.5156H3.41406V20.1875H10.0938C10.503 20.1875 10.8359 20.5204 10.8359 20.9297V35.7734ZM33.1016 23.1562C31.5096 23.1562 31.1302 23.1562 29.3906 23.1562C28.9808 23.1562 28.6484 23.4886 28.6484 23.8984C28.6484 24.3083 28.9808 24.6406 29.3906 24.6406H31.6172C32.4357 24.6406 33.1016 25.3065 33.1016 26.125C33.1016 26.9448 32.437 27.6094 31.6172 27.6094H27.9062C27.4964 27.6094 27.1641 27.9417 27.1641 28.3516C27.1641 28.7614 27.4964 29.0938 27.9062 29.0938H30.1328C30.9416 29.0938 31.6172 29.7398 31.6172 30.5781C31.6172 31.3979 30.9526 32.0625 30.1328 32.0625C28.5409 32.0625 28.1614 32.0625 26.4219 32.0625C26.012 32.0625 25.6797 32.3949 25.6797 32.8047C25.6797 33.2145 26.012 33.5469 26.4219 33.5469H28.6484C29.4669 33.5469 30.1328 34.2128 30.1328 35.0312C30.1328 35.8497 29.4669 36.5156 28.6484 36.5156H20.667C17.386 36.5156 16.1045 36.181 13.5516 35.5143C13.1776 35.4166 12.7674 35.3095 12.3203 35.1955V21.5253C17.6914 20.2459 24.1953 17.1231 24.1953 11.5781V10.8359C24.1953 10.0175 24.8612 9.35156 25.6797 9.35156C26.4967 9.35156 27.1625 10.0164 27.1641 10.8336V10.8359C27.1641 11.1585 27.5666 15.1171 25.9524 18.7031H23.4531C23.0433 18.7031 22.7109 19.0355 22.7109 19.4453C22.7109 19.8551 23.0433 20.1875 23.4531 20.1875C23.9714 20.1875 32.2556 20.1875 33.1016 20.1875C33.92 20.1875 34.5859 20.8534 34.5859 21.6719C34.5859 22.4917 33.9214 23.1562 33.1016 23.1562Z" fill="#D41F7E"/>
<path d="M8.60938 26.125C8.19954 26.125 7.86719 26.4574 7.86719 26.8672V32.8047C7.86719 33.2145 8.19954 33.5469 8.60938 33.5469C9.01921 33.5469 9.35156 33.2145 9.35156 32.8047V26.8672C9.35156 26.4574 9.01921 26.125 8.60938 26.125Z" fill="#D41F7E"/>
<path d="M19.7422 9.35156H16.7734C16.3636 9.35156 16.0312 9.68391 16.0312 10.0938C16.0312 10.5036 16.3636 10.8359 16.7734 10.8359H19.7422C20.152 10.8359 20.4844 10.5036 20.4844 10.0938C20.4844 9.68391 20.152 9.35156 19.7422 9.35156Z" fill="#D41F7E"/>
<path d="M34.5859 9.35156H31.6172C31.2074 9.35156 30.875 9.68391 30.875 10.0938C30.875 10.5036 31.2074 10.8359 31.6172 10.8359H34.5859C34.9958 10.8359 35.3281 10.5036 35.3281 10.0938C35.3281 9.68391 34.9958 9.35156 34.5859 9.35156Z" fill="#D41F7E"/>
<path d="M32.5016 3.27151C32.2117 2.98176 31.7419 2.98176 31.4519 3.27151L29.3531 5.37034C29.0633 5.66017 29.0633 6.13012 29.3531 6.42002C29.6431 6.70984 30.1128 6.70977 30.4028 6.42002L32.5016 4.32119C32.7915 4.03136 32.7915 3.56141 32.5016 3.27151Z" fill="#D41F7E"/>
<path d="M22.0055 5.37034L19.9067 3.27151C19.6168 2.98176 19.147 2.98176 18.857 3.27151C18.5672 3.56134 18.5672 4.03129 18.857 4.32119L20.9558 6.42002C21.2459 6.70984 21.7156 6.70977 22.0055 6.42002C22.2953 6.13019 22.2953 5.66024 22.0055 5.37034Z" fill="#D41F7E"/>
</svg>
