<svg width="50" height="50" viewBox="0 0 50 50" fill="none" xmlns="http://www.w3.org/2000/svg">
<path d="M1.96931 20.8851L3.58952 21.7711L4.47567 23.3913C4.54295 23.5143 4.64208 23.6169 4.76268 23.6884C4.88327 23.7599 5.02088 23.7976 5.16107 23.7976C5.30127 23.7976 5.43887 23.7599 5.55947 23.6884C5.68006 23.6169 5.7792 23.5143 5.84648 23.3913L6.73253 21.7711L8.35273 20.8851C8.47572 20.8178 8.57834 20.7186 8.64984 20.598C8.72133 20.4774 8.75905 20.3398 8.75905 20.1996C8.75905 20.0595 8.72133 19.9218 8.64984 19.8013C8.57834 19.6807 8.47572 19.5815 8.35273 19.5142L6.73253 18.6281L5.84648 17.0079C5.7792 16.8849 5.68006 16.7823 5.55947 16.7108C5.43887 16.6393 5.30127 16.6016 5.16107 16.6016C5.02088 16.6016 4.88327 16.6393 4.76268 16.7108C4.64208 16.7823 4.54295 16.8849 4.47567 17.0079L3.58952 18.6281L1.96931 19.5142C1.84632 19.5815 1.74369 19.6807 1.6722 19.8013C1.60071 19.9218 1.56299 20.0595 1.56299 20.1996C1.56299 20.3398 1.60071 20.4774 1.6722 20.598C1.74369 20.7186 1.84632 20.8178 1.96931 20.8851ZM4.54004 19.8891C4.67114 19.8174 4.77892 19.7097 4.85059 19.5786L5.16114 19.011L5.47156 19.5786C5.54323 19.7097 5.65101 19.8175 5.7821 19.8891L6.34973 20.1997L5.7821 20.5101C5.65101 20.5818 5.54323 20.6895 5.47156 20.8206L5.16114 21.3883L4.85059 20.8206C4.77892 20.6895 4.67114 20.5818 4.54004 20.5101L3.97242 20.1997L4.54004 19.8891Z" fill="#D41F7E"/>
<path d="M10.398 9.75224L12.0182 10.6383L12.9043 12.2585C12.9716 12.3815 13.0707 12.4841 13.1913 12.5556C13.3119 12.6271 13.4495 12.6648 13.5897 12.6648C13.7299 12.6648 13.8675 12.6271 13.9881 12.5556C14.1087 12.4841 14.2078 12.3815 14.2751 12.2585L15.1612 10.6383L16.7814 9.75224C16.9044 9.68496 17.0071 9.58583 17.0785 9.46523C17.15 9.34464 17.1878 9.20703 17.1878 9.06684C17.1878 8.92664 17.15 8.78903 17.0785 8.66844C17.0071 8.54785 16.9044 8.44871 16.7814 8.38143L15.1612 7.49528L14.2751 5.87507C14.2078 5.75208 14.1087 5.64945 13.9881 5.57796C13.8675 5.50647 13.7299 5.46875 13.5897 5.46875C13.4495 5.46875 13.3119 5.50647 13.1913 5.57796C13.0707 5.64945 12.9716 5.75208 12.9043 5.87507L12.0182 7.49528L10.398 8.38143C10.275 8.44871 10.1724 8.54785 10.1009 8.66844C10.0294 8.78903 9.9917 8.92664 9.9917 9.06684C9.9917 9.20703 10.0294 9.34464 10.1009 9.46523C10.1724 9.58583 10.275 9.68496 10.398 9.75224ZM12.9687 8.75631C13.0998 8.68464 13.2076 8.57686 13.2793 8.44577L13.5897 7.87814L13.9003 8.44577C13.9719 8.57686 14.0797 8.68464 14.2108 8.75631L14.7784 9.06686L14.2108 9.37728C14.0797 9.44895 13.9719 9.55673 13.9003 9.68783L13.5897 10.2555L13.2793 9.68783C13.2076 9.55673 13.0998 9.44895 12.9687 9.37728L12.4011 9.06686L12.9687 8.75631Z" fill="#D41F7E"/>
<path d="M37.8906 26.5625H9.375V28.125H37.8906C38.2013 28.1253 38.4992 28.2489 38.7189 28.4686C38.9386 28.6883 39.0622 28.9862 39.0625 29.2969V32.8125H38.8672C37.8833 32.8136 36.9401 33.205 36.2444 33.9006C35.5487 34.5963 35.1574 35.5396 35.1562 36.5234V36.7188H32.5484C32.7227 36.3527 32.813 35.9523 32.8125 35.5469V33.2031C32.8117 32.4782 32.5233 31.7831 32.0107 31.2705C31.4981 30.7579 30.8031 30.4696 30.0781 30.4688H27.7344C27.0094 30.4696 26.3144 30.7579 25.8018 31.2705C25.2892 31.7831 25.0008 32.4782 25 33.2031V35.5469C24.9995 35.9523 25.0898 36.3527 25.2641 36.7188H24.0234C23.4579 36.7187 22.8999 36.8481 22.3921 37.097C21.8843 37.3458 21.4402 37.7075 21.0938 38.1545C20.7473 37.7075 20.3032 37.3458 19.7954 37.097C19.2876 36.8481 18.7296 36.7187 18.1641 36.7188H16.9234C17.0977 36.3527 17.188 35.9523 17.1875 35.5469V33.2031C17.1867 32.4782 16.8983 31.7831 16.3857 31.2705C15.8731 30.7579 15.1781 30.4696 14.4531 30.4688H12.1094C11.3844 30.4696 10.6894 30.7579 10.1768 31.2705C9.66416 31.7831 9.37581 32.4782 9.375 33.2031V35.5469C9.37452 35.9523 9.46475 36.3527 9.63907 36.7188H7.03125V36.5234C7.03013 35.5396 6.6388 34.5963 5.94311 33.9006C5.24741 33.205 4.30417 32.8136 3.32031 32.8125H3.125V29.2969C3.12534 28.9862 3.24891 28.6883 3.46861 28.4686C3.6883 28.2489 3.98618 28.1253 4.29688 28.125H7.8125V26.5625H4.29688C3.57192 26.5633 2.8769 26.8517 2.36428 27.3643C1.85166 27.8769 1.56331 28.5719 1.5625 29.2969V47.6562C1.5625 47.8635 1.64481 48.0622 1.79132 48.2087C1.93784 48.3552 2.13655 48.4375 2.34375 48.4375H6.25C6.4572 48.4375 6.65591 48.3552 6.80243 48.2087C6.94894 48.0622 7.03125 47.8635 7.03125 47.6562V46.0938H30.4688V44.5312H7.03125V42.9688H35.1562V44.5312H32.0312V46.0938H35.1562V47.6562C35.1562 47.8635 35.2386 48.0622 35.3851 48.2087C35.5316 48.3552 35.7303 48.4375 35.9375 48.4375H39.8438C40.0509 48.4375 40.2497 48.3552 40.3962 48.2087C40.5427 48.0622 40.625 47.8635 40.625 47.6562V29.2969C40.6242 28.5719 40.3358 27.8769 39.8232 27.3643C39.3106 26.8517 38.6156 26.5633 37.8906 26.5625ZM26.5625 35.5469V33.2031C26.5628 32.8924 26.6864 32.5946 26.9061 32.3749C27.1258 32.1552 27.4237 32.0316 27.7344 32.0312H30.0781C30.3888 32.0316 30.6867 32.1552 30.9064 32.3749C31.1261 32.5946 31.2497 32.8924 31.25 33.2031V35.5469C31.2497 35.8576 31.1261 36.1554 30.9064 36.3751C30.6867 36.5948 30.3888 36.7184 30.0781 36.7188H27.7344C27.4237 36.7184 27.1258 36.5948 26.9061 36.3751C26.6864 36.1554 26.5628 35.8576 26.5625 35.5469ZM10.9375 35.5469V33.2031C10.9378 32.8924 11.0614 32.5946 11.2811 32.3749C11.5008 32.1552 11.7987 32.0316 12.1094 32.0312H14.4531C14.7638 32.0316 15.0617 32.1552 15.2814 32.3749C15.5011 32.5946 15.6247 32.8924 15.625 33.2031V35.5469C15.6247 35.8576 15.5011 36.1554 15.2814 36.3751C15.0617 36.5948 14.7638 36.7184 14.4531 36.7188H12.1094C11.7987 36.7184 11.5008 36.5948 11.2811 36.3751C11.0614 36.1554 10.9378 35.8576 10.9375 35.5469ZM5.46875 46.875H3.125V34.375H3.32031C3.88992 34.3756 4.43601 34.6022 4.83878 35.005C5.24155 35.4077 5.46811 35.9538 5.46875 36.5234V46.875ZM7.03125 38.2812H18.1641C18.7337 38.2819 19.2798 38.5084 19.6825 38.9112C20.0853 39.314 20.3119 39.8601 20.3125 40.4297V41.4062H7.03125V38.2812ZM21.875 41.4062V40.4297C21.8756 39.8601 22.1022 39.314 22.505 38.9112C22.9077 38.5084 23.4538 38.2819 24.0234 38.2812H35.1562V41.4062H21.875ZM39.0625 46.875H36.7188V36.5234C36.7194 35.9538 36.9459 35.4077 37.3487 35.005C37.7515 34.6022 38.2976 34.3756 38.8672 34.375H39.0625V46.875Z" fill="#D41F7E"/>
<path d="M48.4375 7.8125V2.34375C48.4375 2.13655 48.3552 1.93784 48.2087 1.79132C48.0622 1.64481 47.8635 1.5625 47.6562 1.5625H19.5312C19.324 1.5625 19.1253 1.64481 18.9788 1.79132C18.8323 1.93784 18.75 2.13655 18.75 2.34375V25H20.3125V23.4375H46.875V26.5625H42.1875V28.125H46.875V34.375H42.1875V35.9375H46.875V46.875H42.1875V48.4375H47.6562C47.8635 48.4375 48.0622 48.3552 48.2087 48.2087C48.3552 48.0622 48.4375 47.8634 48.4375 47.6562V9.375H46.875V12.5H39.0625V3.125H46.875V7.8125H48.4375ZM37.5 12.5H29.6875V3.125H37.5V12.5ZM20.3125 3.125H28.125V12.5H20.3125V3.125ZM20.3125 14.0625H37.5V21.875H20.3125V14.0625ZM46.875 21.875H43.75V14.0625H46.875V21.875ZM42.1875 14.0625V21.875H39.0625V14.0625H42.1875Z" fill="#D41F7E"/>
<path d="M21.875 16.4062H23.4375V19.5312H21.875V16.4062Z" fill="#D41F7E"/>
<path d="M25 7.03125H26.5625V8.59375H25V7.03125Z" fill="#D41F7E"/>
<path d="M31.25 7.03125H32.8125V8.59375H31.25V7.03125Z" fill="#D41F7E"/>
<path d="M41.4062 9.375H44.5312V10.9375H41.4062V9.375Z" fill="#D41F7E"/>
<path d="M42.1875 39.8438H43.75V42.9688H42.1875V39.8438Z" fill="#D41F7E"/>
</svg>
