<svg width="25" height="23" viewBox="0 0 25 23" fill="none" xmlns="http://www.w3.org/2000/svg">
<g opacity="0.5" clip-path="url(#clip0)">
<path fill-rule="evenodd" clip-rule="evenodd" d="M23.1116 9.57051V15.7567C23.1116 19.7487 19.859 23.0004 15.866 23.0004H7.35114C3.33169 23.0004 0.0791016 19.7487 0.0791016 15.7567V9.57051H5.15631V15.7567C5.15631 17.6337 6.69004 19.1671 8.56755 19.1671H14.6232C16.5007 19.1671 18.0344 17.6337 18.0344 15.7567V9.57051H23.1116ZM9.94263 7.64062H13.2745C13.8034 7.64062 14.253 8.06361 14.253 8.61879V14.3556C14.253 14.8843 13.8299 15.3337 13.2745 15.3337C12.1639 15.3337 11.0533 15.3337 9.94263 15.3337C9.41375 15.3337 8.96421 14.9107 8.96421 14.3556C8.96421 12.4521 8.96421 10.5222 8.96421 8.61879C8.96421 8.09005 9.41375 7.64062 9.94263 7.64062Z" fill="white"/>
<path fill-rule="evenodd" clip-rule="evenodd" d="M18.0614 0.317311C20.5207 1.11041 22.4246 3.17248 22.9799 5.73685H18.0614V0.317311ZM7.35165 -0.0263672H14.2535V3.80697H8.56807C7.21944 3.80697 6.05591 4.60007 5.50059 5.73685H0.238281C0.925819 2.45869 3.86108 -0.0263672 7.35165 -0.0263672Z" fill="white"/>
</g>
<defs>
<clipPath id="clip0">
<rect width="25" height="23" fill="white"/>
</clipPath>
</defs>
</svg>
