<svg width="39" height="39" viewBox="0 0 39 39" fill="none" xmlns="http://www.w3.org/2000/svg">
<path d="M1.43077 10.6126L1.43869 10.6047C1.76345 10.3116 2.26247 10.3116 2.57139 10.6206C2.88031 10.9295 2.88031 11.4285 2.57139 11.7374C1.27235 13.0365 1.27235 15.1434 2.57139 16.4425C3.87043 17.7415 5.97741 17.7415 7.27645 16.4425C7.2923 16.4266 7.30022 16.4187 7.31606 16.4108C8.50421 14.7474 10.025 13.3533 11.7756 12.3157C9.96167 8.03832 11.9657 3.10355 16.243 1.29756C20.5203 -0.50842 25.4551 1.48767 27.2611 5.765C27.6255 6.63631 27.8473 7.56306 27.9106 8.50566C28.7502 8.26803 29.4235 8.15714 29.9463 8.17298C30.7859 8.1809 31.4038 8.70369 31.4988 9.47202C31.5543 9.81262 31.5147 10.3116 31.3325 11.9354L31.1661 13.488C32.687 14.7236 33.883 16.1653 34.7464 17.7811L37.0435 18.2326C38.1841 18.4623 39 19.4683 39 20.6248V25.718C39 26.8823 38.1841 27.8804 37.0435 28.1101L34.7385 28.5695C34.287 29.4567 33.7325 30.2884 33.083 31.0488C33.9385 33.1716 33.3048 35.6034 31.5305 37.0529C30.477 37.9084 29.1542 38.3757 27.7997 38.3678C26.2551 38.3678 24.766 37.7816 23.6333 36.7281L23.0788 36.2053C21.0352 36.5143 18.9441 36.443 16.9242 36.0152L16.14 36.7677C15.0549 37.7895 13.6132 38.3599 12.1241 38.344H11.9578C11.9498 38.344 11.9419 38.344 11.934 38.344C10.3815 38.3044 8.90818 37.6549 7.83092 36.5301C6.16752 34.7716 5.96949 32.126 7.28438 30.0507C5.79523 27.9754 5.01105 25.5991 5.01105 23.1436V22.5654C5.01105 22.5496 5.01105 22.5337 5.01105 22.5179C5.08234 21.3377 5.39126 20.1178 5.92989 18.8822C4.30609 19.2307 2.61099 18.7317 1.43869 17.5514C-0.478191 15.6345 -0.478188 12.5295 1.43077 10.6126ZM19.5144 2.20848C15.7519 2.20056 12.6944 5.24222 12.6865 9.00468C12.6786 11.278 13.8113 13.4088 15.7044 14.6761C15.7677 14.7236 15.8311 14.8187 15.8786 14.8187H23.1184C23.1501 14.8187 23.1897 14.7712 23.2293 14.7395C25.0274 13.5751 26.168 11.6344 26.3264 9.50371C26.3423 9.32152 26.3423 9.1631 26.3423 9.02052C26.3343 5.26598 23.2848 2.2164 19.5144 2.20848ZM8.82105 29.4646C8.9557 29.623 9.16165 29.9874 8.9161 30.4785C8.89234 30.526 8.86857 30.5656 8.83689 30.6052C7.68835 32.1023 7.75171 34.1301 8.98739 35.437C9.77157 36.2529 10.833 36.7598 11.9815 36.7598H12.132C13.2172 36.7677 14.2628 36.3638 15.0549 35.6192L16.0846 34.637C16.2668 34.4627 16.5123 34.3677 16.7579 34.3756C16.8212 34.3756 16.8767 34.3835 16.9401 34.3994C18.9757 34.8825 21.0827 34.9459 23.1501 34.5974C23.1976 34.5895 23.2372 34.5895 23.2848 34.5895C23.5382 34.5815 23.7759 34.6766 23.958 34.8509L24.7343 35.5875C25.5264 36.3242 26.5482 36.744 27.6255 36.7915C28.679 36.8469 29.7245 36.5063 30.5483 35.8489C31.8632 34.7716 32.2672 32.9261 31.5147 31.3973C31.3959 31.1993 31.3642 30.9537 31.4275 30.724C31.4592 30.5814 31.5226 30.4547 31.6176 30.3517C32.3622 29.5359 32.988 28.6091 33.4712 27.6111C33.5108 27.5319 33.5583 27.4606 33.6217 27.3972C33.7722 27.2309 33.9702 27.1279 34.184 27.0883L36.7346 26.5734C37.1306 26.4942 37.4158 26.1378 37.4158 25.7338V20.6248C37.4237 20.2208 37.1386 19.8644 36.7346 19.7851L34.1761 19.2703C33.9623 19.2307 33.7642 19.1277 33.6137 18.9614C33.5504 18.898 33.5028 18.8346 33.4632 18.7554C32.6553 17.1395 31.4513 15.6979 29.8909 14.4939C29.8671 14.4702 29.8433 14.4543 29.8196 14.4306C29.6374 14.2484 29.5423 14.0028 29.5503 13.7494C29.5503 13.7177 29.5503 13.6939 29.5582 13.6622L29.7641 11.7612C29.8354 11.1513 29.9542 10.0503 29.9384 9.74926C29.9305 9.74926 29.9146 9.74926 29.9067 9.74926C29.5899 9.74133 28.98 9.79678 27.8552 10.1611C27.6175 11.9196 26.8254 13.5513 25.5977 14.8266H26.3502C26.7858 14.8266 27.1423 15.1831 27.1423 15.6187C27.1423 16.0544 26.7858 16.4108 26.3502 16.4108H12.6231C12.1875 16.4108 11.831 16.0544 11.831 15.6187C11.831 15.1831 12.1875 14.8266 12.6231 14.8266H13.4469C13.0984 14.486 12.7895 14.1058 12.5281 13.6939C10.6983 14.8028 9.19333 16.292 8.15569 18.0029L7.59329 19.0881C7.01506 20.2842 6.68238 21.4961 6.60317 22.605V23.1516C6.60317 25.409 7.37151 27.5873 8.82105 29.4646Z" fill="#D41F7E"/>
<path d="M28.0298 19.1831C29.1546 19.1831 30.0576 20.094 30.0576 21.2109C30.0576 22.3357 29.1467 23.2386 28.0298 23.2386C26.913 23.2386 26.0021 22.3277 26.0021 21.2109C25.9942 20.094 26.9051 19.1831 28.0298 19.1831ZM28.0298 21.6624C28.2754 21.6624 28.4734 21.4643 28.4734 21.2188C28.4734 20.9732 28.2754 20.7752 28.0298 20.7752C27.7843 20.7752 27.5863 20.9732 27.5863 21.2188C27.5783 21.4643 27.7764 21.6624 28.0298 21.6624Z" fill="#D41F7E"/>
<path d="M19.5143 4.22034C22.1679 4.22034 24.3145 6.36692 24.3145 9.02045C24.3065 11.6661 22.1599 13.8126 19.5143 13.8206C16.8608 13.8206 14.7142 11.674 14.7142 9.02045C14.7142 6.36692 16.8608 4.22034 19.5143 4.22034ZM19.5143 12.2364C21.2886 12.2364 22.7303 10.7948 22.7303 9.02045C22.7303 7.24615 21.2886 5.80453 19.5143 5.80453C17.74 5.80453 16.2984 7.24615 16.2984 9.02045C16.2984 10.7948 17.74 12.2364 19.5143 12.2364Z" fill="#D41F7E"/>
</svg>
