<svg width="65" height="65" viewBox="0 0 65 65" fill="none" xmlns="http://www.w3.org/2000/svg">
<g clip-path="url(#clip0)">
<path d="M35.7259 52.5984L48.7947 29.9626C49.0201 29.5721 49.0676 29.103 48.9249 28.6754L44.05 14.0567C43.7979 13.3008 43.019 12.851 42.2382 13.0106L35.8091 14.3253C36.023 15.6536 36.5832 16.9272 37.4714 17.9997C38.3946 17.4402 39.5874 17.3865 40.5866 17.9633C42.0455 18.8057 42.5472 20.678 41.7049 22.1369C41.4872 22.514 41.0049 22.6432 40.6278 22.4255C40.2508 22.2078 40.1215 21.7255 40.3392 21.3485C40.7468 20.6425 40.5041 19.7366 39.7981 19.329C39.0922 18.9214 38.1863 19.1642 37.7787 19.8701C37.3711 20.5761 37.6138 21.482 38.3198 21.8896C38.6969 22.1073 38.8261 22.5895 38.6084 22.9666C38.3907 23.3437 37.9084 23.4729 37.5313 23.2552C36.094 22.4254 35.5868 20.5962 36.3774 19.1471C35.2521 17.8426 34.5385 16.2779 34.2631 14.6415L27.1406 16.0981C26.6989 16.1883 26.3163 16.4641 26.0909 16.8546L10.706 43.5019C10.2713 44.2549 10.5302 45.2213 11.2832 45.656L31.2557 57.1871C32.0087 57.6219 32.9751 57.3629 33.4098 56.6099C33.6275 56.2329 34.1098 56.1036 34.4869 56.3214C34.864 56.5391 34.9932 57.0213 34.7755 57.3984C33.906 58.9044 31.9733 59.4223 30.4673 58.5528L10.4948 47.0216C8.98872 46.1521 8.47087 44.2195 9.34039 42.7135L24.7252 16.0661C25.1761 15.2852 25.9413 14.7337 26.8246 14.5532L34.135 13.0581C34.1411 11.4828 34.5453 9.89825 35.3722 8.46604C35.5899 8.08895 36.0722 7.95973 36.4493 8.17744C36.8264 8.39515 36.9556 8.8774 36.7379 9.25449C36.1096 10.3426 35.7757 11.5369 35.7195 12.7341L41.9221 11.4656C43.4839 11.1462 45.0416 12.0456 45.5459 13.5577L50.4208 28.1764C50.7061 29.0317 50.6111 29.9701 50.1602 30.751L37.0915 53.3868C36.8738 53.7639 36.3915 53.8931 36.0144 53.6754C35.6373 53.4577 35.5081 52.9755 35.7259 52.5984ZM37.9156 33.0366C39.7982 34.1235 40.4455 36.5393 39.3586 38.4218L34.1351 47.4692C33.0482 49.3517 30.6324 49.999 28.7499 48.9122L19.7025 43.6887C17.82 42.6018 17.1726 40.186 18.2595 38.3034L23.483 29.256C24.5699 27.3735 26.9857 26.7262 28.8683 27.8131L37.9156 33.0366ZM37.1272 34.4022L28.0798 29.1787C26.9503 28.5266 25.5008 28.915 24.8487 30.0445L19.6252 39.0919C18.9731 40.2213 19.3615 41.6709 20.4909 42.323L29.5383 47.5465C30.6678 48.1986 32.1174 47.8102 32.7695 46.6807L37.993 37.6334C38.6451 36.5039 38.2567 35.0544 37.1272 34.4022Z" fill="#D41F7E"/>
</g>
<defs>
<clipPath id="clip0">
<rect width="47.2991" height="47.2991" fill="white" transform="translate(23.6494) rotate(30)"/>
</clipPath>
</defs>
</svg>
