<svg width="47" height="47" viewBox="0 0 47 47" fill="none" xmlns="http://www.w3.org/2000/svg">
<path d="M46.2167 0H0.783333C0.350737 0 0 0.350737 0 0.783333V46.2167C0 46.6493 0.350737 47 0.783333 47H46.2167C46.6493 47 47 46.6493 47 46.2167V0.783333C47 0.350737 46.6493 0 46.2167 0ZM1.56667 1.56667H22.7167V7.31477C20.2672 6.45584 17.5851 7.74531 16.7262 10.1948C15.8673 12.6443 17.1568 15.3263 19.6062 16.1852C20.613 16.5382 21.7099 16.5382 22.7167 16.1852V22.7167H14.8833C14.4507 22.7167 14.1 23.0674 14.1 23.5C14.1 23.6695 14.1549 23.8344 14.2567 23.97C14.6673 24.5103 14.8876 25.1713 14.8833 25.85C14.8833 27.5805 13.4805 28.9833 11.75 28.9833C10.0195 28.9833 8.61667 27.5805 8.61667 25.85C8.61236 25.1713 8.83267 24.5103 9.24333 23.97C9.50291 23.6239 9.4328 23.1329 9.08667 22.8733C8.95105 22.7716 8.78616 22.7167 8.61667 22.7167H1.56667V1.56667ZM23.1522 37.6783C22.8844 37.811 22.7155 38.0845 22.7167 38.3833V45.4333H1.56667V24.2833H7.31477C6.45584 26.7328 7.74531 29.4149 10.1948 30.2738C12.6443 31.1327 15.3263 29.8432 16.1852 27.3938C16.5382 26.387 16.5382 25.2901 16.1852 24.2833H22.7167V32.1167C22.7167 32.5493 23.0674 32.9 23.5 32.9C23.6695 32.9 23.8344 32.8451 23.97 32.7433C24.5103 32.3327 25.1713 32.1124 25.85 32.1167C27.5805 32.1167 28.9833 33.5195 28.9833 35.25C28.9833 36.9805 27.5805 38.3833 25.85 38.3833C25.1713 38.3876 24.5103 38.1673 23.97 37.7567C23.734 37.5783 23.4178 37.5479 23.1522 37.6783ZM45.4333 45.4333H24.2833V39.6852C26.7328 40.5442 29.4149 39.2547 30.2738 36.8052C31.1327 34.3557 29.8432 31.6737 27.3938 30.8148C26.387 30.4618 25.2901 30.4618 24.2833 30.8148V24.2833H32.9C33.3326 24.2833 33.6833 23.9326 33.6833 23.5C33.6833 23.2534 33.5672 23.0213 33.37 22.8733C31.9857 21.835 31.705 19.8711 32.7433 18.4867C33.7816 17.1023 35.7456 16.8217 37.13 17.86C38.5143 18.8983 38.795 20.8622 37.7567 22.2467C37.5786 22.4842 37.3675 22.6952 37.13 22.8733C36.7839 23.1329 36.7138 23.6239 36.9733 23.97C37.1213 24.1672 37.3534 24.2833 37.6 24.2833H45.4333V45.4333ZM45.4333 22.7167H39.3163C40.618 20.4709 39.8528 17.5951 37.607 16.2934C35.3611 14.9917 32.4854 15.7569 31.1837 18.0028C30.3388 19.4604 30.3388 21.259 31.1837 22.7168H24.2833V14.8834C24.2833 14.4508 23.9326 14.1001 23.5 14.1001C23.3305 14.1001 23.1656 14.155 23.03 14.2568C22.4897 14.6674 21.8287 14.8877 21.15 14.8834C19.4195 14.8834 18.0167 13.4806 18.0167 11.7501C18.0167 10.0196 19.4195 8.61677 21.15 8.61677C21.8287 8.61246 22.4897 8.83277 23.03 9.24343C23.266 9.42184 23.5823 9.45219 23.8478 9.32176C24.1156 9.18909 24.2845 8.91561 24.2833 8.61677V1.56667H45.4333V22.7167Z" fill="#D41F7E"/>
</svg>
