<svg width="40" height="40" viewBox="0 0 40 40" fill="none" xmlns="http://www.w3.org/2000/svg">
<g clip-path="url(#clip0)">
<path d="M36.9912 10.8529L36.9899 10.8218C36.9725 10.4376 36.961 10.0311 36.9539 9.57883C36.9213 7.37333 35.1681 5.549 32.9622 5.42571C28.3633 5.16905 24.8055 3.66942 21.7657 0.70648L21.7397 0.681761C20.7482 -0.227355 19.2526 -0.227355 18.2607 0.681761L18.2348 0.70648C15.195 3.66942 11.6372 5.16905 7.03824 5.42601C4.83274 5.549 3.07921 7.37333 3.04656 9.57914C3.03984 10.0284 3.02794 10.4348 3.01054 10.8218L3.00871 10.8941C2.9193 15.5838 2.80821 21.4202 4.76072 26.7178C5.83433 29.631 7.4603 32.1633 9.59317 34.2449C12.0224 36.6155 15.2041 38.4975 19.0499 39.8385C19.1751 39.8821 19.3051 39.9175 19.4375 39.9441C19.6243 39.9813 19.8123 39.9999 20.0002 39.9999C20.1882 39.9999 20.3765 39.9813 20.563 39.9441C20.6954 39.9175 20.8264 39.8818 20.9521 39.8379C24.7933 38.4945 27.9717 36.6115 30.3988 34.2412C32.5307 32.159 34.1567 29.6261 35.2312 26.7123C37.1911 21.3989 37.0803 15.5514 36.9912 10.8529ZM33.0291 25.9002C30.9698 31.4837 26.766 35.3182 20.1776 37.6223C20.1541 37.6302 20.129 37.6372 20.1031 37.6424C20.035 37.6559 19.9658 37.6559 19.8968 37.6421C19.8712 37.6369 19.8461 37.6302 19.8229 37.6223C13.2275 35.3225 9.02097 31.4901 6.96317 25.9063C5.16355 21.0232 5.26548 15.6655 5.35551 10.939L5.35612 10.9128C5.37443 10.5066 5.38664 10.0812 5.39335 9.61362C5.408 8.63432 6.18803 7.82408 7.16916 7.76945C9.7717 7.62419 12.0581 7.12126 14.1589 6.23198C16.257 5.34392 18.1204 4.09209 19.855 2.40508C19.9432 2.33062 20.0576 2.33032 20.1455 2.40508C21.8804 4.09209 23.7438 5.34392 25.8416 6.23198C27.9424 7.12126 30.2288 7.62419 32.8316 7.76945C33.8128 7.82408 34.5928 8.63432 34.6071 9.61393C34.6142 10.0839 34.6264 10.5093 34.6447 10.9128C34.7344 15.6448 34.8339 21.0067 33.0291 25.9002Z" fill="#F09720"/>
<path d="M19.9993 10.0321C14.5025 10.0321 10.0308 14.5041 10.0308 20.0006C10.0308 25.4974 14.5025 29.9695 19.9993 29.9695C25.4959 29.9695 29.9679 25.4974 29.9679 20.0006C29.9679 14.5041 25.4959 10.0321 19.9993 10.0321ZM19.9993 27.6221C15.7968 27.6221 12.3779 24.2032 12.3779 20.0006C12.3779 15.798 15.7968 12.3792 19.9993 12.3792C24.2016 12.3792 27.6205 15.798 27.6205 20.0006C27.6205 24.2032 24.2016 27.6221 19.9993 27.6221Z" fill="#F09720"/>
<path d="M22.8644 16.9058L18.2342 21.536L16.9775 20.2792C16.5191 19.8209 15.776 19.8209 15.3177 20.2792C14.8596 20.7376 14.8596 21.4807 15.3177 21.9388L17.4045 24.0256C17.6337 24.2548 17.9339 24.3692 18.2342 24.3692C18.5345 24.3692 18.8348 24.2548 19.064 24.0256L24.5242 18.5654C24.9823 18.107 24.9823 17.3639 24.5242 16.9058C24.0658 16.4472 23.3227 16.4472 22.8644 16.9058Z" fill="#F09720"/>
</g>
<defs>
<clipPath id="clip0">
<rect width="40" height="40" fill="white"/>
</clipPath>
</defs>
</svg>
