<svg width="33" height="33" viewBox="0 0 33 33" fill="none" xmlns="http://www.w3.org/2000/svg">
<g clip-path="url(#clip0)">
<path d="M32.9609 2.46364C32.8894 1.15279 31.8469 0.110393 30.536 0.0388505C27.891 -0.105653 22.7151 0.0349189 17.7659 2.5948C15.2429 3.89985 12.5745 6.11246 10.4451 8.66532C10.4188 8.69677 10.3933 8.72842 10.3673 8.75994L5.53457 9.13325C4.73909 9.19474 4.03056 9.61169 3.5906 10.2771L0.293563 15.264C-0.0401109 15.7686 -0.0931558 16.4002 0.151573 16.9534C0.396366 17.5067 0.899358 17.8922 1.49716 17.9849L5.56873 18.6155C5.55436 18.6946 5.53992 18.7737 5.52671 18.8528C5.39116 19.6637 5.6598 20.4973 6.24542 21.0829L11.9168 26.7543C12.4023 27.2398 13.0584 27.5075 13.7306 27.5075C13.8691 27.5075 14.0083 27.4961 14.1469 27.4729C14.226 27.4597 14.3051 27.4453 14.3842 27.4309L15.0149 31.5025C15.1075 32.1003 15.493 32.6034 16.0462 32.8481C16.2763 32.95 16.5199 33.0002 16.7624 33.0002C17.1029 33.0002 17.441 32.9011 17.7357 32.7062L22.7225 29.4091C23.388 28.9691 23.8049 28.2606 23.8663 27.4651L24.2396 22.6325C24.2711 22.6065 24.3028 22.5809 24.3343 22.5547C26.8872 20.4252 29.0999 17.7569 30.4048 15.2338C32.9649 10.2844 33.1052 5.10848 32.9609 2.46364ZM21.6562 27.7961L16.8859 30.95L16.2713 26.9819C18.2874 26.3892 20.2818 25.4398 22.1818 24.1679L21.9386 27.3161C21.9235 27.5125 21.8205 27.6875 21.6562 27.7961ZM13.284 25.387L7.6126 19.7156C7.46791 19.5709 7.401 19.3675 7.43381 19.1716C7.60242 18.1634 7.86442 17.2036 8.18875 16.2995L16.6984 24.8091C15.6125 25.1981 14.6398 25.4301 13.828 25.5658C13.6318 25.5984 13.4287 25.5317 13.284 25.387ZM5.68352 11.0611L8.83167 10.8179C7.55975 12.7179 6.61036 14.7123 6.01758 16.7284L2.04959 16.1138L5.20354 11.3435C5.31221 11.1792 5.4872 11.0763 5.68352 11.0611ZM23.0959 21.0698C21.534 22.3726 20.0178 23.3149 18.6204 23.9967L9.0026 14.379C9.89579 12.5547 10.9859 11.0356 11.9299 9.90392C13.9005 7.54139 16.3515 5.50332 18.6543 4.31222C23.1966 1.96271 27.9823 1.83619 30.4308 1.96948C30.7548 1.98714 31.0126 2.24489 31.0302 2.56902C31.1637 5.01747 31.0369 9.80311 28.6874 14.3454C27.4964 16.6482 25.4583 19.0991 23.0959 21.0698Z" fill="#DB1F7B"/>
<path d="M22.6049 15.2265C23.8425 15.2264 25.0806 14.7552 26.0229 13.813C26.9359 12.9 27.4386 11.6861 27.4386 10.395C27.4386 9.10386 26.9358 7.88995 26.0229 6.97697C24.1381 5.09217 21.0714 5.0923 19.1868 6.97697C18.2738 7.88995 17.771 9.10386 17.771 10.395C17.771 11.6861 18.2739 12.9 19.1868 13.813C20.1293 14.7554 21.3668 15.2266 22.6049 15.2265ZM20.554 8.34415C21.1193 7.7787 21.862 7.49601 22.6047 7.49601C23.3475 7.49601 24.0902 7.7787 24.6556 8.34415C25.2033 8.89194 25.505 9.62026 25.505 10.3949C25.505 11.1696 25.2033 11.898 24.6556 12.4458C23.5248 13.5766 21.6847 13.5765 20.5539 12.4458C20.0061 11.898 19.7044 11.1696 19.7044 10.395C19.7044 9.62032 20.0062 8.89194 20.554 8.34415Z" fill="#DB1F7B"/>
<path d="M0.986296 27.1952C1.23373 27.1952 1.48117 27.1008 1.66989 26.912L4.82635 23.7555C5.20391 23.3779 5.20391 22.7658 4.82635 22.3882C4.44885 22.0107 3.83667 22.0107 3.4591 22.3882L0.302706 25.5447C-0.0748603 25.9223 -0.0748603 26.5344 0.302706 26.912C0.491425 27.1007 0.73886 27.1952 0.986296 27.1952Z" fill="#DB1F7B"/>
<path d="M7.71894 25.2809C7.34144 24.9033 6.72926 24.9033 6.35169 25.2809L0.283175 31.3495C-0.0943916 31.727 -0.0943916 32.3392 0.283175 32.7167C0.471958 32.9055 0.719329 32.9999 0.966765 32.9999C1.2142 32.9999 1.46164 32.9055 1.65035 32.7167L7.71887 26.6481C8.09651 26.2706 8.09651 25.6585 7.71894 25.2809Z" fill="#DB1F7B"/>
<path d="M9.24432 28.1737L6.08786 31.3302C5.7103 31.7077 5.7103 32.3198 6.08786 32.6974C6.27664 32.8862 6.52408 32.9806 6.77145 32.9806C7.01882 32.9806 7.26632 32.8863 7.45504 32.6974L10.6115 29.5409C10.9891 29.1634 10.9891 28.5513 10.6115 28.1737C10.234 27.7961 9.62182 27.7961 9.24432 28.1737Z" fill="#DB1F7B"/>
</g>
<defs>
<clipPath id="clip0">
<rect width="33" height="33" fill="white"/>
</clipPath>
</defs>
</svg>
