<svg width="43" height="43" viewBox="0 0 43 43" fill="none" xmlns="http://www.w3.org/2000/svg">
<path d="M23.8771 6.75436V4.57295C25.1362 4.57102 26.1601 3.54616 26.1601 2.28656C26.1601 1.0257 25.1343 0 23.8735 0H19.1267C17.866 0 16.8402 1.0257 16.8402 2.28656C16.8402 3.54616 17.864 4.57102 19.1232 4.57295V6.75436C10.3417 7.89277 3.30029 15.4072 3.30029 24.8002C3.30029 34.8587 11.4402 43 21.5001 43C31.5587 43 39.7 34.8601 39.7 24.8002C39.7 15.4087 32.6613 7.8931 23.8771 6.75436ZM18.5199 2.28656C18.5199 1.95196 18.7921 1.67969 19.1267 1.67969H23.8736C24.2082 1.67969 24.4805 1.95188 24.4805 2.28656C24.4805 2.62115 24.2083 2.89335 23.8736 2.89335C22.8683 2.89335 20.1132 2.89335 19.1267 2.89335C18.7921 2.89335 18.5199 2.62107 18.5199 2.28656ZM20.8029 6.61411V4.57303H22.1974V6.61419C21.704 6.59487 21.2389 6.59706 20.8029 6.61411ZM21.5001 41.3203C12.3909 41.3203 4.97998 33.9094 4.97998 24.8002C4.97998 15.576 12.5915 8.07233 21.8834 8.28489C30.8338 8.49947 38.0202 15.8279 38.0202 24.8002C38.0203 33.9094 30.6093 41.3203 21.5001 41.3203Z" fill="#D41F7E"/>
<path d="M19.8684 10.5307C19.4075 10.5828 19.0762 10.9987 19.1284 11.4596C19.1805 11.9204 19.5962 12.2525 20.0573 12.1997C27.6277 11.343 34.1816 17.2839 34.1816 24.8002C34.1816 31.7929 28.4927 37.4818 21.5 37.4818C14.5073 37.4818 8.81836 31.7929 8.81836 24.8002C8.81836 20.7213 10.8004 16.8654 14.1203 14.4857C14.4973 14.2155 14.5838 13.6908 14.3135 13.3137C14.0433 12.9367 13.5187 12.8502 13.1416 13.1205C9.38282 15.815 7.13867 20.1812 7.13867 24.8002C7.13867 32.7191 13.5811 39.1615 21.5 39.1615C29.4189 39.1615 35.8613 32.7191 35.8613 24.8002C35.8613 16.2636 28.4164 9.56368 19.8684 10.5307Z" fill="#D41F7E"/>
<path d="M20.66 21.6285C19.2565 22.0005 18.2188 23.2812 18.2188 24.8002C18.2188 26.6094 19.6907 28.0813 21.4999 28.0813C23.309 28.0813 24.781 26.6094 24.781 24.8002C24.781 23.2812 23.7432 22.0005 22.3397 21.6285V16.8547C22.3397 16.3909 21.9637 16.0149 21.4999 16.0149C21.036 16.0149 20.66 16.3909 20.66 16.8547V21.6285ZM23.1013 24.8002C23.1013 25.6832 22.3829 26.4016 21.4999 26.4016C20.6168 26.4016 19.8984 25.6832 19.8984 24.8002C19.8984 23.9172 20.6168 23.1987 21.4999 23.1987C22.3829 23.1987 23.1013 23.9172 23.1013 24.8002Z" fill="#D41F7E"/>
<path d="M10.521 23.3824C10.0571 23.3824 9.68115 23.7584 9.68115 24.2223C9.68115 24.6861 10.0571 25.0621 10.521 25.0621H11.6408C12.1047 25.0621 12.4807 24.6861 12.4807 24.2223C12.4807 23.7584 12.1047 23.3824 11.6408 23.3824H10.521Z" fill="#D41F7E"/>
<path d="M32.4792 25.0621C32.9431 25.0621 33.3191 24.6861 33.3191 24.2223C33.3191 23.7584 32.9431 23.3824 32.4792 23.3824H31.3594C30.8955 23.3824 30.5195 23.7584 30.5195 24.2223C30.5195 24.6861 30.8955 25.0621 31.3594 25.0621H32.4792Z" fill="#D41F7E"/>
<path d="M13.1429 15.865C12.815 16.1929 12.815 16.7247 13.1429 17.0528L13.9348 17.8447C14.2628 18.1726 14.7946 18.1726 15.1226 17.8447C15.4506 17.5167 15.4506 16.9849 15.1226 16.6569L14.3307 15.865C14.0028 15.537 13.471 15.537 13.1429 15.865Z" fill="#D41F7E"/>
<path d="M27.8777 31.7876L28.6696 32.5795C28.9976 32.9075 29.5294 32.9075 29.8574 32.5795C30.1854 32.2516 30.1854 31.7198 29.8574 31.3917L29.0655 30.5999C28.7376 30.2719 28.2058 30.2719 27.8777 30.5999C27.5499 30.9278 27.5499 31.4596 27.8777 31.7876Z" fill="#D41F7E"/>
<path d="M21.5 15.2029C21.9638 15.2029 22.3398 14.8269 22.3398 14.363V13.2432C22.3398 12.7793 21.9638 12.4033 21.5 12.4033C21.0362 12.4033 20.6602 12.7793 20.6602 13.2432V14.363C20.6602 14.8269 21.0362 15.2029 21.5 15.2029Z" fill="#D41F7E"/>
<path d="M20.6602 34.0815V35.2014C20.6602 35.6652 21.0362 36.0412 21.5 36.0412C21.9638 36.0412 22.3398 35.6652 22.3398 35.2014V34.0815C22.3398 33.6177 21.9638 33.2417 21.5 33.2417C21.0362 33.2417 20.6602 33.6177 20.6602 34.0815Z" fill="#D41F7E"/>
<path d="M29.0656 17.8445L29.8575 17.0527C30.1854 16.7247 30.1854 16.1929 29.8575 15.8649C29.5295 15.5369 28.9977 15.5369 28.6697 15.8649L27.8778 16.6568C27.5498 16.9847 27.5498 17.5165 27.8778 17.8445C28.2058 18.1725 28.7376 18.1725 29.0656 17.8445Z" fill="#D41F7E"/>
<path d="M13.9348 30.5999L13.1429 31.3917C12.815 31.7197 12.815 32.2515 13.1429 32.5795C13.4709 32.9075 14.0027 32.9075 14.3307 32.5795L15.1226 31.7876C15.4506 31.4597 15.4506 30.9279 15.1226 30.5999C14.7946 30.2719 14.2628 30.2719 13.9348 30.5999Z" fill="#D41F7E"/>
<path d="M16.5992 13.0352C17.0631 13.0352 17.4391 12.6592 17.4391 12.1954C17.4391 11.7315 17.0631 11.3555 16.5992 11.3555H16.5971C16.1333 11.3555 15.7583 11.7315 15.7583 12.1954C15.7583 12.6592 16.1354 13.0352 16.5992 13.0352Z" fill="#D41F7E"/>
</svg>
