<svg width="55" height="55" viewBox="0 0 55 55" fill="none" xmlns="http://www.w3.org/2000/svg">
<g clip-path="url(#clip0)">
<path d="M49.9913 24.7424C47.7476 16.7261 41.4834 10.4619 33.4671 8.21822C35.4842 6.70475 35.8925 3.84277 34.3792 1.82568C33.5133 0.671706 32.153 -0.00512447 30.7103 3.08068e-05H23.3784C20.8567 -0.00913412 18.8051 2.02777 18.7959 4.54939C18.7907 5.99206 19.4676 7.35237 20.6216 8.21822C7.94832 11.7655 0.550274 24.9147 4.09744 37.5879C7.64462 50.2612 20.7939 57.6592 33.4671 54.1121C46.1404 50.5649 53.5385 37.4156 49.9913 24.7424ZM23.3784 1.83302H30.7103C32.2288 1.83302 33.4598 3.06398 33.4598 4.5825C33.4598 6.10101 32.2288 7.33197 30.7103 7.33197H23.3784C21.8599 7.33197 20.6289 6.10101 20.6289 4.5825C20.6289 3.06398 21.8599 1.83302 23.3784 1.83302ZM27.0444 53.1566C14.8964 53.1566 5.04853 43.3088 5.04853 31.1608C5.04853 19.0128 14.8964 9.16496 27.0444 9.16496C39.1924 9.16496 49.0402 19.0128 49.0402 31.1608C49.0261 43.3029 39.1865 53.1425 27.0444 53.1566Z" fill="#D41F7E"/>
<path d="M7.79877 3.66602C5.26799 3.66602 3.21631 5.7177 3.21631 8.24848C3.21929 10.778 5.26925 12.828 7.79877 12.8309C10.3296 12.8309 12.3812 10.7793 12.3812 8.24848C12.3812 5.7177 10.3296 3.66602 7.79877 3.66602ZM7.79877 10.998C6.28026 10.998 5.04929 9.76699 5.04929 8.24848C5.04929 6.72996 6.28026 5.499 7.79877 5.499C9.31729 5.499 10.5483 6.72996 10.5483 8.24848C10.5483 9.76699 9.31729 10.998 7.79877 10.998Z" fill="#D41F7E"/>
<path d="M47.208 3.66602C44.6772 3.66602 42.6255 5.7177 42.6255 8.24848C42.6285 10.778 44.6784 12.828 47.208 12.8309C49.7387 12.8309 51.7904 10.7793 51.7904 8.24848C51.7904 5.7177 49.7387 3.66602 47.208 3.66602ZM47.208 10.998C45.6894 10.998 44.4585 9.76699 44.4585 8.24848C44.4585 6.72996 45.6894 5.499 47.208 5.499C48.7265 5.499 49.9574 6.72996 49.9574 8.24848C49.9574 9.76699 48.7265 10.998 47.208 10.998Z" fill="#D41F7E"/>
<path d="M27.0448 10.998V12.831C36.8074 12.8421 44.8524 20.4945 45.3517 30.2444H29.6256C29.1195 28.8127 27.5485 28.0625 26.1169 28.5687C24.6853 29.0749 23.935 30.6458 24.4412 32.0774C24.9475 33.509 26.5184 34.2593 27.9499 33.7531C28.7329 33.4763 29.3488 32.8603 29.6256 32.0774H46.2911C46.7972 32.0774 47.2076 31.667 47.2076 31.1609C47.195 20.0306 38.1751 11.0106 27.0448 10.998ZM27.0448 32.0774C26.5386 32.0774 26.1283 31.667 26.1283 31.1609C26.1283 30.6548 26.5386 30.2444 27.0448 30.2444C27.5509 30.2444 27.9613 30.6548 27.9613 31.1609C27.9613 31.667 27.5509 32.0774 27.0448 32.0774Z" fill="#D41F7E"/>
<path d="M38.7067 41.5266L37.4106 42.8228L41.299 46.7111L42.5951 45.415L38.7067 41.5266Z" fill="#D41F7E"/>
<path d="M27.9619 46.7412H26.1289V52.2402H27.9619V46.7412Z" fill="#D41F7E"/>
<path d="M15.3737 41.5292L11.4854 45.4175L12.7815 46.7136L16.6698 42.8253L15.3737 41.5292Z" fill="#D41F7E"/>
<path d="M11.4648 30.2441H5.96582V32.0771H11.4648V30.2441Z" fill="#D41F7E"/>
<path d="M12.7873 15.6087L11.4912 16.9048L15.3795 20.7931L16.6756 19.497L12.7873 15.6087Z" fill="#D41F7E"/>
</g>
<defs>
<clipPath id="clip0">
<rect width="55" height="55" fill="white"/>
</clipPath>
</defs>
</svg>
