<svg width="40" height="40" viewBox="0 0 40 40" fill="none" xmlns="http://www.w3.org/2000/svg">
<path d="M17.7446 0C17.3131 0 16.9634 0.349766 16.9634 0.78125V5.59898C16.9634 6.03039 17.3131 6.38023 17.7446 6.38023C18.1761 6.38023 18.5259 6.03047 18.5259 5.59898V0.78125C18.5259 0.349766 18.1761 0 17.7446 0Z" fill="#D41F7E"/>
<path d="M27.9979 10.2552H23.1802C22.7487 10.2552 22.3989 10.6049 22.3989 11.0364C22.3989 11.4679 22.7487 11.8177 23.1802 11.8177H27.9979C28.4294 11.8177 28.7792 11.4679 28.7792 11.0364C28.7792 10.6049 28.4294 10.2552 27.9979 10.2552Z" fill="#D41F7E"/>
<path d="M12.3069 10.2531H7.48926C7.05777 10.2531 6.70801 10.6028 6.70801 11.0343C6.70801 11.4658 7.05777 11.8156 7.48926 11.8156H12.307C12.7384 11.8156 13.0882 11.4658 13.0882 11.0343C13.0882 10.6028 12.7384 10.2531 12.3069 10.2531Z" fill="#D41F7E"/>
<path d="M13.8798 6.06506L11.6052 3.79045C11.3001 3.48538 10.8054 3.48538 10.5003 3.79045C10.1952 4.09553 10.1952 4.59022 10.5003 4.89537L12.775 7.16998C12.9276 7.32256 13.1275 7.39881 13.3274 7.39881C13.5273 7.39881 13.7273 7.32256 13.8798 7.16998C14.1849 6.8649 14.1849 6.37022 13.8798 6.06506Z" fill="#D41F7E"/>
<path d="M24.9887 3.79195C24.6836 3.48687 24.189 3.48687 23.8838 3.79195L21.6092 6.06656C21.3041 6.37163 21.3041 6.86632 21.6092 7.17148C21.7618 7.32406 21.9618 7.40031 22.1617 7.40031C22.3616 7.40031 22.5616 7.32406 22.7141 7.17148L24.9887 4.89687C25.2938 4.59179 25.2938 4.09711 24.9887 3.79195Z" fill="#D41F7E"/>
<path d="M30.4009 17.7895C29.8735 17.7895 29.3791 17.9322 28.9529 18.1799C28.5978 16.9855 27.4903 16.1117 26.1821 16.1117C25.3506 16.1117 24.6006 16.4651 24.0728 17.0289C23.5449 16.4651 22.7948 16.1117 21.9634 16.1117C21.4847 16.1117 21.0333 16.2294 20.6353 16.4362V11.0353C20.6353 9.4414 19.3385 8.14468 17.7446 8.14468C16.1507 8.14468 14.854 9.4414 14.854 11.0353V15.1546C14.854 15.5861 15.2038 15.9359 15.6353 15.9359C16.0667 15.9359 16.4165 15.5861 16.4165 15.1546V11.0353C16.4165 10.303 17.0123 9.70718 17.7446 9.70718C18.477 9.70718 19.0728 10.303 19.0728 11.0353V24.1141C19.0728 24.5455 19.4225 24.8953 19.854 24.8953C20.2855 24.8953 20.6353 24.5455 20.6353 24.1141V19.0023C20.6353 18.27 21.231 17.6742 21.9634 17.6742C22.6957 17.6742 23.2915 18.27 23.2915 19.0023V19.7563V24.1141C23.2915 24.5455 23.6413 24.8953 24.0728 24.8953C24.5042 24.8953 24.854 24.5455 24.854 24.1141V19.7563V19.0023C24.854 18.27 25.4498 17.6742 26.1821 17.6742C26.9145 17.6742 27.5103 18.27 27.5103 19.0023V20.6801V22.0312V24.1141C27.5103 24.5456 27.86 24.8954 28.2915 24.8954C28.723 24.8954 29.0728 24.5456 29.0728 24.1141V22.0312V20.6801C29.0728 19.9477 29.6685 19.352 30.4009 19.352C31.1332 19.352 31.729 19.9477 31.729 20.6801V28.8499C31.729 29.4319 31.6766 30.0145 31.5731 30.5817C31.4956 31.0063 31.777 31.413 32.2014 31.4905C32.2488 31.4991 32.296 31.5033 32.3425 31.5033C32.7127 31.5033 33.0414 31.2391 33.1103 30.862C33.2305 30.2026 33.2915 29.5256 33.2915 28.8498V20.6801C33.2915 19.0862 31.9948 17.7895 30.4009 17.7895Z" fill="#D41F7E"/>
<path d="M29.7841 35.9002C29.4898 35.5848 28.9954 35.5677 28.68 35.862C26.8996 37.5228 24.5775 38.4375 22.1412 38.4375C18.4861 38.4375 15.0973 36.3108 13.5078 33.0194L9.9091 25.568C9.58449 24.8959 9.8366 24.0772 10.4829 23.704C11.1512 23.3183 12.0213 23.5404 12.4229 24.1991L14.9681 28.3753C15.1504 28.6743 15.5093 28.8155 15.8464 28.7209C16.1835 28.6263 16.4164 28.3189 16.4164 27.9688V20.3125C16.4164 19.881 16.0667 19.5312 15.6352 19.5312C15.2037 19.5312 14.8539 19.881 14.8539 20.3125V25.1857L13.7571 23.386C12.9035 21.9854 11.1221 21.5307 9.70168 22.3509C8.35051 23.1309 7.82356 24.8426 8.50215 26.2475L12.1008 33.6989C13.0138 35.5893 14.4362 37.1784 16.2143 38.2942C17.9925 39.4102 20.042 40 22.1413 40C24.9746 40 27.6752 38.9362 29.7458 37.0045C30.0613 36.7101 30.0785 36.2158 29.7841 35.9002Z" fill="#D41F7E"/>
<path d="M31.8058 33.25C31.6605 33.1047 31.4589 33.0211 31.2534 33.0211C31.0479 33.0211 30.8464 33.1047 30.7011 33.25C30.5558 33.3953 30.4722 33.5968 30.4722 33.8023C30.4722 34.0086 30.5558 34.2093 30.7011 34.3546C30.8464 34.5 31.0479 34.5836 31.2534 34.5836C31.4589 34.5836 31.6605 34.5 31.8058 34.3546C31.9511 34.2093 32.0347 34.0086 32.0347 33.8023C32.0347 33.5968 31.9511 33.3953 31.8058 33.25Z" fill="#D41F7E"/>
<path d="M16.1876 17.2602C16.0423 17.1148 15.8407 17.0312 15.6353 17.0312C15.4298 17.0312 15.2282 17.1148 15.0829 17.2602C14.9376 17.4055 14.854 17.607 14.854 17.8125C14.854 18.018 14.9376 18.2195 15.0829 18.3648C15.2282 18.5102 15.4298 18.5938 15.6353 18.5938C15.8407 18.5938 16.0423 18.5102 16.1876 18.3648C16.3329 18.2195 16.4165 18.018 16.4165 17.8125C16.4165 17.607 16.3329 17.4055 16.1876 17.2602Z" fill="#D41F7E"/>
</svg>
