<svg width="23" height="23" viewBox="0 0 23 23" fill="none" xmlns="http://www.w3.org/2000/svg">
<path fill-rule="evenodd" clip-rule="evenodd" d="M19.3327 4.13356C17.3155 2.11392 14.6326 1.00118 11.7745 1C5.88512 1 1.09199 5.793 1.08962 11.684C1.08883 13.5672 1.58078 15.4054 2.51585 17.0258L1 22.5625L6.66424 21.0767C8.22496 21.928 9.98205 22.3767 11.7702 22.3772H11.7747C17.6634 22.3772 22.4571 17.5838 22.4593 11.6925C22.4605 8.83746 21.3501 6.15307 19.3327 4.13356ZM11.7745 20.5727H11.7709C10.1774 20.5721 8.61452 20.1438 7.25081 19.3348L6.92666 19.1423L3.56542 20.0241L4.46258 16.7469L4.25135 16.4109C3.36235 14.9969 2.8929 13.3626 2.89369 11.6846C2.89554 6.78821 6.87954 2.8046 11.7781 2.8046C14.1502 2.80539 16.38 3.73032 18.0567 5.40897C19.7333 7.08762 20.6562 9.31888 20.6554 11.6919C20.6533 16.5887 16.6695 20.5727 11.7745 20.5727V20.5727ZM16.6458 13.9214C16.3789 13.7877 15.0663 13.1421 14.8215 13.0528C14.577 12.9637 14.3988 12.9194 14.221 13.1865C14.0429 13.4537 13.5314 14.0552 13.3755 14.2332C13.2197 14.4114 13.0642 14.4338 12.7971 14.3001C12.5301 14.1665 11.6699 13.8845 10.6501 12.9749C9.8565 12.267 9.32072 11.3927 9.1649 11.1256C9.00934 10.8582 9.16358 10.7276 9.28203 10.5807C9.57104 10.2218 9.86044 9.84557 9.94941 9.66751C10.0385 9.48931 9.99389 9.33336 9.92704 9.19978C9.86044 9.0662 9.32651 7.7521 9.1041 7.21738C8.88721 6.69701 8.66729 6.76728 8.50331 6.75912C8.34775 6.75136 8.16969 6.74978 7.99162 6.74978C7.81369 6.74978 7.52442 6.8165 7.27963 7.08393C7.03497 7.35122 6.34535 7.99702 6.34535 9.31112C6.34535 10.6252 7.302 11.8947 7.43545 12.0729C7.5689 12.2511 9.31809 14.9477 11.9962 16.104C12.6331 16.3793 13.1304 16.5434 13.5182 16.6665C14.1578 16.8697 14.7396 16.841 15.1997 16.7723C15.7127 16.6956 16.7792 16.1264 17.0018 15.5028C17.2243 14.8791 17.2243 14.3447 17.1574 14.2332C17.0908 14.1219 16.9127 14.0552 16.6458 13.9214V13.9214Z" fill="#6A6A6A"/>
</svg>
