<svg width="37" height="37" viewBox="0 0 37 37" fill="none" xmlns="http://www.w3.org/2000/svg">
<path d="M3.9796 22.9536C3.84525 22.8192 3.65881 22.7426 3.46875 22.7426C3.27869 22.7426 3.09225 22.8192 2.95783 22.9536C2.82342 23.0887 2.74609 23.2744 2.74609 23.4652C2.74609 23.6553 2.82335 23.841 2.95783 23.9761C3.09232 24.1105 3.27876 24.1879 3.46875 24.1879C3.65881 24.1879 3.84525 24.1105 3.9796 23.9761C4.11401 23.841 4.19141 23.6553 4.19141 23.4652C4.19141 23.2744 4.11408 23.0887 3.9796 22.9536Z" fill="#D41F7E"/>
<path d="M32.0858 0H4.91406C3.71864 0 2.74609 0.972551 2.74609 2.16797V16.2246C2.74609 16.2259 2.74609 16.2271 2.74609 16.2283V20.9329C2.74609 21.332 3.0697 21.6556 3.46875 21.6556C3.8678 21.6556 4.19141 21.332 4.19141 20.9329V17.5949L4.19936 17.6004C7.1126 19.5821 9.30008 22.3759 10.5251 25.6797C12.1191 29.9785 15.2288 33.473 19.2361 35.5545H10.9373L10.3247 34.9037C8.84069 33.3273 8.02336 31.2669 8.02336 29.1019C8.02336 28.7027 7.69976 28.3792 7.30071 28.3792C6.90166 28.3792 6.57805 28.7027 6.57805 29.1019C6.57805 31.4837 7.4232 33.7575 8.96686 35.5544H4.91406C4.51559 35.5544 4.19141 35.2302 4.19141 34.8317V26.2532C4.19141 25.8541 3.8678 25.5306 3.46875 25.5306C3.0697 25.5306 2.74609 25.8541 2.74609 26.2532V34.8318C2.74609 36.0272 3.71864 36.9998 4.91406 36.9998H22.905C22.9066 36.9998 22.9083 37 22.9099 37C22.9117 37 22.9136 36.9998 22.9154 36.9998H32.0858C33.2812 36.9998 34.2538 36.0272 34.2538 34.8318V2.16797C34.2538 0.972551 33.2812 0 32.0858 0ZM32.8085 8.89604C32.0866 8.48651 31.2786 8.26856 30.438 8.26856C29.0647 8.26856 27.777 8.84784 26.8123 9.89967C24.8597 12.0286 24.8597 15.4927 26.8123 17.6217C27.777 18.6735 29.0647 19.2529 30.438 19.2529C31.2785 19.2529 32.0866 19.0348 32.8085 18.6254V25.5919C32.2429 26.348 31.6258 27.0256 30.9709 27.6058C30.6721 27.8705 30.6445 28.3272 30.9092 28.6259C31.052 28.7872 31.2508 28.8694 31.4504 28.8694C31.6207 28.8694 31.7917 28.8095 31.9293 28.6876C32.2303 28.421 32.5236 28.1361 32.8085 27.8353V34.8318C32.8084 35.2303 32.4843 35.5545 32.0858 35.5545H23.0344L22.053 35.2064C17.3302 33.5312 13.6224 29.8756 11.8803 25.1772C10.5503 21.5902 8.17527 18.5569 5.01227 16.4052L4.19148 15.8469V2.16797C4.19148 1.7695 4.51566 1.44531 4.91413 1.44531H6.01669C6.88728 3.30167 7.3471 5.3551 7.3471 7.40506V9.32516C7.3471 9.72428 7.67071 10.0478 8.06976 10.0478C8.46881 10.0478 8.79241 9.72428 8.79241 9.32516V7.40506C8.79241 5.36767 8.38028 3.32718 7.59649 1.44531H15.2626C12.8925 4.77379 11.5883 9.15035 11.5883 13.7936C11.5883 18.5031 12.9293 22.9391 15.364 26.2847C17.8492 29.6994 21.1753 31.5799 24.7296 31.5799C25.1286 31.5799 25.4522 31.2564 25.4522 30.8573C25.4522 30.4582 25.1286 30.1346 24.7296 30.1346C21.6496 30.1346 18.7387 28.4653 16.5326 25.4342C11.8612 19.0155 11.8612 8.5715 16.5327 2.15279C16.7098 1.9094 16.8937 1.67259 17.0811 1.44524H32.0859C32.4843 1.44524 32.8085 1.76942 32.8085 2.1679V8.89604ZM32.8084 10.6849V16.8367C32.1474 17.4642 31.3154 17.8077 30.4379 17.8077C29.4745 17.8077 28.5651 17.3948 27.8774 16.6449C26.4189 15.0547 26.4189 12.467 27.8774 10.8767C28.5651 10.1269 29.4745 9.71395 30.4379 9.71395C31.3154 9.71402 32.1474 10.0574 32.8084 10.6849Z" fill="#D41F7E"/>
<path d="M25.3371 3.69863C25.2005 3.32364 24.7856 3.13026 24.4108 3.26684C22.9456 3.80045 21.5967 4.75219 20.5101 6.01908C20.2502 6.32201 20.2852 6.77823 20.5882 7.03809C20.7245 7.15502 20.8918 7.21218 21.0583 7.21218C21.2619 7.21218 21.4643 7.12662 21.6072 6.95998C22.5325 5.88112 23.6729 5.07363 24.9053 4.62493C25.2803 4.48835 25.4736 4.07361 25.3371 3.69863Z" fill="#D41F7E"/>
<path d="M28.4707 23.9891C28.448 23.5906 28.1091 23.2868 27.7078 23.309L27.6949 23.3097C27.2964 23.3326 26.992 23.6741 27.0149 24.0726C27.0369 24.4569 27.3555 24.7539 27.7357 24.7539C27.7496 24.7539 27.7637 24.7534 27.7778 24.7527L27.7907 24.7519C28.1892 24.7291 28.4936 24.3876 28.4707 23.9891Z" fill="#D41F7E"/>
<path d="M25.3314 23.0368C23.9301 22.6241 22.6424 21.7682 21.6075 20.5616C19.2599 17.8243 18.5521 13.7292 19.8043 10.1287C19.9353 9.75175 19.7361 9.33984 19.3591 9.20875C18.9816 9.07766 18.5703 9.27697 18.4392 9.65398C17.0212 13.7312 17.8343 18.382 20.5105 21.5026C21.7276 22.9217 23.2534 23.9316 24.9232 24.4233C24.9913 24.4434 25.06 24.453 25.1276 24.453C25.4399 24.453 25.7279 24.249 25.8205 23.9342C25.9332 23.5513 25.7142 23.1495 25.3314 23.0368Z" fill="#D41F7E"/>
</svg>
