<svg width="50" height="50" fill="none" xmlns="http://www.w3.org/2000/svg"><path d="M5.469 48.438h3.125c.432 0 .781-.35.781-.782v-5.468h18.75v5.468c0 .432.35.782.781.782h18.75c.432 0 .782-.35.782-.782V35.938a.781.781 0 00-.23-.553l-1.333-1.334V2.344a.781.781 0 00-.781-.781H5.469a3.91 3.91 0 00-3.907 3.906V44.53a3.91 3.91 0 003.907 3.907zm31.25-1.563v-7.813h3.125v7.813h-3.125zm10.156 0h-5.469v-8.594a.781.781 0 00-.781-.781h-4.688a.781.781 0 00-.78.781v8.594h-5.47V36.261l8.594-8.594 3.354 3.354a.78.78 0 001.334-.552v-2.344h2.343v6.25c0 .207.083.406.23.552l1.333 1.334v10.614zM5.469 3.125h39.843v23.438h-3.124a.781.781 0 00-.782.78v1.24l-2.572-2.573a.781.781 0 00-1.105 0l-9.375 9.375a.781.781 0 00-.229.553v4.687H9.375V8.594a.781.781 0 00-.781-.781H5.469a2.346 2.346 0 01-2.344-2.344 2.346 2.346 0 012.344-2.344zM3.125 8.592a3.886 3.886 0 002.344.783h2.343v37.5H5.47a2.346 2.346 0 01-2.344-2.344V8.591z" fill="#D41F7E"/><path d="M12.5 33.594h4.688a.78.78 0 00.78-.782 2.35 2.35 0 011.563-2.21v2.21c0 .432.35.782.782.782h5.468c.432 0 .782-.35.782-.782V22.657h15.625a.78.78 0 00.78-.781V6.25a.781.781 0 00-.78-.781H12.5a.781.781 0 00-.781.781v26.563c0 .43.35.78.781.78zm28.906-12.5h-9.375V19.53h2.344a.78.78 0 00.781-.781 3.913 3.913 0 00-3.125-3.828v-7.89h9.375v14.062zM21.875 7.03v7.813h-.781v1.562h1.562c.432 0 .782-.35.782-.781V7.031h7.03v8.594c0 .431.35.781.782.781 1.019 0 1.888.653 2.21 1.563h-2.21a.781.781 0 00-.781.781v2.344H25.78a.781.781 0 00-.781.781v10.156h-3.906v-2.343a.781.781 0 00-.782-.782 3.913 3.913 0 00-3.827 3.125H13.28V16.406h5.469v-1.562H13.28V7.03h8.594zM10.938 37.5H12.5v1.563h-1.563V37.5zm3.125 0h1.562v1.563h-1.563V37.5zm3.125 0h1.562v1.563h-1.563V37.5z" fill="#D41F7E"/></svg>