<svg width="16" height="52" fill="none" xmlns="http://www.w3.org/2000/svg"><path d="M7.293 51.707a1 1 0 001.414 0l6.364-6.364a1 1 0 00-1.414-1.414L8 49.586l-5.657-5.657A1 1 0 00.93 45.343l6.364 6.364zM7 0v.98h2V0H7zm0 2.942v1.962h2V2.942H7zm0 3.923v1.962h2V6.865H7zm0 3.924v1.961h2v-1.961H7zm0 3.922v1.962h2v-1.961H7zm0 3.924v1.961h2v-1.961H7zm0 3.923v1.961h2v-1.961H7zm0 3.923v1.961h2v-1.961H7zm0 3.923v1.961h2v-1.961H7zm0 3.923v1.962h2v-1.962H7zm0 3.923v1.962h2V38.25H7zm0 3.923v1.962h2v-1.962H7zm0 3.923v1.962h2v-1.962H7zm0 3.923V51h2v-.98H7z" fill="#D41F7E"/></svg>