<svg width="32" height="55" fill="none" xmlns="http://www.w3.org/2000/svg"><path d="M31.992 51.876a1 1 0 01-.868 1.116l-8.93 1.117a1 1 0 11-.248-1.985l7.938-.992-.993-7.938a1 1 0 111.985-.248l1.116 8.93zM1.995 10.949l.995-.1-.995.1zm17.911 32.423l-.613.789.613-.79zm10.48 9.417l-.693-.539 1.228-1.579.693.54-1.228 1.578zm-2.08-1.617l-1.387-1.079 1.228-1.579 1.387 1.079-1.228 1.578zm-2.773-2.157l-1.387-1.08 1.228-1.578 1.387 1.079-1.228 1.578zm-2.774-2.158l-1.387-1.078L22.6 44.2l1.387 1.079-1.228 1.578zM19.986 44.7l-.694-.539 1.228-1.579.694.54-1.228 1.578zm-.694-.539c-.256-.2-.51-.4-.761-.605l1.26-1.553c.24.195.484.388.73.58l-1.229 1.578zm-2.246-1.86a48.006 48.006 0 01-1.433-1.313l1.381-1.447c.449.429.907.848 1.373 1.26l-1.321 1.5zm-2.812-2.684c-.45-.466-.891-.942-1.321-1.425l1.493-1.33c.413.463.835.919 1.267 1.366l-1.439 1.39zm-2.585-2.903a47.833 47.833 0 01-1.202-1.528l1.597-1.205c.373.496.758.984 1.152 1.465l-1.546 1.268zm-2.341-3.103a47.991 47.991 0 01-1.075-1.62l1.689-1.072a46.12 46.12 0 001.03 1.553l-1.644 1.139zm-2.083-3.282a48.003 48.003 0 01-.94-1.702l1.77-.931c.29.55.59 1.093.9 1.63l-1.73 1.003zm-1.81-3.44a47.962 47.962 0 01-.8-1.772l1.84-.786c.244.572.5 1.138.766 1.699l-1.806.859zm-1.527-3.575a47.987 47.987 0 01-.653-1.831l1.897-.634c.197.59.406 1.174.626 1.755l-1.87.71zm-1.231-3.687a47.98 47.98 0 01-.503-1.878l1.942-.478c.148.604.309 1.203.482 1.8l-1.921.556zm-.93-3.775a48.022 48.022 0 01-.35-1.912l1.975-.32c.1.614.211 1.225.335 1.833l-1.96.399zm-.62-3.837A48 48 0 011 11.048l1.99-.199c.03.31.065.618.102.926l-1.986.24zM1 11.048L.875 9.805l1.99-.2.125 1.244-1.99.2zm-.373-3.73L.378 4.83l1.99-.199.249 2.487-1.99.2zM.129 2.342L.005 1.1l1.99-.2.124 1.244-1.99.2z" fill="#D41F7E"/></svg>