<svg width="32" height="55" fill="none" xmlns="http://www.w3.org/2000/svg"><path d="M.008 51.876a1 1 0 00.868 1.116l8.93 1.117a1 1 0 10.249-1.985l-7.939-.992.993-7.938a1 1 0 10-1.985-.248l-1.116 8.93zm29.997-40.927l-.995-.1.995.1zM12.094 43.372l.614.789-.614-.79zm-10.48 9.417l.693-.539-1.228-1.579-.693.54 1.228 1.578zm2.08-1.617l1.387-1.079-1.228-1.579-1.387 1.079 1.228 1.578zm2.773-2.157l1.387-1.08-1.228-1.578-1.387 1.079 1.228 1.578zm2.774-2.158l1.386-1.078L9.4 44.2l-1.387 1.08 1.228 1.578zm2.773-2.157l.694-.539-1.228-1.579-.694.54 1.228 1.578zm.694-.539c.256-.2.51-.4.761-.605l-1.26-1.553c-.24.195-.484.388-.73.58l1.229 1.578zm2.246-1.86a46.91 46.91 0 001.433-1.313l-1.381-1.447c-.449.429-.906.848-1.373 1.26l1.321 1.5zm2.812-2.684c.45-.466.891-.942 1.321-1.425l-1.493-1.33a46.64 46.64 0 01-1.267 1.366l1.439 1.39zm2.585-2.903c.41-.502.812-1.01 1.202-1.528l-1.597-1.205c-.373.496-.758.984-1.152 1.465l1.547 1.268zm2.341-3.103c.37-.533.728-1.073 1.075-1.62l-1.689-1.072a46.152 46.152 0 01-1.03 1.553l1.644 1.139zm2.083-3.282c.325-.561.638-1.128.94-1.702l-1.77-.931c-.29.55-.59 1.093-.9 1.63l1.73 1.003zm1.81-3.44c.278-.585.545-1.176.8-1.772l-1.84-.786c-.244.572-.5 1.138-.766 1.699l1.806.859zm1.526-3.575c.23-.606.448-1.216.654-1.831l-1.897-.634c-.197.59-.406 1.174-.626 1.755l1.87.71zm1.232-3.687c.18-.622.348-1.248.503-1.878l-1.942-.478a44.59 44.59 0 01-.482 1.8l1.921.556zm.93-3.775c.129-.634.245-1.271.35-1.912l-1.975-.32c-.1.614-.211 1.225-.335 1.833l1.96.399zm.62-3.837c.04-.322.075-.644.107-.967l-1.99-.199c-.03.31-.065.618-.102.926l1.986.24zm.107-.967l.125-1.243-1.99-.2-.125 1.244 1.99.2zm.373-3.73l.249-2.488-1.99-.199-.249 2.487 1.99.2zm.498-4.975l.124-1.244L30.005.9l-.124 1.244 1.99.2z" fill="#D41F7E"/></svg>