<svg width="56" height="56" fill="none" xmlns="http://www.w3.org/2000/svg"><path d="M49.875 8.75H17.5V2.625a.875.875 0 00-.875-.875h-10.5A4.38 4.38 0 001.75 6.125v40.25a4.38 4.38 0 004.375 4.375h39.462a4.375 4.375 0 008.663-.875v-36.75a4.38 4.38 0 00-4.375-4.375zM6.125 3.5h9.625v5.25H6.125a2.625 2.625 0 010-5.25zM52.5 49.875a2.625 2.625 0 01-5.25 0v-33.25a4.327 4.327 0 005.25-.021v33.271zM49.875 15.75a2.625 2.625 0 01-2.625-2.625.875.875 0 10-1.75 0V45.5H32.375v1.75H45.5V49H6.125A2.625 2.625 0 013.5 46.375V9.625c.756.57 1.678.877 2.625.875h43.75a2.625 2.625 0 010 5.25z" fill="#D41F7E"/><path d="M41.125 12.25H21a.875.875 0 00-.875.875A4.38 4.38 0 0115.75 17.5v-4.375a.875.875 0 00-.875-.875h-5.25a.875.875 0 00-.875.875v29.75a.875.875 0 00.875.875h31.5a.875.875 0 00.875-.875v-29.75a.875.875 0 00-.875-.875zM10.5 14H14v4.375a.875.875 0 00.875.875h.875A6.134 6.134 0 0021.813 14H24.5v12.25h-2.625v-2.625A.875.875 0 0021 22.75h-7a.875.875 0 00-.875.875v2.625H10.5V14zm9.625 10.5v1.75h-5.25V24.5h5.25zm-9.625 7H14v7h-3.5v-7zM40.25 42H10.5v-1.75h14.875a.875.875 0 00.875-.875v-8.75a.875.875 0 00-.875-.875H10.5V28h21a.875.875 0 00.875-.875 4.38 4.38 0 014.375-4.375v4.375a.875.875 0 00.875.875h2.625v14zm-24.5-3.5v-7h8.75v7h-8.75zm24.5-12.25H38.5v-4.375a.875.875 0 00-.875-.875h-.875a6.134 6.134 0 00-6.063 5.25H26.25v-7h14v7zm0-8.75h-14V14h14v3.5z" fill="#D41F7E"/><path d="M35.875 35a2.625 2.625 0 100 5.25 2.625 2.625 0 000-5.25zm0 3.5a.874.874 0 110-1.749.874.874 0 010 1.749zM29.75 35h1.75v5.25h-1.75V35zm3.5-3.5h5.25v1.75h-5.25V31.5zM7 36.75H5.25v9.625a.875.875 0 00.875.875h6.125V45.5H7v-8.75zm7 8.75h1.75v1.75H14V45.5z" fill="#D41F7E"/></svg>