<svg width="61" height="61" fill="none" xmlns="http://www.w3.org/2000/svg"><path d="M35.759 22.353a.813.813 0 001.024.523c.245-.08.496-.155.745-.225a.813.813 0 10-.434-1.567c-.272.075-.546.157-.813.244a.814.814 0 00-.522 1.025zm4.745-.268a.819.819 0 00.08-.005 20.1 20.1 0 01.776-.06.813.813 0 10-.09-1.623 18.3 18.3 0 00-.846.065.813.813 0 00.08 1.623zm12.218 1.69a.813.813 0 00.478 1.046l.762.284a.813.813 0 10.569-1.524l-.762-.284a.814.814 0 00-1.047.478zM37.45 14.616a.81.81 0 001.135-.189c.164-.23.325-.465.478-.7a.813.813 0 10-1.363-.888c-.14.215-.288.431-.438.642a.813.813 0 00.188 1.135zm-2.228 3.179a.81.81 0 00.544-.21c.21-.19.418-.385.618-.581a.813.813 0 10-1.141-1.16c-.183.18-.373.36-.566.534a.813.813 0 00.545 1.417zm-25.967-.049l.648.491a.812.812 0 001.14-.157.813.813 0 00-.156-1.139l-.649-.491a.813.813 0 10-.983 1.296zm3.12 1.269a.813.813 0 00.304 1.11c.247.14.498.276.747.403a.813.813 0 10.742-1.447 18.22 18.22 0 01-.684-.37.813.813 0 00-1.11.304zm-4.728-4.531l-.648-.492a.813.813 0 10-.983 1.296l.648.492a.81.81 0 001.14-.157.813.813 0 00-.157-1.14zM48.8 10.573c.45 0 .814-.364.814-.813V7.32a.813.813 0 00-1.627 0v2.44c0 .45.364.813.813.813zm0 1.627a.813.813 0 00-.813.814v2.44a.813.813 0 001.627 0v-2.44a.813.813 0 00-.814-.814zm-4.066 0h2.44a.813.813 0 000-1.627h-2.44a.813.813 0 000 1.627zm5.693 0h2.44a.813.813 0 000-1.627h-2.44a.813.813 0 000 1.627zM13.51 9.76a2.94 2.94 0 00-2.937-2.936A2.94 2.94 0 007.637 9.76a2.94 2.94 0 002.936 2.936A2.94 2.94 0 0013.51 9.76zm-4.246 0c0-.722.588-1.31 1.31-1.31.721 0 1.309.588 1.309 1.31 0 .722-.588 1.31-1.31 1.31-.721 0-1.31-.588-1.31-1.31zm.496 17.08a.813.813 0 100-1.627.813.813 0 000 1.627z" fill="#D41F7E"/><path d="M49.613 46.543v-23.06l.538.2a.812.812 0 001.046-.477.813.813 0 00-.477-1.046l-.762-.285a.809.809 0 00-.345-.047v-2.115a.814.814 0 00-1.213-.708l-2.873 1.623-.028-.008a19.964 19.964 0 00-.84-.118.814.814 0 00-.904.713.803.803 0 00.052.385l-9.605 5.428v-6.525a.813.813 0 00-.396-.698l-.562-.335a.81.81 0 00-1.048-1.216c-.161.101-.328.2-.494.297l-15.02-8.954a.813.813 0 00-1.229.698v36.11c-3.672.408-6.507 3.546-6.507 7.275 0 .45.364.813.814.813h44.733c.45 0 .813-.364.813-.813a7.327 7.327 0 00-5.693-7.137zm-34.16 1.505v4.819h-4.822a5.713 5.713 0 014.822-4.82zm1.627 4.819v-41.14l15.496 9.238v31.902H17.08zm17.123 0v-23.97l13.783-7.79v31.76H34.203zm15.41 0v-4.642a5.7 5.7 0 014.008 4.642h-4.008z" fill="#D41F7E"/><path d="M30.093 21.96H19.52a.813.813 0 00-.814.813v3.254c0 .449.365.813.814.813h10.573c.45 0 .814-.364.814-.813v-3.254a.813.813 0 00-.814-.813zm-.813 3.253h-8.947v-1.626h8.947v1.626zm.813 3.254H19.52a.813.813 0 00-.814.813v3.253c0 .45.365.814.814.814h10.573c.45 0 .814-.364.814-.814V29.28a.813.813 0 00-.814-.813zm-.813 3.253h-8.947v-1.627h8.947v1.627zm.813 3.253H19.52a.813.813 0 00-.814.813v3.254c0 .449.365.813.814.813h10.573c.45 0 .814-.364.814-.813v-3.254a.813.813 0 00-.814-.813zm-.813 3.254h-8.947V36.6h8.947v1.627zm.813 3.253H19.52a.813.813 0 00-.814.813v3.254c0 .449.365.813.814.813h10.573c.45 0 .814-.364.814-.813v-3.254a.813.813 0 00-.814-.813zm-.813 3.253h-8.947v-1.626h8.947v1.626zm15.453-13.848h-7.32a.813.813 0 00-.813.814v3.274c0 .45.364.814.813.814h7.32c.45 0 .814-.365.814-.814V31.7a.813.813 0 00-.814-.814zm-.813 3.275h-5.693v-1.648h5.693v1.648zm.813 3.232h-7.32a.813.813 0 00-.813.813v3.275c0 .449.364.813.813.813h7.32c.45 0 .814-.364.814-.813v-3.275a.813.813 0 00-.814-.813zm-.813 3.274h-5.693v-1.648h5.693v1.648zm.813 3.232h-7.32a.813.813 0 00-.813.814v3.274c0 .45.364.814.813.814h7.32c.45 0 .814-.364.814-.813v-3.275a.813.813 0 00-.814-.814zm-.813 3.275h-5.693v-1.648h5.693v1.648z" fill="#D41F7E"/></svg>