<svg width="35" height="32" fill="none" xmlns="http://www.w3.org/2000/svg"><path d="M9.73 15.134H7.566a1.013 1.013 0 100 2.027H9.73a1.013 1.013 0 000-2.027zm0 4.325H7.566a1.014 1.014 0 000 2.026H9.73a1.013 1.013 0 100-2.026zm0 4.324H7.566a1.014 1.014 0 000 2.027H9.73a1.013 1.013 0 000-2.027zm8.648-8.649h-2.162a1.013 1.013 0 100 2.027h2.162a1.014 1.014 0 000-2.027zm0 4.325h-2.162a1.014 1.014 0 000 2.026h2.162a1.013 1.013 0 100-2.026zm0 4.324h-2.162a1.014 1.014 0 000 2.027h2.162a1.014 1.014 0 000-2.027zm8.648-8.649h-2.162a1.013 1.013 0 100 2.027h2.162a1.014 1.014 0 000-2.027zm0 4.325h-2.162a1.013 1.013 0 100 2.026h2.162a1.013 1.013 0 100-2.026zm0 4.324h-2.162a1.013 1.013 0 100 2.027h2.162a1.014 1.014 0 000-2.027z" fill="#D41F7E"/><path d="M31.553 2.703H29.12v-1.69a1.013 1.013 0 10-2.027 0v1.69H18.31v-1.69a1.014 1.014 0 00-2.027 0v1.69H7.5v-1.69a1.013 1.013 0 00-2.027 0v1.69H3.04A3.044 3.044 0 000 5.743v22.431a3.044 3.044 0 003.04 3.04h28.513a3.044 3.044 0 003.04-3.04V5.743a3.044 3.044 0 00-3.04-3.04zM2.027 5.743c0-.559.455-1.013 1.013-1.013h2.433v1.689a1.014 1.014 0 002.027 0v-1.69h8.783v1.69a1.013 1.013 0 102.027 0v-1.69h8.783v1.69a1.014 1.014 0 002.027 0v-1.69h2.433c.558 0 1.013.455 1.013 1.014v3.986H2.026V5.743zm29.526 23.445H3.04a1.015 1.015 0 01-1.013-1.014V11.756h30.54v16.418c0 .56-.456 1.014-1.014 1.014z" fill="#D41F7E"/></svg>