<svg width="43" height="43" fill="none" xmlns="http://www.w3.org/2000/svg"><path d="M35.45 11.795a.955.955 0 00-.203-.306l-5.608-5.607a.934.934 0 10-1.322 1.321l4.013 4.014H12.152a.935.935 0 00-.935.935v7.478a.935.935 0 101.87 0v-6.543H32.33L28.317 17.1a.934.934 0 101.322 1.322l5.608-5.608a.936.936 0 00.203-1.019zm-4.602 10.64a.934.934 0 00-.935.935v6.543H10.67l4.013-4.013a.934.934 0 10-1.322-1.322l-5.608 5.608a.936.936 0 000 1.324l5.608 5.608a.932.932 0 001.322 0 .934.934 0 000-1.322l-4.013-4.013h20.178a.934.934 0 00.935-.935V23.37a.934.934 0 00-.935-.935z" fill="#D41F7E"/><path d="M38.326 0H4.674A4.68 4.68 0 000 4.674v33.652A4.68 4.68 0 004.674 43h33.652A4.68 4.68 0 0043 38.325V4.674A4.68 4.68 0 0038.326 0zm2.804 38.325a2.808 2.808 0 01-2.804 2.805H4.674a2.808 2.808 0 01-2.804-2.804V4.674A2.808 2.808 0 014.674 1.87h33.652a2.808 2.808 0 012.804 2.804v33.651z" fill="#D41F7E"/></svg>