<svg width="54" height="54" fill="none" xmlns="http://www.w3.org/2000/svg"><path d="M36.917 13.883H17.084a3.226 3.226 0 00-3.223 3.223v19.832a3.226 3.226 0 003.223 3.223h19.833a3.226 3.226 0 003.222-3.223V17.106a3.226 3.226 0 00-3.222-3.223zm1.735 23.055a1.738 1.738 0 01-1.735 1.736H17.084a1.737 1.737 0 01-1.735-1.736V17.106c0-.959.777-1.735 1.735-1.736h19.833a1.737 1.737 0 011.735 1.736v19.832z" fill="#D41F7E"/><path d="M39.396 10.164H14.605a4.467 4.467 0 00-4.462 4.462v24.791a4.467 4.467 0 004.462 4.462h24.79a4.467 4.467 0 004.463-4.462v-24.79a4.467 4.467 0 00-4.462-4.463zm2.975 29.253a2.979 2.979 0 01-2.975 2.975H14.605a2.978 2.978 0 01-2.975-2.975v-24.79a2.978 2.978 0 012.975-2.976h24.79a2.978 2.978 0 012.976 2.975v24.791zM29.68 46.315a.744.744 0 00-.744.744v6.197a.743.743 0 101.487 0V47.06a.744.744 0 00-.744-.744zm-5.36 0a.744.744 0 00-.743.744v6.197a.743.743 0 101.488 0V47.06a.744.744 0 00-.744-.744zm-5.358 0a.744.744 0 00-.744.744v6.197a.744.744 0 101.487 0V47.06a.744.744 0 00-.743-.744zm16.077 0a.744.744 0 00-.744.744v6.197a.743.743 0 101.487 0V47.06a.744.744 0 00-.743-.744zM25.065 6.941V.744a.744.744 0 00-1.488 0V6.94a.744.744 0 101.488 0zm5.358 0V.744a.744.744 0 00-1.487 0V6.94a.744.744 0 101.487 0zm5.359 0V.744a.744.744 0 00-1.487 0V6.94a.744.744 0 101.487 0zm-16.077 0V.744a.744.744 0 00-1.487 0V6.94a.744.744 0 001.487 0zm33.551 16.636h-6.198a.744.744 0 100 1.487h6.198a.744.744 0 100-1.487zm0 5.359h-6.198a.744.744 0 100 1.488h6.198a.744.744 0 100-1.488zm0 5.359h-6.198a.744.744 0 100 1.487h6.198a.744.744 0 100-1.487zm0-16.077h-6.198a.744.744 0 000 1.487h6.198a.744.744 0 100-1.487zM6.941 28.936H.744a.744.744 0 100 1.488H6.94a.744.744 0 000-1.488zm0-5.359H.744a.744.744 0 100 1.487H6.94a.744.744 0 000-1.487zm0-5.359H.744a.744.744 0 000 1.487H6.94a.744.744 0 000-1.487zm0 16.077H.744a.744.744 0 100 1.487H6.94a.744.744 0 000-1.487z" fill="#D41F7E"/><path d="M26.305 21.727c-.11-.328-.518-.491-.928-.491-.409 0-.804.163-.913.49l-2.714 8.836a.391.391 0 00-.013.123c0 .354.504.6.9.6.245 0 .436-.082.504-.3l.56-1.936h3.367l.559 1.936c.068.218.259.3.491.3.41 0 .914-.26.914-.6a.389.389 0 00-.028-.123l-2.7-8.835zm-2.291 6.163l1.363-4.677 1.364 4.677h-2.727zm6.817-6.572c-.354 0-.723.136-.723.463v9.027c0 .313.369.477.723.477.368 0 .723-.164.723-.477v-9.026c0-.328-.355-.464-.723-.464z" fill="#D41F7E"/></svg>