<svg width="36" height="36" fill="none" xmlns="http://www.w3.org/2000/svg"><g clip-path="url(#clip0)" fill="#D41F7E"><path d="M29.764 10.486A9.594 9.594 0 0012.091 7.8h-.09a7.816 7.816 0 00-7.667 6.403 6.6 6.6 0 002.267 12.8h4.2v-1.2h-4.2a5.4 5.4 0 01-1.56-10.57.6.6 0 00.42-.498 6.611 6.611 0 016.54-5.734c.092 0 .181.006.271.012l.128.008a.607.607 0 00.565-.32 8.395 8.395 0 0115.696 2.386.6.6 0 00.463.48 7.2 7.2 0 01-1.52 14.236h-2.4v1.2h2.4a8.401 8.401 0 002.16-16.518z"/><path d="M21.179 25.98l-2.576 2.576V15.002h-1.2v13.554l-2.576-2.576-.849.848 3.6 3.6a.6.6 0 00.849 0l3.6-3.6-.848-.848zm1.624 5.224v.6h-9.6v-.6h-1.201v1.2a.6.6 0 00.6.6h10.801a.6.6 0 00.6-.6v-1.2h-1.2z"/></g><defs><clipPath id="clip0"><path fill="#fff" d="M0 0h36v36H0z"/></clipPath></defs></svg>