<svg width="37" height="37" fill="none" xmlns="http://www.w3.org/2000/svg"><g clip-path="url(#clip0)" fill="#D41F7E"><path d="M36.742 13.292L32.608 2.544A3.943 3.943 0 0027.423.32L6.765 8.882a3.924 3.924 0 00-2.18 5.021l.568 1.516H3.85A3.855 3.855 0 000 19.27v13.862a3.855 3.855 0 003.85 3.85h26.182a3.855 3.855 0 003.85-3.85V19.27a3.787 3.787 0 00-.055-.624l.716-.29a3.957 3.957 0 002.199-5.064zM3.85 16.652h26.182a2.615 2.615 0 012.603 2.464H1.248a2.614 2.614 0 012.602-2.464zm6.192-3.711l4.118-2.06.846 2.117-4.117 2.06-.847-2.117zm22.609 20.19a2.621 2.621 0 01-2.619 2.618H3.85a2.621 2.621 0 01-2.618-2.618v-7.855h31.419v7.855zm0-9.087H1.232v-3.696h31.419v3.696zm1.43-6.826l-.644.261a3.852 3.852 0 00-3.404-2.06H12.92l3.145-1.572a.616.616 0 00.297-.78l-1.307-3.265a.616.616 0 00-.848-.322l-5.223 2.613a.616.616 0 00-.296.78l1.019 2.547H6.469l-.73-1.946a2.697 2.697 0 011.498-3.45l20.657-8.563a2.707 2.707 0 013.563 1.529l4.134 10.747a2.72 2.72 0 01-1.51 3.481z"/><path d="M22.16 34.017a3.697 3.697 0 003.714 0 3.696 3.696 0 100-6.392 3.696 3.696 0 00-3.714 6.392zm4.744-5.51c.262-.097.539-.147.818-.15a2.464 2.464 0 010 4.928 2.439 2.439 0 01-.818-.15 3.682 3.682 0 000-4.628zm-1.03.701a2.42 2.42 0 010 3.226 2.419 2.419 0 010-3.226zm-1.848-.851c.28.003.556.053.818.15a3.682 3.682 0 000 4.628 2.438 2.438 0 01-.818.15 2.464 2.464 0 010-4.928zm1.96-15.625l.5 1.126 5.878-2.612-.5-1.126-5.878 2.613zm4.566-5.22l-8.489 3.918.516 1.118 8.49-3.918-.517-1.118z"/></g><defs><clipPath id="clip0"><path fill="#fff" d="M0 0h37v37H0z"/></clipPath></defs></svg>