<svg width="47" height="41" fill="none" xmlns="http://www.w3.org/2000/svg"><g clip-path="url(#clip0)" fill="#D41F7E"><path d="M37.494 20.122c.551 0 1-.45 1-1.006 0-.555-.449-1.006-1-1.006-.552 0-1 .45-1 1.006 0 .555.448 1.006 1 1.006z"/><path d="M.51 22.134c0 2.22 1.794 4.025 3.998 4.025h7.462c-1.155 2.978-1.622 6.484-1.532 9.605.017.595.04.94.07 1.156.052 2.174 1.826 3.928 3.996 3.928 2.205 0 3.998-1.805 3.998-4.024v-1.006c0-6.364 8.118-9.939 14.245-11.472a3.002 3.002 0 002.748 1.813h9.996c.552 0 1-.45 1-1.006V1.006c0-.555-.448-1.006-1-1.006h-9.996c-1.22 0-2.27.737-2.739 1.792-.507-.131-.978-.255-1.413-.37C27.853.506 25.931 0 21.255 0h-10.75C8.302 0 6.509 1.805 6.509 4.025c0 .827.25 1.597.676 2.237a4.024 4.024 0 00-2.676 3.8c0 .824.244 1.596.67 2.239a4.024 4.024 0 00-2.669 3.797c0 .827.25 1.597.677 2.237a4.024 4.024 0 00-2.676 3.8zM34.495 3.018c0-.554.449-1.006 1-1.006h8.996v22.135h-8.996c-.551 0-1-.452-1-1.006V3.018zM4.508 20.122h4.998c.552 0 1-.45 1-1.006 0-.555-.448-1.006-1-1.006H6.508c-1.103 0-2-.903-2-2.012 0-1.111.895-2.012 2-2.012h4.997c.552 0 1-.45 1-1.007 0-.555-.448-1.006-1-1.006H8.507a2 2 0 01-2-2.012c0-1.111.896-2.012 2-2.012h4.998c.551 0 1-.45 1-1.006s-.449-1.006-1-1.006h-3a2.008 2.008 0 01-1.998-2.012c0-1.11.897-2.013 1.999-2.013h10.75c4.418 0 6.144.454 9.582 1.358.504.132 1.056.277 1.658.432v18.531c-7.233 1.735-15.993 5.968-15.993 13.485v1.006c0 1.11-.897 2.012-1.999 2.012a2.01 2.01 0 01-1.999-2.01v-.002c0-.438-.542-5.804 1.632-10.665h3.366c.552 0 1-.45 1-1.006s-.448-1.006-1-1.006H4.508a2.008 2.008 0 01-1.999-2.012c0-1.112.895-2.013 2-2.013z"/><path d="M37.494 16.098c.552 0 1-.45 1-1.006v-8.05c0-.555-.448-1.005-1-1.005s-1 .45-1 1.006v8.048c0 .556.448 1.007 1 1.007z"/></g><defs><clipPath id="clip0"><path fill="#fff" transform="rotate(-180 23.5 20.5)" d="M0 0h47v41H0z"/></clipPath></defs></svg>