<svg width="54" height="54" fill="none" xmlns="http://www.w3.org/2000/svg"><path d="M51.469 42.187H49.78v-3.375h-1.687v3.375H5.906v-5.485a1.267 1.267 0 011.266-1.265h6.984l12.487 5.827a.843.843 0 00.714 0l12.486-5.827h6.985a1.267 1.267 0 011.266 1.265v.422h1.687v-.422a2.957 2.957 0 00-2.531-2.923v-5.737a2.531 2.531 0 10-3.574-3.574H32.261a2.53 2.53 0 00-4.42 1.756 2.533 2.533 0 00.846 1.817v5.708h-3.375v-5.708a2.531 2.531 0 10-3.573-3.573H10.324a2.53 2.53 0 00-4.421 1.756 2.532 2.532 0 00.847 1.817v5.738a2.958 2.958 0 00-2.531 2.923v5.485H2.53a.844.844 0 00-.844.843v3.375a.844.844 0 00.844.844h2.01l1.454 2.909a.844.844 0 00.755.466h3.375a.845.845 0 00.755-.466l1.454-2.909h29.332l1.454 2.909a.844.844 0 00.755.466h3.375a.845.845 0 00.755-.466l1.454-2.909h2.01a.844.844 0 00.843-.844V43.03a.844.844 0 00-.843-.843zm-32.063-8.438h-6.75v-4.008a.211.211 0 01.211-.21h6.328a.211.211 0 01.211.21v4.008zM27 39.568l-8.853-4.131h17.706L27 39.568zm7.594-5.819v-4.008a.211.211 0 01.21-.21h6.329a.211.211 0 01.21.21v4.008h-6.75zm-4.64-6.862a.844.844 0 111.152-1.153.844.844 0 00.73.421h12.265a.844.844 0 00.73-.42.842.842 0 011.567.531.844.844 0 01-.414.62.844.844 0 00-.422.731v6.132h-2.53v-4.008a1.9 1.9 0 00-1.9-1.898h-6.327a1.9 1.9 0 00-1.899 1.898v4.008h-2.531v-6.132a.843.843 0 00-.421-.73zM8.437 25.312a.847.847 0 01.732.422.844.844 0 00.73.421h12.264a.844.844 0 00.73-.42.843.843 0 111.153 1.152.844.844 0 00-.421.73v6.132h-2.531v-4.008a1.9 1.9 0 00-1.899-1.898h-6.328a1.9 1.9 0 00-1.898 1.898v4.008H8.438v-6.132a.844.844 0 00-.422-.73.844.844 0 01.421-1.575zm1.167 23.625H7.27l-.843-1.688h4.02l-.844 1.688zm37.125 0h-2.333l-.843-1.688h4.02l-.844 1.688zm3.896-3.375H3.375v-1.688h47.25v1.688z" fill="#D41F7E"/><path d="M17.719 30.375h-3.375v1.688h3.375v-1.688zm21.937 0h-3.375v1.688h3.375v-1.688zm11.813-27H2.53a.844.844 0 00-.844.844v4.218h1.688V5.063h13.5v6.75h-9.28a.844.844 0 00-.844.843v5.906H3.375v-8.437H1.687v9.281a.844.844 0 00.844.844H51.47a.844.844 0 00.843-.844V4.22a.844.844 0 00-.843-.844zM8.437 13.5h9.282a.844.844 0 00.843-.844V5.062h16.875v7.594a.844.844 0 00.844.844h9.282v5.063H8.437V13.5zm42.188 5.063H47.25v-5.907a.844.844 0 00-.844-.844h-9.281v-6.75h13.5v13.5z" fill="#D41F7E"/><path d="M6.75 6.75H5.062v1.688H6.75V6.75zm42.188 0H47.25v1.688h1.688V6.75zM27 6.75a5.062 5.062 0 100 10.125A5.062 5.062 0 0027 6.75zm0 8.438a3.376 3.376 0 110-6.752 3.376 3.376 0 010 6.752z" fill="#D41F7E"/></svg>