<svg width="50" height="50" fill="none" xmlns="http://www.w3.org/2000/svg"><g clip-path="url(#clip0)" fill="#D41F7E"><path d="M47.5 15.834H24.167a2.503 2.503 0 00-2.5 2.5V47.5a2.503 2.503 0 002.5 2.5H47.5a2.503 2.503 0 002.5-2.5V18.334a2.503 2.503 0 00-2.5-2.5zm.834 31.666c0 .46-.373.833-.834.834H24.167a.834.834 0 01-.833-.834V18.334c0-.46.373-.833.833-.834H47.5c.46 0 .833.373.834.834V47.5z"/><path d="M44.167 19.166H27.5a2.503 2.503 0 00-2.5 2.5v2.5a2.503 2.503 0 002.5 2.5h16.667a2.503 2.503 0 002.5-2.5v-2.5a2.503 2.503 0 00-2.5-2.5zm.833 5c0 .46-.373.833-.833.834H27.5a.834.834 0 01-.833-.834v-2.5c0-.46.373-.832.833-.833h16.667c.46 0 .833.373.833.834v2.5zm-15 4.168h-1.666A1.669 1.669 0 0026.667 30v1.667c.001.92.747 1.665 1.667 1.666H30a1.669 1.669 0 001.667-1.666V30A1.669 1.669 0 0030 28.334zm-1.666 3.333V30H30l.001 1.667h-1.667zm8.332-3.333H35A1.669 1.669 0 0033.333 30v1.667c.001.92.747 1.665 1.667 1.666h1.666a1.669 1.669 0 001.667-1.666V30a1.669 1.669 0 00-1.667-1.666zM35 31.666V30h1.666l.001 1.667H35zm8.333-3.332h-1.666A1.669 1.669 0 0040 30v1.667c.001.92.747 1.665 1.667 1.666h1.666A1.669 1.669 0 0045 31.668V30a1.669 1.669 0 00-1.667-1.666zm-1.666 3.333V30h1.666l.001 1.667h-1.667zM30 35h-1.666a1.669 1.669 0 00-1.667 1.667v1.666A1.67 1.67 0 0028.334 40H30a1.669 1.669 0 001.667-1.667v-1.666A1.669 1.669 0 0030 35zm-1.666 3.333v-1.666H30l.001 1.666h-1.667zM36.666 35H35a1.669 1.669 0 00-1.667 1.667v1.666C33.334 39.253 34.08 40 35 40h1.666a1.669 1.669 0 001.667-1.667v-1.666A1.669 1.669 0 0036.666 35zM35 38.333v-1.666h1.666l.001 1.666H35zM43.333 35h-1.666A1.669 1.669 0 0040 36.667v1.666A1.67 1.67 0 0041.667 40h1.666A1.669 1.669 0 0045 38.333v-1.666A1.669 1.669 0 0043.333 35zm-1.666 3.333v-1.666h1.666l.001 1.666h-1.667zM30 41.666h-1.666a1.669 1.669 0 00-1.667 1.667V45c.001.92.747 1.665 1.667 1.666H30A1.669 1.669 0 0031.667 45v-1.667A1.669 1.669 0 0030 41.667zM28.334 45v-1.667H30L30.001 45h-1.667zm8.332-3.334H35a1.669 1.669 0 00-1.667 1.667V45c.001.92.747 1.665 1.667 1.666h1.666A1.669 1.669 0 0038.333 45v-1.667a1.669 1.669 0 00-1.667-1.666zM35 45v-1.667h1.666L36.667 45H35zm8.333-3.334h-1.666A1.669 1.669 0 0040 43.334V45c.001.92.747 1.665 1.667 1.666h1.666A1.669 1.669 0 0045 45v-1.667a1.669 1.669 0 00-1.667-1.666zM41.667 45v-1.667h1.666L43.334 45h-1.667z"/><path d="M1.667 45.834V11.667h7.5a2.503 2.503 0 002.5-2.5v-7.5H32.5c.46 0 .833.373.833.833v11.667H35V2.5A2.503 2.503 0 0032.5 0H11.523a2.484 2.484 0 00-1.767.732L.732 9.756A2.485 2.485 0 000 11.524v34.31a2.503 2.503 0 002.5 2.5H20v-1.667H2.5a.834.834 0 01-.833-.833zM10 2.845v6.322c0 .46-.373.833-.833.833H2.845L10 2.845z"/><path d="M18.333 20.833a6.666 6.666 0 10-6.666 6.667 6.674 6.674 0 006.666-6.667zm-7.5-4.925v3.258c0 .46-.373.833-.833.834H6.742a5.004 5.004 0 014.091-4.092zm.834 9.925a5.004 5.004 0 01-4.925-4.166H10a2.503 2.503 0 002.5-2.5v-3.259a4.997 4.997 0 01-.833 9.925zm6.25-16.667c.69 0 1.25-.56 1.25-1.25v-2.5c0-.69-.56-1.249-1.25-1.25h-2.5c-.69.001-1.25.56-1.25 1.25v2.5c0 .69.56 1.25 1.25 1.25h2.5zm-2.083-3.333H17.5V7.5h-1.666V5.833zm4.999-1.666H22.5v1.666h-1.667V4.166zm3.334 0h7.5v1.666h-7.5V4.166zM20.833 7.5H22.5v1.667h-1.667V7.5zm3.334 0h7.5v1.667h-7.5V7.5zm-10 3.334h1.667V12.5h-1.667v-1.666zm3.333 0h10.833V12.5H17.5v-1.666zm12.5 0h1.667V12.5H30v-1.666zM18.75 29.166h-2.5c-.69.001-1.25.56-1.25 1.25v2.5c0 .69.56 1.25 1.25 1.25h2.5c.69 0 1.25-.56 1.25-1.25v-2.5c0-.69-.56-1.249-1.25-1.25zm-.417 3.334h-1.666v-1.667h1.666V32.5zm-6.666-3.334h1.667v1.667h-1.667v-1.666zm-8.334 0H10v1.667H3.333v-1.666zm8.334 3.334h1.667v1.667h-1.667V32.5zm-8.334 0H10v1.667H3.333V32.5zm0 10.416c0 .69.56 1.25 1.25 1.25h2.5c.69 0 1.25-.56 1.25-1.25v-2.5c0-.69-.56-1.249-1.25-1.25h-2.5c-.69.001-1.25.56-1.25 1.25v2.5zM5 40.834h1.666V42.5H5v-1.667zm5-1.668h1.667v1.667H10v-1.666zm3.333 0H20v1.667h-6.667v-1.666zM10 42.5h1.667v1.667H10V42.5zm3.333 0H20v1.667h-6.667V42.5zm5-6.666H20V37.5h-1.667v-1.666zm-11.666 0h10V37.5h-10v-1.666zm-3.334 0H5V37.5H3.333v-1.666z"/></g><defs><clipPath id="clip0"><path fill="#fff" d="M0 0h50v50H0z"/></clipPath></defs></svg>