<svg width="58" height="58" fill="none" xmlns="http://www.w3.org/2000/svg"><path d="M39.96 33.019H10.056L35.95 16.555a.679.679 0 00.209-.938l-2.566-4.035a4.11 4.11 0 00-5.668-1.262l-3.643 2.317.288-1.381a3.887 3.887 0 10-7.588-1.69l-1.893 8.502-6.338-1.41a3.887 3.887 0 00-2.379 7.366L2.47 26.506a4.11 4.11 0 00-1.262 5.667l2.565 4.035a.679.679 0 00.938.21L7.1 34.9v17.206a4.11 4.11 0 004.106 4.105h25.328a4.11 4.11 0 004.106-4.105V33.699a.68.68 0 00-.68-.68zM28.655 11.467a2.728 2.728 0 012.07-.363 2.73 2.73 0 011.721 1.207l2.2 3.462-10.704 6.806-3.675-5.779 8.388-5.333zM18.31 9.862a2.528 2.528 0 114.933 1.107l-.558 2.67-6.08 3.88 1.705-7.657zm.811 7.668l3.674 5.779-6.203 3.944-3.674-5.78 6.203-3.943zM5.774 21.808a2.527 2.527 0 012.682-3.824l5.493 1.223-6.097 3.822-.494-.11a2.512 2.512 0 01-1.584-1.11zM4.556 34.906l-2.201-3.462a2.75 2.75 0 01.844-3.791l8.572-5.45 3.674 5.78-10.89 6.923zm13.18 19.946h-6.53a2.75 2.75 0 01-2.747-2.746V34.378h9.278v20.474zm8.64 0h-7.28V34.378h7.28v20.474zm12.903-2.746a2.749 2.749 0 01-2.746 2.746h-8.798V34.378h11.544v17.728zm8.279-25.262l.325-1.896a.68.68 0 00-.985-.716l-1.703.895-1.702-.895a.68.68 0 00-.986.716l.325 1.896-1.378 1.343a.679.679 0 00.377 1.159l1.903.277.851 1.724a.68.68 0 001.22 0l.85-1.724 1.904-.277a.68.68 0 00.376-1.16l-1.377-1.342zm-1.452 1.484a.679.679 0 00-.511.372l-.4.81-.4-.81a.68.68 0 00-.512-.372l-.894-.13.647-.63a.68.68 0 00.196-.602l-.153-.89.8.42a.679.679 0 00.632 0l.8-.42-.153.89a.68.68 0 00.196.602l.647.63-.895.13zm9.27-10.848l-1.869-.455-.685-1.797a.68.68 0 00-1.214-.114l-1.01 1.637-1.92.096a.68.68 0 00-.484 1.12l1.245 1.465-.502 1.857a.68.68 0 00.915.806l1.778-.731 1.612 1.05a.68.68 0 001.05-.62l-.146-1.918 1.496-1.207a.68.68 0 00-.266-1.19zm-2.362 1.563a.68.68 0 00-.251.58l.068.901-.757-.494a.68.68 0 00-.63-.059l-.835.343.235-.872a.681.681 0 00-.138-.617l-.585-.689.903-.045a.68.68 0 00.544-.322l.474-.769.322.844a.681.681 0 00.475.418l.878.214-.703.567zM45.38 6.43l-.5 1.857a.68.68 0 00.914.806l1.778-.731 1.611 1.05a.68.68 0 001.05-.62l-.146-1.918 1.497-1.207a.68.68 0 00-.266-1.19l-1.87-.454-.685-1.797a.68.68 0 00-1.213-.114l-1.01 1.637-1.92.096a.68.68 0 00-.485 1.12l1.246 1.465zm1.586-1.342a.68.68 0 00.544-.322l.474-.769.322.844a.68.68 0 00.475.419l.878.213-.703.567a.68.68 0 00-.252.58l.068.902-.756-.494a.68.68 0 00-.63-.06l-.836.344.236-.872a.68.68 0 00-.138-.618l-.585-.688.903-.046z" fill="#D41F7E"/><path d="M33.049 26.942c-1.534.966-2.284 2.136-2.315 2.186a.68.68 0 001.148.728c.102-.159 2.56-3.876 7.913-2.552a.68.68 0 00.327-1.32c-3.293-.815-5.664.071-7.073.958zm12.898-7.198a.68.68 0 00.522-1.256c-4.84-2.008-8.356-.504-10.454 1.111a12.742 12.742 0 00-3.383 3.993.68.68 0 001.217.605 11.463 11.463 0 012.995-3.52c2.638-2.031 5.701-2.345 9.103-.933zm-7.637-5.035a.68.68 0 00.437.856c.936.276 1.906.416 2.882.416 1.136 0 2.449-.205 3.626-.903 1.54-.912 2.529-2.468 2.938-4.622a.681.681 0 00-.806-.794.679.679 0 00-.53.54c-.332 1.752-1.103 2.998-2.289 3.704-2.257 1.343-5.354.381-5.404.366a.68.68 0 00-.855.437zM29.326 32.27a1.224 1.224 0 100-2.448 1.224 1.224 0 000 2.448zm0-1.359a.135.135 0 110 .27.135.135 0 010-.27zm9.63-20.844a1.224 1.224 0 100-2.447 1.224 1.224 0 000 2.447zm0-1.359a.136.136 0 110 .271.136.136 0 010-.271zm17.254.426a1.224 1.224 0 100 2.448 1.224 1.224 0 000-2.448zm0 1.36a.135.135 0 01-.096-.231.134.134 0 01.208.02.135.135 0 01-.113.21zM28.824 25.378a1.224 1.224 0 10-2.448 0 1.224 1.224 0 002.448 0zm-1.223.136a.135.135 0 11.095-.04.136.136 0 01-.096.04zm26.593.632a1.224 1.224 0 100 2.448 1.224 1.224 0 000-2.448zm0 1.36a.136.136 0 01-.133-.162.135.135 0 01.107-.106.136.136 0 01.161.133.136.136 0 01-.135.135z" fill="#D41F7E"/></svg>