<svg width="44" height="44" fill="none" xmlns="http://www.w3.org/2000/svg"><path d="M33.688 24.063a.687.687 0 00.687-.688V22A.687.687 0 1033 22v1.375a.687.687 0 00.688.688zm0 4.125a.687.687 0 00-.688.687v1.375a.687.687 0 101.375 0v-1.375a.687.687 0 00-.688-.688z" fill="#D41F7E"/><path d="M31.424 40.361c.277.133.58.202.889.202h8.25a2.064 2.064 0 002.062-2.063V20.625a2.064 2.064 0 00-2.063-2.063h-8.25a2.064 2.064 0 00-2.062 2.063v3.438h-1.375v-1.375a.687.687 0 00-.688-.688h-4.125a.687.687 0 00-.687.688v1.375H22v-1.375a.687.687 0 00-.202-.487 2.05 2.05 0 00.202-.889h1.375a.687.687 0 100-1.375H22a.687.687 0 00-.688-.687h-4.125a.687.687 0 00-.687.688v1.373c0 .308.069.612.202.89a.685.685 0 00-.202.486v1.375h-3.438v-1.375h.688a.687.687 0 100-1.375h-.688v-.687a2.062 2.062 0 00-4.124 0V22a.687.687 0 001.374 0v-1.375a.687.687 0 111.376 0v3.438h-5.5v-1.375a2.063 2.063 0 00-4.125 0v1.375a.687.687 0 00-.688.687v15.125a.687.687 0 00.688.688h28.875a.686.686 0 00.486-.202zm9.139-1.173h-8.25a.688.688 0 01-.688-.688V26.812h9.625V38.5a.688.688 0 01-.688.688zm-8.938-18.563a.688.688 0 01.688-.688h8.25a.688.688 0 01.687.688v4.813h-9.625v-4.813zM27.5 25.438v2.75h-9.625v-2.75H27.5zm-9.625 4.125H27.5v6.875h-9.625v-6.876zm6.875-6.188h2.75v.688h-2.75v-.688zm-6.875.688v-.688h2.75v.688h-2.75zm0-3.438h2.75v.686a.69.69 0 01-.689.689h-1.372a.69.69 0 01-.689-.689v-.686zM3.437 22.688a.687.687 0 011.376 0v1.375H3.438v-1.375zm26.813 16.5H2.75v-13.75H16.5v11.687a.687.687 0 00.688.688h11a.687.687 0 00.687-.688V25.437h1.375v13.75z" fill="#D41F7E"/><path d="M24.063 30.938h-2.75a.687.687 0 100 1.375h2.75a.687.687 0 100-1.376zm-9.625 1.375H4.812a.687.687 0 00-.687.687v4.125a.687.687 0 00.688.688h9.625a.687.687 0 00.687-.688V33a.687.687 0 00-.688-.688zm-.688 4.124H5.5v-2.75h8.25v2.75zm.688-9.624H4.812a.687.687 0 00-.687.687v2.75a.687.687 0 00.688.688h9.625a.687.687 0 00.687-.688V27.5a.687.687 0 00-.688-.688zm-.688 2.75H5.5v-1.375h8.25v1.375zM27.5 8.938a.687.687 0 00.688-.688V6.875a.687.687 0 10-1.375 0V8.25a.687.687 0 00.687.688zm8.25 0a.687.687 0 00.688-.688V6.875a.687.687 0 10-1.376 0V8.25a.687.687 0 00.688.688z" fill="#D41F7E"/><path d="M2.063 7.563H8.25v2.75h-.688a.688.688 0 00-.614.38l-2.063 4.125a.687.687 0 00.615.995h6.875a.688.688 0 00.615-.995l-2.063-4.125a.687.687 0 00-.614-.38h-.688v-2.75h8.938v2.75h-.688a.688.688 0 00-.615.38l-2.062 4.125a.688.688 0 00.614.995h6.876a.688.688 0 00.614-.995l-2.062-4.125a.687.687 0 00-.615-.38h-.688v-2.75h4.813v5.5a.687.687 0 00.688.687h16.5a.687.687 0 00.687-.688V4.126a.687.687 0 00-.688-.688H2.063a.688.688 0 00-.688.688v2.75a.688.688 0 00.688.688zm9.2 6.875h-4.65l1.374-2.75h1.9l1.376 2.75zm10.312 0h-4.65l1.375-2.75h1.9l1.375 2.75zm4.55-9.626h6.188v5.5h-6.188v-5.5zm15.125 7.563H26.125v-.688H41.25v.688zm0-2.063h-7.563v-5.5h7.563v5.5zm-38.5-5.5h22v1.375h-22V4.813zM19.938 27.5a.687.687 0 100-1.375.687.687 0 000 1.375zm2.75 0a.687.687 0 100-1.375.687.687 0 000 1.375zm2.75 0a.687.687 0 100-1.375.687.687 0 000 1.375z" fill="#D41F7E"/></svg>