<svg width="56" height="56" fill="none" xmlns="http://www.w3.org/2000/svg"><path d="M55.183 41.022h-1.639V12.159a3.361 3.361 0 00-3.357-3.357H5.813a3.361 3.361 0 00-3.357 3.357v28.863H.817a.817.817 0 00-.817.817v.978a4.386 4.386 0 004.38 4.38h35.875a.817.817 0 100-1.633H4.38a2.75 2.75 0 01-2.747-2.747v-.161h19.504v1.454c0 .451.365.817.817.817h12.09a.817.817 0 00.817-.817v-1.454h19.504v.161a2.75 2.75 0 01-2.747 2.747h-5.59a.817.817 0 000 1.634h5.59A4.386 4.386 0 0056 42.817v-.978a.817.817 0 00-.817-.817zm-21.955 2.27H22.772v-.636h10.456v.637zm18.682-2.34H4.09V12.16c0-.95.773-1.723 1.723-1.723h44.374c.95 0 1.723.773 1.723 1.723v28.794z" fill="#D41F7E"/><path d="M48.158 11.989H7.841a2.42 2.42 0 00-2.416 2.416v8.693a.817.817 0 101.634 0v-8.693c0-.431.35-.782.782-.782h40.317c.432 0 .782.35.782.782v23.462H7.06V28.98a.817.817 0 10-1.634 0v9.704c0 .451.366.817.817.817h43.516a.817.817 0 00.817-.817V14.405a2.42 2.42 0 00-2.417-2.416z" fill="#D41F7E"/></svg>