<svg width="38" height="38" fill="none" xmlns="http://www.w3.org/2000/svg"><path d="M25.68 0a.742.742 0 00-.742.742v3.414a.742.742 0 001.484 0V.742A.742.742 0 0025.68 0zM8.61 23.156a.743.743 0 100 1.485.743.743 0 000-1.485z" fill="#D41F7E"/><path d="M36.07 21.672a2.972 2.972 0 00-2.968-2.969H27.56c.858-2.197 1.205-4.783 1.138-7.085a8.46 8.46 0 00-.052-.853 2.973 2.973 0 00-2.967-2.898 2.972 2.972 0 00-2.97 2.969v.742c0 4.694-6.027 7.332-10.576 8.463a2.23 2.23 0 00-2.04-1.338H2.672a.742.742 0 00-.742.742v17.813c0 .41.332.742.742.742h7.422a2.23 2.23 0 002.033-1.322l1.05.273c2.59.676 4.018 1.049 7.49 1.049h7.981a2.972 2.972 0 002.97-2.969 2.95 2.95 0 00-.503-1.65 2.97 2.97 0 001.987-2.803 2.97 2.97 0 00-.497-1.652 2.97 2.97 0 001.479-4.451 2.97 2.97 0 001.986-2.803zM10.836 35.773c0 .41-.333.743-.742.743h-6.68V20.188h6.68c.409 0 .742.332.742.742v14.843zm22.266-12.617H29.39a.742.742 0 000 1.485h2.226a1.484 1.484 0 110 2.969h-3.71a.742.742 0 000 1.484h2.226a1.484 1.484 0 010 2.969h-3.711a.742.742 0 000 1.484h2.226c.819 0 1.485.666 1.485 1.484 0 .819-.666 1.485-1.485 1.485h-7.981c-3.281 0-4.563-.335-7.115-1.002-.374-.097-.785-.205-1.232-.319v-13.67c5.371-1.28 11.875-4.402 11.875-9.947v-.742a1.486 1.486 0 012.969-.002v.002c0 .322.403 4.281-1.212 7.867h-2.499a.742.742 0 000 1.485h9.649a1.484 1.484 0 010 2.969z" fill="#D41F7E"/><path d="M8.61 26.125a.742.742 0 00-.743.742v5.938a.742.742 0 001.485 0v-5.938a.742.742 0 00-.743-.742zM19.742 9.352h-2.969a.742.742 0 000 1.484h2.97a.742.742 0 000-1.484zm14.844 0h-2.969a.742.742 0 000 1.484h2.969a.742.742 0 100-1.484zm-2.084-6.08a.742.742 0 00-1.05 0L29.353 5.37a.742.742 0 001.05 1.05l2.099-2.099c.29-.29.29-.76 0-1.05zM22.006 5.37l-2.1-2.098a.742.742 0 00-1.049 1.05l2.099 2.098a.742.742 0 001.05-1.05z" fill="#D41F7E"/></svg>