<svg width="50" height="50" fill="none" xmlns="http://www.w3.org/2000/svg"><path d="M1.97 20.885l1.62.886.886 1.62a.781.781 0 001.37 0l.887-1.62 1.62-.886a.782.782 0 000-1.37l-1.62-.887-.887-1.62a.781.781 0 00-1.37 0l-.886 1.62-1.62.886a.782.782 0 000 1.371zm2.57-.996a.78.78 0 00.31-.31l.311-.568.31.568a.78.78 0 00.311.31l.568.31-.568.311a.78.78 0 00-.31.31l-.31.568-.311-.567a.78.78 0 00-.311-.31l-.568-.311.568-.31zm5.858-10.137l1.62.886.886 1.62a.781.781 0 001.371 0l.886-1.62 1.62-.886a.78.78 0 000-1.37l-1.62-.887-.886-1.62a.781.781 0 00-1.37 0l-.887 1.62-1.62.886a.781.781 0 000 1.371zm2.57-.996a.781.781 0 00.311-.31l.31-.568.311.568a.78.78 0 00.31.31l.568.31-.567.311a.78.78 0 00-.31.31l-.311.569-.31-.568a.781.781 0 00-.311-.31l-.568-.311.568-.31zM37.89 26.563H9.376v1.562h28.516a1.173 1.173 0 011.172 1.172v3.515h-.196a3.715 3.715 0 00-3.71 3.711v.196h-2.609c.175-.366.265-.767.264-1.172v-2.344a2.738 2.738 0 00-2.734-2.734h-2.344A2.737 2.737 0 0025 33.203v2.344c0 .405.09.806.264 1.172h-1.24a3.705 3.705 0 00-2.93 1.435 3.706 3.706 0 00-2.93-1.435h-1.24c.174-.366.264-.767.264-1.172v-2.344a2.738 2.738 0 00-2.735-2.734H12.11a2.737 2.737 0 00-2.734 2.734v2.344c0 .405.09.806.264 1.172H7.031v-.196a3.715 3.715 0 00-3.71-3.71h-.196v-3.516a1.173 1.173 0 011.172-1.172h3.516v-1.563H4.296a2.737 2.737 0 00-2.734 2.735v18.36a.781.781 0 00.78.78H6.25a.781.781 0 00.781-.78v-1.563H30.47V44.53H7.03v-1.56h28.125v1.562H32.03v1.563h3.125v1.562a.781.781 0 00.782.782h3.906a.781.781 0 00.781-.782v-18.36a2.737 2.737 0 00-2.734-2.733zm-11.328 8.984v-2.344a1.173 1.173 0 011.172-1.172h2.344a1.174 1.174 0 011.172 1.172v2.344a1.173 1.173 0 01-1.172 1.172h-2.344a1.174 1.174 0 01-1.172-1.172zm-15.625 0v-2.344a1.173 1.173 0 011.172-1.172h2.344a1.174 1.174 0 011.172 1.172v2.344a1.173 1.173 0 01-1.172 1.172H12.11a1.174 1.174 0 01-1.171-1.172zM5.47 46.875H3.125v-12.5h.195a2.15 2.15 0 012.149 2.148v10.352zm1.562-8.594h11.133a2.15 2.15 0 012.148 2.149v.976H7.033v-3.125zm14.844 3.125v-.976a2.15 2.15 0 012.148-2.149h11.133v3.125H21.875zm17.188 5.469H36.72V36.523a2.15 2.15 0 012.148-2.148h.196v12.5z" fill="#D41F7E"/><path d="M48.438 7.813v-5.47a.781.781 0 00-.782-.78H19.531a.781.781 0 00-.781.78V25h1.563v-1.563h26.562v3.125h-4.688v1.563h4.688v6.25h-4.688v1.563h4.688v10.937h-4.688v1.563h5.47a.781.781 0 00.78-.782V9.375h-1.562V12.5h-7.813V3.125h7.813v4.688h1.563zM37.5 12.5h-7.813V3.125H37.5V12.5zM20.312 3.125h7.813V12.5h-7.813V3.125zm0 10.938H37.5v7.812H20.312v-7.813zm26.563 7.812H43.75v-7.813h3.125v7.813zm-4.688-7.813v7.813h-3.124v-7.813h3.124z" fill="#D41F7E"/><path d="M21.875 16.406h1.563v3.125h-1.563v-3.125zM25 7.031h1.563v1.563H25V7.03zm6.25 0h1.563v1.563H31.25V7.03zm10.156 2.344h3.125v1.563h-3.125V9.374zm.782 30.469h1.562v3.125h-1.563v-3.125z" fill="#D41F7E"/></svg>