<svg width="25" height="23" fill="none" xmlns="http://www.w3.org/2000/svg"><g opacity=".5" clip-path="url(#clip0)" fill-rule="evenodd" clip-rule="evenodd" fill="#fff"><path d="M23.112 9.57v6.187c0 3.992-3.253 7.243-7.246 7.243H7.351C3.331 23 .08 19.75.08 15.757V9.57h5.077v6.186a3.42 3.42 0 003.412 3.41h6.055a3.42 3.42 0 003.411-3.41V9.57h5.078zM9.942 7.64h3.332c.53 0 .979.424.979.979v5.737a.976.976 0 01-.979.978h-3.33a.976.976 0 01-.979-.978V8.619c0-.529.45-.978.979-.978zM18.061.317a7.354 7.354 0 014.919 5.42h-4.92V.317zM7.351-.026h6.903v3.833H8.568a3.42 3.42 0 00-3.067 1.93H.238C.926 2.459 3.861-.026 7.352-.026z"/></g><defs><clipPath id="clip0"><path fill="#fff" d="M0 0h25v23H0z"/></clipPath></defs></svg>