<svg width="39" height="39" fill="none" xmlns="http://www.w3.org/2000/svg"><path d="M1.43 10.613l.009-.008a.823.823 0 011.132.016.789.789 0 010 1.116 3.327 3.327 0 004.705 4.705.138.138 0 01.04-.031 14.68 14.68 0 014.46-4.095 8.4 8.4 0 014.467-11.018c4.277-1.806 9.212.19 11.018 4.467.364.871.586 1.798.65 2.74.84-.237 1.512-.348 2.035-.332.84.008 1.458.53 1.553 1.299.055.34.016.84-.166 2.463l-.167 1.553c1.521 1.236 2.717 2.677 3.58 4.293l2.297.452A2.442 2.442 0 0139 20.625v5.093a2.435 2.435 0 01-1.956 2.392l-2.305.46a12.646 12.646 0 01-1.656 2.479 5.232 5.232 0 01-1.552 6.004 5.876 5.876 0 01-3.731 1.315 6.12 6.12 0 01-4.167-1.64l-.554-.523a17.282 17.282 0 01-6.155-.19l-.784.753a5.78 5.78 0 01-4.016 1.576h-.19a5.885 5.885 0 01-4.103-1.814c-1.663-1.758-1.862-4.404-.547-6.48-1.489-2.075-2.273-4.45-2.273-6.906v-.626c.071-1.18.38-2.4.919-3.636a4.887 4.887 0 01-4.491-1.33 4.912 4.912 0 01-.008-6.94zm18.084-8.405a6.812 6.812 0 00-3.81 12.468c.064.048.127.143.175.143h7.24c.031 0 .07-.048.11-.08a6.838 6.838 0 003.097-5.235c.016-.182.016-.34.016-.483-.008-3.755-3.057-6.805-6.828-6.813zM8.821 29.465c.135.158.34.522.095 1.014a.685.685 0 01-.08.126c-1.148 1.497-1.084 3.525.151 4.832.785.816 1.846 1.323 2.995 1.323h.15a4.215 4.215 0 002.923-1.14l1.03-.983a.938.938 0 01.855-.238c2.036.483 4.143.547 6.21.198.048-.008.087-.008.135-.008a.925.925 0 01.673.262l.776.736a4.523 4.523 0 002.891 1.204 4.338 4.338 0 002.923-.942 3.665 3.665 0 00.967-4.452.867.867 0 01-.088-.673.797.797 0 01.19-.372 11.513 11.513 0 001.854-2.74.996.996 0 01.713-.523l2.55-.516a.857.857 0 00.682-.84v-5.108a.841.841 0 00-.681-.84l-2.559-.515a.996.996 0 01-.562-.309.768.768 0 01-.15-.206c-.809-1.615-2.013-3.057-3.573-4.261-.024-.024-.048-.04-.071-.063a.919.919 0 01-.27-.682c0-.031 0-.055.008-.087l.206-1.9c.071-.61.19-1.712.174-2.013h-.031c-.317-.008-.927.048-2.052.412a8.335 8.335 0 01-2.257 4.666h.752c.436 0 .792.356.792.792a.794.794 0 01-.792.792H12.623a.794.794 0 01-.792-.792c0-.436.357-.792.792-.792h.824a6.32 6.32 0 01-.919-1.133c-1.83 1.109-3.335 2.598-4.372 4.309l-.563 1.085c-.578 1.196-.91 2.408-.99 3.517v.547c0 2.257.769 4.435 2.218 6.313z" fill="#D41F7E"/><path d="M28.03 19.183a2.027 2.027 0 11-2.028 2.028 2.022 2.022 0 012.028-2.028zm0 2.48a.443.443 0 10-.444-.444.433.433 0 00.444.443zM19.514 4.22c2.654 0 4.8 2.147 4.8 4.8a4.817 4.817 0 01-4.8 4.8 4.797 4.797 0 01-4.8-4.8c0-2.653 2.147-4.8 4.8-4.8zm0 8.016A3.218 3.218 0 0022.73 9.02a3.218 3.218 0 00-3.216-3.215 3.218 3.218 0 00-3.216 3.215 3.218 3.218 0 003.216 3.216z" fill="#D41F7E"/></svg>