<svg width="65" height="65" fill="none" xmlns="http://www.w3.org/2000/svg"><g clip-path="url(#clip0)"><path d="M35.726 52.598l13.069-22.635c.225-.39.273-.86.13-1.288L44.05 14.057a1.578 1.578 0 00-1.812-1.046l-6.429 1.314A7.666 7.666 0 0037.471 18a3.058 3.058 0 013.116-.037 3.059 3.059 0 011.118 4.174.789.789 0 01-1.366-.788 1.48 1.48 0 00-.54-2.02 1.48 1.48 0 00-2.02.541 1.48 1.48 0 00.54 2.02.788.788 0 11-.788 1.365 3.058 3.058 0 01-1.154-4.108 9.24 9.24 0 01-2.114-4.505l-7.122 1.456c-.442.09-.825.366-1.05.757L10.706 43.502a1.579 1.579 0 00.577 2.154l19.973 11.531c.753.435 1.72.176 2.154-.577a.789.789 0 011.366.788 3.157 3.157 0 01-4.309 1.155L10.495 47.022a3.157 3.157 0 01-1.155-4.308l15.385-26.648a3.156 3.156 0 012.1-1.513l7.31-1.495a9.24 9.24 0 011.237-4.592.789.789 0 011.366.788 7.666 7.666 0 00-1.019 3.48l6.203-1.268c1.562-.32 3.12.58 3.624 2.092l4.875 14.618a3.16 3.16 0 01-.26 2.575L37.09 53.387a.789.789 0 01-1.365-.789zm2.19-19.561a3.947 3.947 0 011.443 5.385l-5.224 9.047a3.947 3.947 0 01-5.385 1.443l-9.047-5.223a3.947 3.947 0 01-1.444-5.386l5.224-9.047a3.947 3.947 0 015.385-1.443l9.048 5.224zm-.789 1.365L28.08 29.18a2.368 2.368 0 00-3.231.866l-5.224 9.047a2.368 2.368 0 00.866 3.231l9.047 5.224a2.37 2.37 0 003.232-.866l5.223-9.048a2.368 2.368 0 00-.866-3.23z" fill="#D41F7E"/></g><defs><clipPath id="clip0"><path fill="#fff" transform="rotate(30 11.825 44.13)" d="M0 0h47.299v47.299H0z"/></clipPath></defs></svg>