<svg width="47" height="47" fill="none" xmlns="http://www.w3.org/2000/svg"><path d="M46.217 0H.783A.783.783 0 000 .783v45.434c0 .432.35.783.783.783h45.434c.432 0 .783-.35.783-.783V.783A.783.783 0 0046.217 0zM1.567 1.567h21.15v5.748a4.7 4.7 0 100 8.87v6.532h-7.834a.783.783 0 00-.626 1.253c.41.54.63 1.201.626 1.88a3.133 3.133 0 11-6.266 0 3.075 3.075 0 01.626-1.88.783.783 0 00-.626-1.253h-7.05V1.567zm21.585 36.111a.783.783 0 00-.435.705v7.05H1.567v-21.15h5.748a4.7 4.7 0 108.87 0h6.532v7.834a.783.783 0 001.253.626c.54-.41 1.201-.63 1.88-.626a3.133 3.133 0 110 6.266 3.075 3.075 0 01-1.88-.626.783.783 0 00-.818-.079zm22.281 7.755h-21.15v-5.748a4.7 4.7 0 100-8.87v-6.532H32.9a.783.783 0 00.47-1.41 3.133 3.133 0 113.76 0 .783.783 0 00.47 1.41h7.833v21.15zm0-22.716h-6.117a4.7 4.7 0 10-8.132 0h-6.9v-7.834a.783.783 0 00-1.254-.626c-.54.41-1.201.63-1.88.626a3.133 3.133 0 110-6.266 3.075 3.075 0 011.88.626.783.783 0 001.253-.627v-7.05h21.15v21.15z" fill="#D41F7E"/></svg>