<svg width="48" height="48" fill="none" xmlns="http://www.w3.org/2000/svg"><g clip-path="url(#clip0)" fill="#D41F7E"><path d="M45.532 21.37l2.303-2.73a.703.703 0 00.16-.537l-1.07-8.965a.703.703 0 00-1.216-.392l-4.844 5.276-8.852.902a.703.703 0 00.142 1.399l9.119-.929a.703.703 0 00.446-.224l3.99-4.346.853 7.142-2.043 2.424-4.134 2.788a.703.703 0 00-.309.63l.322 4.735c.023.344.292.62.634.653l2.944.28 1.51 3.841-.69 1.777-2.01-2.682a.703.703 0 00-.672-.273l-3.052.482a.703.703 0 00-.55.452l-.99 2.684-5.708 1.157a.703.703 0 00.28 1.379l6.092-1.235a.703.703 0 00.52-.447l.983-2.665 2.226-.352 2.515 3.357a.703.703 0 001.219-.167l1.247-3.214a.703.703 0 00-.001-.511l-1.767-4.5a.703.703 0 00-.588-.442l-2.78-.265-.253-3.735 3.88-2.617a.695.695 0 00.144-.13zM28.73 37.54l-2.33.472-5.552-5.824a.703.703 0 00-.68-.197l-4.028 1.015-1.806-2.222a.704.704 0 00-.48-.257l-6.747-.643a.703.703 0 00-.77.7v1.481l-2.67 2.73-.874-3.838 1.133-2.977a.703.703 0 00-.438-.918l-1.947-.638 2.365-9.664 4.465-2.732 3.788 1.762a.703.703 0 10.593-1.275l-4.13-1.92a.703.703 0 00-.663.037l-5.034 3.08a.703.703 0 00-.316.432L.02 26.722a.703.703 0 00.464.835l1.865.612-.946 2.487a.703.703 0 00-.029.406l1.209 5.302a.703.703 0 001.188.336l3.772-3.857a.703.703 0 00.2-.491v-.994l5.685.541 1.903 2.342a.703.703 0 00.717.239l4.065-1.025 5.537 5.809a.703.703 0 00.648.204l2.712-.55a.703.703 0 00-.28-1.378z"/><path d="M29.372 12.98c-3.451 0-5.129-.403-6.905-.83-1.658-.397-3.37-.808-6.53-.861v-.803a.703.703 0 00-1.406 0v16.272a.703.703 0 101.406 0v-3.51c2.985.052 4.55.427 6.202.824 1.777.426 3.615.867 7.233.867a.703.703 0 00.703-.703V13.683a.703.703 0 00-.703-.703zm-7.233.538c1.658.398 3.37.809 6.53.862v2.142c-2.985-.051-4.55-.427-6.202-.823-1.658-.399-3.37-.81-6.53-.862v-2.142c2.985.051 4.55.427 6.202.823zm.328 9.186c-1.658-.398-3.37-.808-6.53-.861V19.71c2.985.05 4.55.427 6.202.823.232.055.463.111.7.166a.704.704 0 00.318-1.37 78.748 78.748 0 01-.69-.164c-1.659-.398-3.37-.808-6.53-.861v-2.061c2.985.05 4.55.427 6.202.823 1.658.398 3.37.809 6.53.862v2.06a29.407 29.407 0 01-2.468-.138.703.703 0 10-.142 1.399c.807.082 1.666.13 2.61.146v2.132c-2.985-.05-4.55-.426-6.202-.823z"/></g><defs><clipPath id="clip0"><path fill="#fff" d="M0 0h48v48H0z"/></clipPath></defs></svg>