<svg width="40" height="40" fill="none" xmlns="http://www.w3.org/2000/svg"><g clip-path="url(#clip0)" fill="#F09720"><path d="M36.991 10.853l-.001-.031c-.018-.384-.029-.79-.036-1.243a4.24 4.24 0 00-3.992-4.153c-4.599-.257-8.157-1.757-11.196-4.72L21.74.682a2.56 2.56 0 00-3.48 0l-.025.024c-3.04 2.963-6.598 4.463-11.197 4.72a4.24 4.24 0 00-3.991 4.153c-.007.45-.02.856-.036 1.243l-.002.072c-.09 4.69-.2 10.526 1.752 15.824 1.073 2.913 2.7 5.445 4.832 7.527 2.43 2.37 5.611 4.253 9.457 5.594a2.944 2.944 0 00.95.16 2.876 2.876 0 00.952-.161c3.841-1.343 7.02-3.227 9.447-5.597 2.132-2.082 3.758-4.615 4.832-7.529 1.96-5.313 1.85-11.16 1.76-15.86zM33.03 25.9c-2.06 5.584-6.263 9.418-12.851 11.722a.525.525 0 01-.355 0c-6.596-2.3-10.802-6.132-12.86-11.716-1.8-4.883-1.698-10.24-1.607-14.967v-.026c.018-.406.03-.832.037-1.3A1.885 1.885 0 017.17 7.769c2.603-.145 4.89-.648 6.99-1.537 2.098-.888 3.961-2.14 5.696-3.827a.216.216 0 01.29 0c1.735 1.687 3.599 2.939 5.697 3.827 2.1.89 4.387 1.392 6.99 1.537a1.884 1.884 0 011.775 1.845c.007.47.02.895.038 1.299.09 4.732.189 10.094-1.616 14.987z"/><path d="M20 10.032c-5.498 0-9.97 4.472-9.97 9.969 0 5.496 4.473 9.968 9.97 9.968 5.496 0 9.968-4.472 9.968-9.968 0-5.497-4.472-9.969-9.969-9.969zm0 17.59c-4.203 0-7.622-3.419-7.622-7.621 0-4.203 3.419-7.622 7.621-7.622 4.203 0 7.622 3.419 7.622 7.622 0 4.202-3.42 7.621-7.622 7.621z"/><path d="M22.864 16.906l-4.63 4.63-1.257-1.257a1.174 1.174 0 00-1.66 1.66l2.087 2.087a1.172 1.172 0 001.66 0l5.46-5.46a1.174 1.174 0 00-1.66-1.66z"/></g><defs><clipPath id="clip0"><path fill="#fff" d="M0 0h40v40H0z"/></clipPath></defs></svg>