<svg width="33" height="33" fill="none" xmlns="http://www.w3.org/2000/svg"><g clip-path="url(#clip0)" fill="#DB1F7B"><path d="M32.96 2.464A2.565 2.565 0 0030.537.039c-2.645-.145-7.82-.004-12.77 2.556-2.523 1.305-5.191 3.517-7.32 6.07l-.079.095-4.832.373a2.551 2.551 0 00-1.944 1.144L.294 15.264a1.76 1.76 0 00-.142 1.69 1.76 1.76 0 001.345 1.03l4.072.631c-.015.08-.03.159-.042.238-.136.81.133 1.644.718 2.23l5.672 5.671a2.57 2.57 0 002.23.719l.237-.042.63 4.072a1.767 1.767 0 002.72 1.204l4.989-3.298a2.55 2.55 0 001.143-1.944l.374-4.832.094-.078c2.553-2.13 4.766-4.798 6.07-7.321 2.56-4.95 2.701-10.126 2.557-12.77zM21.657 27.796l-4.77 3.154-.615-3.968c2.016-.593 4.01-1.542 5.91-2.814l-.242 3.148a.63.63 0 01-.283.48zm-8.372-2.409l-5.671-5.671a.627.627 0 01-.18-.544 16.71 16.71 0 01.756-2.873l8.51 8.51a16.695 16.695 0 01-2.871.757.627.627 0 01-.544-.179zm-7.6-14.326l3.148-.243c-1.272 1.9-2.222 3.894-2.814 5.91l-3.968-.614 3.154-4.77a.63.63 0 01.48-.283zM23.096 21.07c-1.562 1.303-3.078 2.245-4.476 2.927l-9.617-9.618a22.55 22.55 0 012.927-4.475c1.97-2.363 4.422-4.4 6.724-5.592 4.543-2.35 9.328-2.476 11.777-2.343a.634.634 0 01.6.6c.133 2.448.006 7.234-2.344 11.776-1.19 2.303-3.229 4.754-5.591 6.725z"/><path d="M22.605 15.226a4.82 4.82 0 003.418-1.413 4.802 4.802 0 001.416-3.418 4.802 4.802 0 00-1.416-3.418 4.84 4.84 0 00-6.836 0 4.802 4.802 0 00-1.416 3.418c0 1.291.503 2.505 1.416 3.418a4.818 4.818 0 003.418 1.413zm-2.051-6.882a2.89 2.89 0 012.05-.848 2.894 2.894 0 012.901 2.898c0 .776-.302 1.504-.85 2.052a2.904 2.904 0 01-4.101 0 2.881 2.881 0 01-.85-2.051c0-.775.302-1.503.85-2.05zM.986 27.195a.964.964 0 00.684-.283l3.156-3.156a.967.967 0 00-1.367-1.368L.303 25.545a.967.967 0 00.683 1.65zm6.733-1.915a.967.967 0 00-1.367 0L.283 31.35a.967.967 0 101.367 1.367l6.069-6.069a.967.967 0 000-1.367zm1.525 2.894L6.088 31.33a.967.967 0 101.367 1.367l3.156-3.156a.967.967 0 10-1.367-1.367z"/></g><defs><clipPath id="clip0"><path fill="#fff" d="M0 0h33v33H0z"/></clipPath></defs></svg>