<svg width="55" height="55" fill="none" xmlns="http://www.w3.org/2000/svg"><g clip-path="url(#clip0)" fill="#D41F7E"><path d="M49.991 24.742A23.828 23.828 0 0033.467 8.218 4.566 4.566 0 0030.71 0h-7.332a4.566 4.566 0 00-2.756 8.218C7.948 11.765.55 24.915 4.097 37.588c3.548 12.673 16.697 20.071 29.37 16.524 12.673-3.547 20.072-16.696 16.524-29.37zM23.378 1.833h7.332a2.75 2.75 0 110 5.499h-7.332a2.75 2.75 0 110-5.499zm3.666 51.324c-12.148 0-21.995-9.848-21.995-21.996 0-12.148 9.847-21.996 21.995-21.996 12.148 0 21.996 9.848 21.996 21.996-.014 12.142-9.853 21.981-21.996 21.996z"/><path d="M7.799 3.666a4.583 4.583 0 100 9.165 4.583 4.583 0 000-9.165zm0 7.332a2.75 2.75 0 110-5.499 2.75 2.75 0 010 5.499zm39.409-7.332a4.583 4.583 0 100 9.165 4.583 4.583 0 000-9.165zm0 7.332a2.75 2.75 0 110-5.499 2.75 2.75 0 010 5.499zm-20.163 0v1.833c9.762.011 17.807 7.663 18.307 17.413H29.626a2.75 2.75 0 100 1.833H46.29c.506 0 .917-.41.917-.916-.013-11.13-9.033-20.15-20.163-20.163zm0 21.08a.917.917 0 110-1.834.917.917 0 010 1.833zm11.662 9.449l-1.296 1.296 3.888 3.888 1.296-1.296-3.888-3.888zm-10.745 5.214h-1.833v5.5h1.833v-5.5zM15.374 41.53l-3.889 3.887 1.296 1.297 3.889-3.889-1.296-1.296zm-3.909-11.286h-5.5v1.833h5.5v-1.833zm1.322-14.635l-1.296 1.296 3.889 3.888 1.296-1.296-3.889-3.888z"/></g><defs><clipPath id="clip0"><path fill="#fff" d="M0 0h55v55H0z"/></clipPath></defs></svg>