<svg width="40" height="40" fill="none" xmlns="http://www.w3.org/2000/svg"><path d="M17.745 0a.781.781 0 00-.782.781V5.6a.781.781 0 101.563 0V.781A.781.781 0 0017.745 0zm10.253 10.255H23.18a.781.781 0 100 1.563h4.818a.781.781 0 000-1.563zm-15.691-.002H7.489a.781.781 0 100 1.563h4.818a.781.781 0 000-1.563zm1.573-4.188L11.605 3.79A.781.781 0 0010.5 4.895l2.275 2.275a.779.779 0 001.105 0 .781.781 0 000-1.105zm11.109-2.273a.781.781 0 00-1.105 0l-2.275 2.275a.781.781 0 001.105 1.104l2.275-2.274a.781.781 0 000-1.105z" fill="#D41F7E"/><path d="M30.4 17.79c-.526 0-1.02.142-1.447.39a2.895 2.895 0 00-2.77-2.068c-.832 0-1.582.353-2.11.917a2.883 2.883 0 00-3.438-.593v-5.4a2.894 2.894 0 00-2.89-2.891 2.894 2.894 0 00-2.891 2.89v4.12a.781.781 0 001.563 0v-4.12a1.33 1.33 0 011.328-1.328 1.33 1.33 0 011.328 1.328v13.08a.781.781 0 101.562 0v-5.113a1.33 1.33 0 011.328-1.328 1.33 1.33 0 011.328 1.328v5.112a.781.781 0 001.563 0v-5.112a1.33 1.33 0 011.328-1.328 1.33 1.33 0 011.328 1.328v5.112a.781.781 0 101.563 0v-3.433a1.33 1.33 0 011.328-1.329 1.33 1.33 0 011.328 1.328v8.17c0 .582-.052 1.165-.156 1.732a.781.781 0 101.537.28c.12-.66.181-1.336.181-2.012v-8.17a2.894 2.894 0 00-2.89-2.89z" fill="#D41F7E"/><path d="M29.784 35.9a.781.781 0 00-1.104-.038 9.555 9.555 0 01-6.539 2.575 9.64 9.64 0 01-8.633-5.418l-3.599-7.451a1.439 1.439 0 01.574-1.864 1.442 1.442 0 011.94.495l2.545 4.176a.781.781 0 001.448-.406v-7.657a.781.781 0 10-1.562 0v4.874l-1.097-1.8a2.977 2.977 0 00-4.055-1.035 3.007 3.007 0 00-1.2 3.896l3.599 7.452a11.137 11.137 0 004.113 4.595A11.137 11.137 0 0022.141 40c2.834 0 5.534-1.064 7.605-2.995a.781.781 0 00.038-1.105zm2.022-2.65a.787.787 0 00-.553-.229.787.787 0 00-.552.229.787.787 0 00-.229.552.786.786 0 00.781.782.786.786 0 00.781-.781.787.787 0 00-.228-.553zM16.188 17.26a.787.787 0 00-.553-.229.787.787 0 00-.552.23.787.787 0 00-.229.552c0 .205.084.407.229.552a.787.787 0 00.552.229.787.787 0 00.553-.23.787.787 0 00.229-.552.787.787 0 00-.23-.552z" fill="#D41F7E"/></svg>