<svg width="23" height="23" fill="none" xmlns="http://www.w3.org/2000/svg"><path fill-rule="evenodd" clip-rule="evenodd" d="M19.333 4.134A10.615 10.615 0 0011.775 1C5.885 1 1.091 5.793 1.09 11.684a10.657 10.657 0 001.426 5.342L1 22.563l5.664-1.486c1.561.851 3.318 1.3 5.106 1.3h.005c5.888 0 10.682-4.793 10.684-10.684a10.62 10.62 0 00-3.126-7.56zm-7.558 16.439h-.004a8.87 8.87 0 01-4.52-1.238l-.324-.193-3.362.882.898-3.277-.212-.336a8.859 8.859 0 01-1.357-4.726c.002-4.897 3.986-8.88 8.884-8.88a8.82 8.82 0 016.279 2.604 8.828 8.828 0 012.598 6.283c-.002 4.897-3.986 8.88-8.88 8.88zm4.87-6.652c-.266-.133-1.579-.779-1.823-.868-.245-.09-.423-.134-.601.133-.178.268-.69.87-.845 1.047-.156.178-.312.2-.579.067-.267-.134-1.127-.416-2.147-1.325-.793-.708-1.33-1.582-1.485-1.85-.156-.267-.001-.397.117-.544.289-.36.578-.735.667-.913.09-.179.045-.335-.022-.468-.067-.134-.6-1.448-.823-1.983-.217-.52-.437-.45-.6-.458-.156-.008-.334-.01-.512-.01a.98.98 0 00-.712.335c-.245.267-.935.913-.935 2.227 0 1.314.957 2.584 1.09 2.762.134.178 1.883 2.875 4.561 4.031.637.275 1.134.44 1.522.563.64.203 1.222.174 1.682.105.513-.076 1.58-.646 1.802-1.27.222-.623.222-1.157.155-1.269-.066-.111-.244-.178-.511-.312z" fill="#6A6A6A"/></svg>