<svg width="37" height="37" fill="none" xmlns="http://www.w3.org/2000/svg"><path d="M3.98 22.954a.727.727 0 00-1.022 0 .73.73 0 00-.212.511.727.727 0 00.722.723c.19 0 .377-.078.512-.212a.73.73 0 00.211-.51.73.73 0 00-.211-.512z" fill="#D41F7E"/><path d="M32.086 0H4.914a2.17 2.17 0 00-2.168 2.168v18.765a.723.723 0 001.445 0v-3.338l.008.005a16.77 16.77 0 016.326 8.08 18.254 18.254 0 008.711 9.874h-8.299l-.612-.65a8.433 8.433 0 01-2.302-5.802.723.723 0 10-1.445 0 9.87 9.87 0 002.389 6.452H4.914a.723.723 0 01-.723-.722v-8.579a.723.723 0 00-1.445 0v8.579A2.17 2.17 0 004.914 37h27.171a2.17 2.17 0 002.169-2.168V2.168A2.17 2.17 0 0032.086 0zm.723 8.896a4.782 4.782 0 00-2.371-.627c-1.373 0-2.661.579-3.626 1.63-1.952 2.13-1.952 5.594 0 7.723.965 1.052 2.253 1.63 3.626 1.63.84 0 1.649-.217 2.37-.627v6.967a13.456 13.456 0 01-1.837 2.014.723.723 0 10.958 1.082c.301-.267.595-.552.88-.853v6.997a.724.724 0 01-.723.722h-9.052l-.981-.348A16.818 16.818 0 0111.88 25.177a18.208 18.208 0 00-6.868-8.772l-.82-.558V2.168c0-.399.324-.723.722-.723h1.103c.87 1.857 1.33 3.91 1.33 5.96v1.92a.723.723 0 001.445 0v-1.92c0-2.037-.412-4.078-1.196-5.96h7.667c-2.37 3.329-3.675 7.705-3.675 12.349 0 4.71 1.341 9.145 3.776 12.49 2.485 3.415 5.811 5.296 9.366 5.296a.723.723 0 000-1.445c-3.08 0-5.991-1.67-8.197-4.7-4.672-6.42-4.672-16.863 0-23.282.177-.244.36-.48.548-.708h15.005c.398 0 .723.324.723.723v6.728zm0 1.789v6.152c-.662.627-1.494.97-2.371.97-.963 0-1.873-.412-2.56-1.162-1.46-1.59-1.46-4.178 0-5.768.687-.75 1.596-1.163 2.56-1.163.877 0 1.71.343 2.37.97z" fill="#D41F7E"/><path d="M25.337 3.699a.723.723 0 00-.926-.432c-1.465.533-2.814 1.485-3.9 2.752a.723.723 0 101.096.941c.925-1.079 2.066-1.886 3.298-2.335a.723.723 0 00.432-.926zM28.47 23.99a.721.721 0 00-.762-.681h-.013a.723.723 0 10.083 1.444l.013-.001a.722.722 0 00.68-.763zm-3.139-.953c-1.4-.413-2.689-1.269-3.723-2.475-2.348-2.738-3.056-6.833-1.804-10.433a.723.723 0 00-1.365-.475c-1.418 4.077-.605 8.728 2.072 11.849 1.217 1.419 2.742 2.429 4.412 2.92a.721.721 0 00.898-.489.723.723 0 00-.49-.897z" fill="#D41F7E"/></svg>